<?xml version="1.0" encoding="utf-8"?>
<!-- Generator: Adobe Illustrator 18.0.0, SVG Export Plug-In . SVG Version: 6.00 Build 0)  -->
<!DOCTYPE svg PUBLIC "-//W3C//DTD SVG 1.1//EN" "http://www.w3.org/Graphics/SVG/1.1/DTD/svg11.dtd">
<svg version="1.1" id="Слой_1" xmlns="http://www.w3.org/2000/svg" xmlns:xlink="http://www.w3.org/1999/xlink" x="0px" y="0px"
	 viewBox="0 0 1180 362.1" enable-background="new 0 0 1180 362.1" xml:space="preserve">
<g>
	<text transform="matrix(1 0 0 1 0 284.9697)" fill="#383838" font-family="'Raleway-Regular'" font-size="14">100000</text>
</g>
<g>
	<text transform="matrix(1 0 0 1 0 230.3696)" fill="#383838" font-family="'Raleway-Regular'" font-size="14">100000</text>
</g>
<g>
	<text transform="matrix(1 0 0 1 0 175.7695)" fill="#383838" font-family="'Raleway-Regular'" font-size="14">100000</text>
</g>
<g>
	<text transform="matrix(1 0 0 1 0 121.1699)" fill="#383838" font-family="'Raleway-Regular'" font-size="14">100000</text>
</g>
<g>
	<text transform="matrix(1 0 0 1 0 66.5698)" fill="#383838" font-family="'Raleway-Regular'" font-size="14">100000</text>
</g>
<g>
	<text transform="matrix(1 0 0 1 0 11.9697)" fill="#383838" font-family="'Raleway-Regular'" font-size="14">100000</text>
</g>
<g>
	<text transform="matrix(1 0 0 1 109 358.9697)" fill="#383838" font-family="'Raleway-Regular'" font-size="14">10.10.2016</text>
</g>
<g>
	<text transform="matrix(1 0 0 1 248.9998 358.9697)" fill="#383838" font-family="'Raleway-Regular'" font-size="14">15.10.2016</text>
</g>
<g>
	<text transform="matrix(1 0 0 1 417.9995 358.9697)" fill="#383838" font-family="'Raleway-Regular'" font-size="14">20.10.2016</text>
</g>
<g>
	<text transform="matrix(1 0 0 1 586.9998 358.9697)" fill="#383838" font-family="'Raleway-Regular'" font-size="14">25.10.2016</text>
</g>
<g>
	<text transform="matrix(1 0 0 1 768 357.9697)" fill="#383838" font-family="'Raleway-Regular'" font-size="14">30.10.2016</text>
</g>
<g>
	<text transform="matrix(1 0 0 1 947.9998 358.9697)" fill="#383838" font-family="'Raleway-Regular'" font-size="14">5.11.2016</text>
</g>
<g>
	<text transform="matrix(1 0 0 1 1088 358.9697)" fill="#383838" font-family="'Raleway-Regular'" font-size="14">10.11.2016</text>
</g>
<g>
	
		<rect x="110.6" y="4.5" fill="#FFFFFF" stroke="#E6E6E6" stroke-width="1.0133" stroke-miterlimit="10" width="1065.7" height="323"/>
	<line fill="none" stroke="#E6E6E6" stroke-width="1.0133" stroke-miterlimit="10" x1="1176.9" y1="58.5" x2="111.1" y2="58.5"/>
	
		<line opacity="0.4" fill="none" stroke="#E6E6E6" stroke-width="1.0133" stroke-miterlimit="10" x1="1176.9" y1="112.5" x2="111.1" y2="112.5"/>
	<line fill="none" stroke="#E6E6E6" stroke-width="1.0133" stroke-miterlimit="10" x1="1176.9" y1="166.5" x2="111.1" y2="166.5"/>
	<line fill="none" stroke="#E6E6E6" stroke-width="1.0133" stroke-miterlimit="10" x1="1176.9" y1="219.5" x2="111.1" y2="219.5"/>
	<line fill="none" stroke="#E6E6E6" stroke-width="1.0133" stroke-miterlimit="10" x1="1176.9" y1="273.5" x2="111.1" y2="273.5"/>
	<line fill="none" stroke="#E6E6E6" stroke-width="1.0133" stroke-miterlimit="10" x1="288.6" y1="327" x2="288.6" y2="4"/>
	<line fill="none" stroke="#E6E6E6" stroke-width="1.0133" stroke-miterlimit="10" x1="465.5" y1="327" x2="465.5" y2="4"/>
	<line fill="none" stroke="#E6E6E6" stroke-width="1.0133" stroke-miterlimit="10" x1="643.5" y1="327" x2="643.5" y2="4"/>
	<line fill="none" stroke="#E6E6E6" stroke-width="1.0133" stroke-miterlimit="10" x1="821.4" y1="327" x2="821.4" y2="4"/>
	<line fill="none" stroke="#E6E6E6" stroke-width="1.0133" stroke-miterlimit="10" x1="998.4" y1="327" x2="998.4" y2="4"/>
</g>
<path opacity="0.6" fill="none" stroke="#FF2930" stroke-width="3.04" stroke-miterlimit="10" d="M108,257c4.2-2,76.4-42,84.8-43
	s28.3,7,28.3,7l14.7,6l35.6-8c0,0,30.4-12,37.7-14s29.3-8,29.3-8l39.8-3c0,0,19.9,7,24.1,8s33.5-8,33.5-8l27.2-14l19.9-11l32.5-12
	l11.5-7c0,0,14.7-5,22,0s15.7,12,15.7,12s5.2,8,14.7,9s52.3-14,52.3-14l39.8-14c0,0,31.4-9,44-12s31.4-3,31.4-3s27.2,3,28.3,6
	s22,5,22,5l40.8-7c0,0,44-12,53.4-16s22-13,22-13l39.8-11c0,0,25.1-2,32.5-2s39.8-1,39.8-1l64.9-12c0,0,30.4-11,35.6-14
	s12.6-7,12.6-7l40.8-20"/>
<path fill="none" stroke="#B3B3B3" stroke-width="3.04" stroke-miterlimit="10" d="M112.2,45.2c0,0,127.7-3.1,149.7-4.1
	S318.4,42,332,43s-4.2,4,30.4,7s66,11,66,11l22,6c0,0,33.5,5,49.2,3s13.6-1,20.9,0s17.8,5,32.5,3s64.9-8,72.2-8s36.6-2,40.8-1
	s34.5,0,45,0s45,4,52.3,4s25.1-1,41.9-2s52.3-6,63.9-6s29.3-2,51.3-1s40.8,4,49.2,5c8.4,1,90,24.2,90,24.2s3.1,3.3,18.8,3.3
	s37.7,0,46.1,0s52.3,20.5,52.3,20.5"/>
<path fill="none" stroke="#39B54A" stroke-width="3.04" stroke-miterlimit="10" d="M114.3,294c3.1-1,146.6,10,152.8,9
	s46.1-13,46.1-13s32.5,2,51.3,1s60.7-5,60.7-5l31.4,1c0,0,15.7,8,55.5,1s86.9-13,86.9-13l41.9,7c0,0,24.1,6,44,4
	s70.1-11.8,70.1-11.8l93.2-22.8h67l77.5-15.3L1024,223l102.6-23c0,0,10.5-9,19.9-16s33.5-7,33.5-7"/>
</svg>
