<?xml version="1.0" encoding="utf-8"?>
<!-- Generator: Adobe Illustrator 18.1.1, SVG Export Plug-In . SVG Version: 6.00 Build 0)  -->
<svg version="1.1" id="Слой_1" xmlns="http://www.w3.org/2000/svg" xmlns:xlink="http://www.w3.org/1999/xlink" x="0px" y="0px"
	 viewBox="0 0 406.3 248.2" enable-background="new 0 0 406.3 248.2" xml:space="preserve">
<g>
	<path fill="#FFFFFF" stroke="#B9CBD1" stroke-width="2" stroke-miterlimit="10" d="M41.1,248.2"/>
	<g opacity="0.6">
		<circle opacity="0.2" fill="#B9CBD1" cx="154.4" cy="65.1" r="65.1"/>
	</g>
	<g>
		<circle opacity="0.2" fill="#B9CBD1" cx="40" cy="107" r="40"/>
		<g>
			<path fill="#F06C22" d="M26.9,90.7c2.1,1.1,3-0.8,4-2c1.3-1.6,2.7-2.3,4.8-2.2c3.2,0.2,6.4,0.1,9.7,0c1,0,1.6,0.3,2.2,1
				c0.7,0.9,1.6,1.8,2.4,2.7c0.5,0.6,1.2,0.9,1.9,0.6c1-0.3,1.7,0,2.3,0.8c0.5,0.6,1,1.2,1.6,1.7c0.2,0.2,0.5,0.5,0.4,0.8
				c-0.7,1.8,0.6,3.1,1.4,4.4c1.1,1.8,1.4,3.2,0.8,5.4c-1.4,5.2-2.8,10.3-4,15.6c-0.6,2.7-2.1,4.6-4.4,6c-3,1.8-5.9,3.7-8.6,5.8
				c-1.1,0.9-2.1,0.8-3.2,0c-3.1-2.2-6.1-4.4-9.3-6.2c-1.7-0.9-2.8-2.6-3.3-4.6c-1.6-6.1-3.2-12.3-4.9-18.4
				c-0.2-0.6-0.1-1.1,0.3-1.7c0.6-1,1.2-2,1.7-3c0.5-0.9,1-1.9,0.8-3.1c-0.2-1.3,1.1-1.7,1.7-2.5C25.5,91.4,25.9,90.7,26.9,90.7z
				 M49.8,98.5c-1.9,0.7-3.6,1.4-5.3,2.1c-1.5,0.6-1.7,1.3-1.2,2.7c0.2,0.6,0.5,1.3,0.8,1.9c0.5,0.9,0.3,1.6-0.6,2.3
				c-0.9,0.7-1.7,1.5-2.5,2.2c-0.7,0.6-0.7,1.2,0,1.8c1.3,1.2,2.7,2.3,4.4,3c1.8,0.7,2.4,0.7,3.5-0.8c0.9-1.1,1.2-2.3,0.5-3.6
				c-0.7-1.2-0.4-2.2,0.7-3.1c1.2-1,2.4-2.2,3.5-3.3c1.5-1.4,1.5-2.1,0.4-3.8c-1.1-1.7-2.4-3.4-3.7-5c-0.5-0.7-1-0.9-1.9-0.6
				c-2.4,0.8-4.8,0.8-7.1-0.3c-0.9-0.4-2-0.5-3-0.1c-2.5,1.2-5.1,1.1-7.6,0.3c-0.5-0.1-0.9-0.1-1.2,0.3c-1.6,1.9-3.1,3.9-4.3,6
				c-0.6,1-0.6,2,0.4,2.9c1.4,1.3,2.8,2.7,4.3,3.9c0.9,0.8,1,1.5,0.5,2.5c-0.9,2.1-0.4,3.7,1.5,5c0.5,0.3,0.9,0.4,1.4,0.2
				c1.5-0.7,3-1.3,4.3-2.5c2.1-1.9,2.1-1.9,0-3.7c-3-2.6-2.7-1.7-1.3-5.2c0.6-1.7,0.4-2.3-1.3-3c-1.7-0.6-3.3-1.3-5.2-2
				c2.7-0.9,5.1-0.3,7.4,0.7c0.6,0.3,0.6,0.8,0.5,1.4c-0.4,1.5-0.6,3-1,4.4c-0.2,0.6,0,0.9,0.7,1.1c1.5,0.4,3,0.5,4.6,0.1
				c1-0.2,1.3-0.6,1-1.6c-0.4-1.3-0.7-2.7-1-4c-0.1-0.6-0.2-1.1,0.4-1.4C44.7,98.2,47,97.6,49.8,98.5z M39.9,113.4
				c-0.2,0-0.4,0-0.5,0.1c-1.9,0.7-3.7,1.6-5.5,2.6c-0.5,0.3-0.4,0.7,0,1c1.8,1.2,3.5,2.6,5.2,4.1c0.4,0.4,0.9,0.3,1.2,0
				c1.7-1.5,3.3-2.9,5.2-4.1c0.3-0.2,0.6-0.6,0.1-0.9C43.8,114.9,41.9,114,39.9,113.4z"/>
		</g>
	</g>
	<g>
		<circle opacity="0.2" fill="#B9CBD1" cx="188.3" cy="200.4" r="40"/>
		<g>
			<g>
				<path fill="#38B5E6" d="M195.6,222.3c-0.3,0-0.7,0-1,0c0,0,0.1-0.1,0.1-0.1c0,0-0.1-0.1-0.1-0.1c-1.5-0.6-3-1.2-4.5-1.7
					c-0.9-0.3-1.8-0.3-2.7,0c-1.5,0.6-3,1.1-4.5,1.7c-0.1,0-0.1,0.1,0,0.2c-0.3,0-0.7,0-1,0c0,0,0.1-0.1,0.1-0.1c0,0,0,0,0-0.1
					c-1.4-0.4-2.1-1.6-2.7-2.7c0-0.1-0.1-0.2-0.2-0.3c-0.4-0.7-1-1.1-1.8-1.2c-0.9-0.1-1.7,0.1-2.5,0.3c-1.3,0.3-2.5,0.8-3.8,1
					c-1,0.2-1.5-0.3-1.3-1.3c0.1-1,0.5-1.9,0.8-2.7c1.6-3.7,2.5-7.6,2.4-11.7c-0.1-3,0-6,0-8.9c0-1,0.1-2.1,0.2-3.1
					c1.3-8.7,10.1-14.8,18.7-13c7.7,1.6,12.8,7.9,12.9,15.8c0,3.3,0,6.5,0,9.8c-0.1,3.6,0.7,7.1,2.1,10.4c0.5,1.2,1,2.3,1.2,3.6
					c0.1,0.9-0.3,1.4-1.3,1.3c-0.6-0.1-1.2-0.3-1.8-0.4c-1.1-0.3-2.1-0.7-3.2-0.8c-1.5-0.2-2.7,0.2-3.4,1.7
					c-0.5,1.1-1.3,2.1-2.6,2.5C195.5,222.2,195.5,222.2,195.6,222.3z M196.6,192.2c0-1.8-0.3-3-1-4.1c-1.2-1.6-2.9-1.6-4.1,0
					c-1.4,1.9-1.4,5.4,0,7.3c1.2,1.7,3.1,1.7,4.2-0.1C196.4,194.2,196.6,193,196.6,192.2z M180.6,191.7c0,1.3,0.3,2.5,1,3.6
					c1.2,1.7,2.9,1.7,4.1,0c1.4-1.9,1.4-5.4,0-7.3c-1.2-1.7-3-1.7-4.1,0C180.9,189.2,180.6,190.4,180.6,191.7z M196.3,199.1
					c-5.2,5-10.3,4.9-15.5-0.2c0.9,2.9,2.3,5.2,4.9,6.7c2,1.1,4,1.1,5.9,0c1.9-1.1,3.2-2.7,4.1-4.7
					C196,200.4,196.3,199.8,196.3,199.1z"/>
			</g>
		</g>
	</g>
	<g opacity="0.79">
		<g opacity="0.8">
			<g opacity="0.1">
				<g>
					<polygon fill="#45646E" points="138.4,103.8 115.5,81 115.5,48.7 138.4,25.9 170.7,25.9 193.5,48.7 193.5,81 170.7,103.8 					
						"/>
				</g>
			</g>
		</g>
		<g>
			<g>
				<g>
					<polygon fill="#ED3832" points="141.3,96.9 122.5,78.1 122.5,51.6 141.3,32.8 167.8,32.8 186.5,51.6 186.5,78.1 167.8,96.9 
											"/>
				</g>
			</g>
		</g>
		<g>
			<path fill="#FFFFFF" stroke="#FFFFFF" stroke-width="1.7971" stroke-miterlimit="10" d="M140.7,50.5h-1.5l-6.7,28.1h1.7l2.3-9.9
				h7l2.3,9.9h1.7L140.7,50.5z M137,66.2l2.9-12.5l2.9,12.5H137z"/>
			<path fill="#FFFFFF" stroke="#FFFFFF" stroke-width="1.7184" stroke-miterlimit="10" d="M149.8,50.8h3.4c3.6,0,5.4,2.2,5.4,6.6
				c0,0.9-0.1,1.8-0.3,2.6c-0.2,0.8-0.5,1.5-0.9,2.1c-0.4,0.6-0.8,1-1.3,1.4v0.1c0.6,0.1,1.2,0.4,1.8,0.9c0.6,0.5,1.1,1.3,1.4,2.4
				c0.4,1,0.6,2.3,0.6,3.8c0,1.9-0.3,3.4-0.8,4.6c-0.5,1.2-1.2,2-2.1,2.5c-0.9,0.5-1.8,0.8-2.9,0.8h-4.4V50.8z M151.4,62.7h2.1
				c0.7,0,1.4-0.3,2.2-1c0.8-0.6,1.2-2,1.2-4.2c0-1.3-0.3-2.4-0.8-3.2c-0.5-0.8-1.4-1.3-2.6-1.3h-2.2V62.7z M151.4,76.4h2.8
				c1.4,0,2.5-0.6,3.1-1.7c0.7-1.1,1-2.5,1-4.1c0-1.8-0.4-3.2-1.1-4.2c-0.7-1-1.8-1.5-3.1-1.5h-2.7V76.4z"/>
			<path fill="#FFFFFF" stroke="#FFFFFF" stroke-width="1.7184" stroke-miterlimit="10" d="M163.3,78.6V50.8h4.6
				c1.3,0,2.5,0.5,3.5,1.5c1,1,1.5,2.9,1.5,5.9c0,3-0.5,4.9-1.5,5.9c-1,1-2.2,1.5-3.5,1.5h-3v13.1H163.3z M164.9,53v10.3h2.9
				c2.3,0,3.4-1.7,3.4-5.2c0-2.1-0.3-3.4-1-4.1c-0.7-0.7-1.5-1-2.4-1H164.9z"/>
		</g>
	</g>
	<path opacity="0.3" fill="#FFFFFF" stroke="#B9CBD1" stroke-miterlimit="10" d="M237.2,122.8c0,0-86.2,46.2-149.8,0"/>
	<path opacity="0.3" fill="none" stroke="#B9CBD1" stroke-miterlimit="10" d="M270.8,49.8c-13.6-13.2-32.1-21.4-52.6-21.4"/>
	<path opacity="0.3" fill="#FFFFFF" stroke="#B9CBD1" stroke-miterlimit="10" d="M240.2,129.9c-7.9,3.3-27.3,12.5-36.2,22.1"/>
	<g>
		<polygon fill="none" points="330.2,109.4 327.3,114.5 330.2,112.9 		"/>
		<path fill="none" d="M329.9,116l-2.6-1.5l1.8,3C329.4,117.1,329.7,116.6,329.9,116z"/>
		<path fill="none" d="M330.2,115.5h-2.9l2.6,1.5C330,116.5,330.1,115.5,330.2,115.5z"/>
		<path fill="none" d="M330.2,114.7l0-1.1l-2.9,1.9h2.9C330.2,113.5,330.2,114.8,330.2,114.7z"/>
		<path fill="none" d="M321.9,115.5h5.4l-3.8-2.2C323.1,114.2,322.6,113.5,321.9,115.5z"/>
		<path fill="none" d="M323.5,112.4l3.8,2.2l-2.9-5.1C324.3,110.5,324,111.5,323.5,112.4z"/>
		<path fill="none" d="M327.1,119.1v-4.6l-3.7,6.6c2.2-1.2,3.5-1.9,3.5-1.9C327,119.3,327.1,119.2,327.1,119.1z"/>
		<path fill="none" d="M328.9,117.6l-1.8-3v4.6C327.1,118.7,328.4,118.2,328.9,117.6z"/>
		<path opacity="0.4" fill="#B9CBD1" d="M329,117.6l38.4,66.4c12.2-6.9,22.4-17.1,29.3-29.4L329.9,116
			C329.7,116.6,329.4,117.1,329,117.6z"/>
		<path opacity="0.6" fill="#B9CBD1" d="M337.2,41.8c-3.4-0.3-6.4,2.3-6.4,5.8l-0.6,61.9l34.5-59.7C356.3,45.5,347,42.7,337.2,41.8z
			"/>
		<path opacity="0.5" fill="#B9CBD1" d="M406.3,115.5h-76.1c0,0-0.1,0.5-0.3,1l66.9,38.3c5.5-9.8,8.9-20.6,9.5-32.4
			C406.4,120,406.4,116.5,406.3,115.5z"/>
		<path opacity="0.1" fill="#B9CBD1" d="M269,149.5c-6.2,3.2-2.8,8.9-2.8,8.9c5.9,9.7,13.4,17.6,22.3,23.4l35-60.6
			C311.4,127.4,272.8,147.5,269,149.5z"/>
		<path opacity="0.6" fill="#B9CBD1" d="M330.2,114.7c0,0.1,0-1.1,0,0.9h76.1c-0.5-13-3.5-22.8-8.5-32.4c-1.2-2.3-2.5-4.7-3.8-6.8
			l-63.8,36.9L330.2,114.7z"/>
		<path opacity="0.3" fill="#B9CBD1" d="M326.9,119.3c0,0-1.3,0.7-3.5,1.9l-35.1,60.6c11.1,7.4,24.8,11.5,38.8,12v-74.7
			C327.1,119.2,327,119.3,326.9,119.3z"/>
		<path opacity="0.7" fill="#B9CBD1" d="M394,76c-7.3-11.1-17.4-20.2-29.3-26.3l-34.5,59.7l0,3.4L394,76z"/>
		<path opacity="0.3" fill="#B9CBD1" d="M327.1,119.1v74.7c0,0,0.1,0,0.1,0c14.5,0.5,28.3-3.1,40.1-9.8l-38.4-66.4
			C328.5,118.2,327.1,118.7,327.1,119.1z"/>
		<path fill="#ED3832" d="M253.9,142.7c1.4,3.4,5.4,4.8,8.6,3.1l57.5-29.9c0.7-0.4,1.4-0.8,1.9-1.4h-73.7
			C248.3,124,250.1,133.5,253.9,142.7z"/>
		<path opacity="0.8" fill="#ED3832" d="M258.7,74.9c-7,11.9-10.7,25.7-10.6,39.6h73.7c0.7-0.6,1.2-1.4,1.6-2.2L258.7,74.9z"/>
		<path opacity="0.6" fill="#ED3832" d="M324.4,108.7l0.6-65.3c0-3.4-2.8-6.1-6.1-5.9c-10.6,0.6-19.6,3.2-29.7,8.4
			c-0.4,0.2-0.8,0.4-1.1,0.6l36.3,62.8C324.4,109.2,324.4,109,324.4,108.7z"/>
		<path opacity="0.7" fill="#ED3832" d="M324.4,109.5l-36.3-62.8c-12.6,6.8-22.6,16.7-29.4,28.3l64.8,37.4
			C324,111.5,324.3,110.5,324.4,109.5z"/>
	</g>
</g>
</svg>
