<?xml version="1.0" encoding="utf-8"?>
<!-- Generator: Adobe Illustrator 18.0.0, SVG Export Plug-In . SVG Version: 6.00 Build 0)  -->
<!DOCTYPE svg PUBLIC "-//W3C//DTD SVG 1.1//EN" "http://www.w3.org/Graphics/SVG/1.1/DTD/svg11.dtd">
<svg version="1.1" id="Слой_1" xmlns="http://www.w3.org/2000/svg" xmlns:xlink="http://www.w3.org/1999/xlink" x="0px" y="0px"
	 viewBox="0 0 88 88" enable-background="new 0 0 88 88" xml:space="preserve">
<g>
	<path opacity="0.1" fill="#383838" d="M44,0L44,0C19.7,0,0,19.7,0,44v0c0,24.3,19.7,44,44,44h0c24.3,0,44-19.7,44-44v0
		C88,19.7,68.3,0,44,0z"/>
	<g opacity="0.1">
		<path d="M54.8,53.4c-4.9-1.8-6.5-3.3-6.5-6.6c0-1.9,1.5-1.3,2.2-4.9c0.3-1.5,1.1-5.1,1.1-5.1s0.4-2,0.5-3.5c0.2-1.9-1.1-6.9-8-6.9
			s-8.1,4.9-8,6.9c0.1,1.5,0.5,3.5,0.5,3.5s0.9,3.6,1.1,5.1c0.7,3.6,2.2,2.9,2.2,4.9c0,3.2-1.6,4.8-6.5,6.6
			c-4.9,1.8-8.2,3.6-8.2,4.9c0,1.3,0,4.2,0,4.2h18.8H63c0,0,0-3,0-4.2C63,57,59.8,55.2,54.8,53.4z"/>
	</g>
</g>
</svg>
