<?xml version="1.0" encoding="utf-8"?>
<!-- Generator: Adobe Illustrator 18.1.1, SVG Export Plug-In . SVG Version: 6.00 Build 0)  -->
<svg version="1.1" id="Слой_1" xmlns="http://www.w3.org/2000/svg" xmlns:xlink="http://www.w3.org/1999/xlink" x="0px" y="0px"
	 viewBox="0 0 507.1 299.6" enable-background="new 0 0 507.1 299.6" xml:space="preserve">
<g>
	<path fill="#FFFFFF" stroke="#93A1A6" stroke-width="2" stroke-miterlimit="10" d="M88.9,223h325.2c2.8,0,5-2.2,5-5V11.7
		c0-5.9-4.8-10.7-10.7-10.7H94.6c-5.9,0-10.7,4.8-10.7,10.7V218C83.9,220.8,86.2,223,88.9,223z"/>
	<path fill="#FFFFFF" stroke="#93A1A6" stroke-width="2" stroke-miterlimit="10" d="M88.8,235.2h325.6c2.7,0,6.8,1.4,9.3,3.3
		l80.9,47.7c4.2,5.7-1,12.5-5.1,12.5H3.6c-4.1,0-3.3-10.6,2-14.5l73.9-45.7C82,236.6,86.1,235.2,88.8,235.2z"/>
	<path fill="#FFFFFF" stroke="#93A1A6" stroke-width="2" stroke-miterlimit="10" d="M91.4,225.8H417c2.7,0,6.8,1.4,9.3,3.3
		l73.4,53.1c5.3,3.8,6.5,7.1,2.4,7.1H6.2c-4.1,0-2.9-3.2,2.4-7.1l73.4-53.1C84.6,227.2,88.7,225.8,91.4,225.8z"/>
	<path fill="#FFFFFF" stroke="#93A1A6" stroke-width="2" stroke-miterlimit="10" d="M189.3,283.1l10.9-10.6c0.2-0.2,0.8-0.4,1-0.4
		h92.4c0.2,0,0.8,0.1,1,0.4l10.9,10.6H189.3z"/>
	<g>
		<path fill="#39B54A" d="M97.7,25h307.9c1.3,0,2.3,1.1,2.3,2.4v181.1c0,1.3-1.1,2.4-2.3,2.4H97.7c-1.3,0-2.3-1.1-2.3-2.4V27.4
			C95.4,26.1,96.4,25,97.7,25z"/>
	</g>
	<g>
		<g>
			<path fill="#B9CBD1" stroke="#93A1A6" stroke-miterlimit="10" d="M119.3,238.6h13.1c0.8,0,1.8-0.7,2.3-1.1l4.1-3.8
				c0.4-0.3,0.2-1.1-0.6-1.1h-12.5c-0.8,0-1.8,0.6-2.2,0.9l-4.6,3.9C118.3,237.8,118.5,238.6,119.3,238.6z"/>
			<path fill="#B9CBD1" stroke="#93A1A6" stroke-miterlimit="10" d="M138.2,238.6h13.1c0.8,0,1.8-0.7,2.1-1.1l3.4-3.8
				c0.4-0.3,0-1.1-0.7-1.1h-12.5c-0.8,0-1.7,0.6-2.1,0.9l-4,3.9C137.1,237.8,137.4,238.6,138.2,238.6z"/>
			<path fill="#B9CBD1" stroke="#93A1A6" stroke-miterlimit="10" d="M157.1,238.6h13.1c0.8,0,1.7-0.7,2-1.1l2.7-3.8
				c0.3-0.3-0.1-1.1-0.8-1.1h-12.5c-0.8,0-1.6,0.6-2,0.9l-3.3,3.9C155.9,237.8,156.3,238.6,157.1,238.6z"/>
			<path fill="#B9CBD1" stroke="#93A1A6" stroke-miterlimit="10" d="M175.9,238.6H189c0.8,0,1.6-0.7,1.9-1.1l2.1-3.8
				c0.2-0.3-0.2-1.1-1-1.1h-12.5c-0.8,0-1.6,0.6-1.9,0.9l-2.6,3.9C174.7,237.8,175.1,238.6,175.9,238.6z"/>
			<path fill="#B9CBD1" stroke="#93A1A6" stroke-miterlimit="10" d="M194.8,238.6h13.1c0.8,0,1.6-0.7,1.7-1.1l1.4-3.8
				c0.1-0.3-0.3-1.1-1.1-1.1h-12.5c-0.8,0-1.5,0.6-1.7,0.9l-2,3.9C193.5,237.8,194,238.6,194.8,238.6z"/>
			<path fill="#B9CBD1" stroke="#93A1A6" stroke-miterlimit="10" d="M213.7,238.6h13.1c0.8,0,1.5-0.7,1.6-1.1l0.7-3.8
				c0.1-0.3-0.5-1.1-1.2-1.1h-12.5c-0.8,0-1.5,0.6-1.6,0.9l-1.3,3.9C212.3,237.8,212.9,238.6,213.7,238.6z"/>
			<path fill="#B9CBD1" stroke="#93A1A6" stroke-miterlimit="10" d="M232.5,238.6h13.1c0.8,0,1.4-0.7,1.5-1.1l0.1-3.8
				c0-0.3-0.6-1.1-1.4-1.1h-12.5c-0.8,0-1.4,0.6-1.5,0.9l-0.6,3.9C231.1,237.8,231.7,238.6,232.5,238.6z"/>
			<path fill="#B9CBD1" stroke="#93A1A6" stroke-miterlimit="10" d="M251.4,238.6h13.1c0.8,0,1.4-0.7,1.3-1.1l-0.6-3.8
				c-0.1-0.3-0.7-1.1-1.5-1.1h-12.5c-0.8,0-1.4,0.6-1.4,0.9l0,3.9C249.9,237.8,250.6,238.6,251.4,238.6z"/>
			<path fill="#B9CBD1" stroke="#93A1A6" stroke-miterlimit="10" d="M270.2,238.6h13.1c0.8,0,1.3-0.7,1.2-1.1l-1.2-3.8
				c-0.1-0.3-0.8-1.1-1.6-1.1h-12.5c-0.8,0-1.3,0.6-1.2,0.9l0.7,3.9C268.7,237.8,269.4,238.6,270.2,238.6z"/>
			<path fill="#B9CBD1" stroke="#93A1A6" stroke-miterlimit="10" d="M289.1,238.6h13.1c0.8,0,1.3-0.7,1-1.1l-1.9-3.8
				c-0.2-0.3-1-1.1-1.7-1.1h-12.5c-0.8,0-1.3,0.6-1.1,0.9l1.4,3.9C287.5,237.8,288.3,238.6,289.1,238.6z"/>
			<path fill="#B9CBD1" stroke="#93A1A6" stroke-miterlimit="10" d="M308,238.6h13.1c0.8,0,1.2-0.7,0.9-1.1l-2.6-3.8
				c-0.3-0.3-1.1-1.1-1.9-1.1h-12.5c-0.8,0-1.2,0.6-1,0.9l2,3.9C306.3,237.8,307.2,238.6,308,238.6z"/>
			<path fill="#B9CBD1" stroke="#93A1A6" stroke-miterlimit="10" d="M326.8,238.6h13.1c0.8,0,1.1-0.7,0.8-1.1l-3.2-3.8
				c-0.3-0.3-1.2-1.1-2-1.1H323c-0.8,0-1.1,0.6-0.9,0.9l2.7,3.9C325.1,237.8,326,238.6,326.8,238.6z"/>
			<path fill="#B9CBD1" stroke="#93A1A6" stroke-miterlimit="10" d="M345.7,238.6h13.1c0.8,0,1.1-0.7,0.6-1.1l-3.9-3.8
				c-0.4-0.3-1.3-1.1-2.1-1.1H341c-0.8,0-1.1,0.6-0.7,0.9l3.3,3.9C343.9,237.8,344.9,238.6,345.7,238.6z"/>
			<path fill="#B9CBD1" stroke="#93A1A6" stroke-miterlimit="10" d="M364.5,238.6h13.1c0.8,0,1-0.7,0.5-1.1l-4.6-3.8
				c-0.5-0.3-1.5-1.1-2.2-1.1h-12.5c-0.8,0-1,0.6-0.6,0.9l4,3.9C362.7,237.8,363.8,238.6,364.5,238.6z"/>
			<path fill="#B9CBD1" stroke="#93A1A6" stroke-miterlimit="10" d="M110.1,245.6h23c0.8,0,1.9-0.6,2.4-1l4.3-4c0.4-0.4,0.2-1-0.6-1
				h-22.3c-0.8,0-1.9,0.5-2.4,0.9l-5,4.1C109,245,109.3,245.6,110.1,245.6z"/>
			<path fill="#B9CBD1" stroke="#93A1A6" stroke-miterlimit="10" d="M139.3,245.6h14c0.8,0,1.9-0.6,2.3-1l3.6-4c0.4-0.4,0-1-0.8-1
				H145c-0.8,0-1.8,0.5-2.2,0.9l-4.2,4.1C138.1,245,138.4,245.6,139.3,245.6z"/>
			<path fill="#B9CBD1" stroke="#93A1A6" stroke-miterlimit="10" d="M159.4,245.6h14c0.8,0,1.8-0.6,2.1-1l2.8-4c0.3-0.4-0.1-1-0.9-1
				h-13.3c-0.8,0-1.7,0.5-2.1,0.9l-3.4,4.1C158.2,245,158.6,245.6,159.4,245.6z"/>
			<path fill="#B9CBD1" stroke="#93A1A6" stroke-miterlimit="10" d="M179.6,245.6h14c0.8,0,1.7-0.6,2-1l2-4c0.2-0.4-0.3-1-1.1-1
				h-13.3c-0.8,0-1.7,0.5-2,0.9l-2.7,4.1C178.3,245,178.7,245.6,179.6,245.6z"/>
			<path fill="#B9CBD1" stroke="#93A1A6" stroke-miterlimit="10" d="M199.7,245.6h14c0.8,0,1.7-0.6,1.8-1l1.3-4c0.1-0.4-0.4-1-1.2-1
				h-13.3c-0.8,0-1.6,0.5-1.8,0.9l-1.9,4.1C198.4,245,198.9,245.6,199.7,245.6z"/>
			<path fill="#B9CBD1" stroke="#93A1A6" stroke-miterlimit="10" d="M219.9,245.6h14c0.8,0,1.6-0.6,1.6-1l0.5-4c0.1-0.4-0.6-1-1.4-1
				h-13.3c-0.8,0-1.6,0.5-1.7,0.9l-1.2,4.1C218.5,245,219.1,245.6,219.9,245.6z"/>
			<path fill="#B9CBD1" stroke="#93A1A6" stroke-miterlimit="10" d="M240.1,245.6h14c0.8,0,1.5-0.6,1.5-1l-0.2-4c0-0.4-0.7-1-1.5-1
				h-13.3c-0.8,0-1.5,0.5-1.5,0.9l-0.4,4.1C238.6,245,239.2,245.6,240.1,245.6z"/>
			<path fill="#B9CBD1" stroke="#93A1A6" stroke-miterlimit="10" d="M260.2,245.6h14c0.8,0,1.4-0.6,1.3-1l-1-4c-0.1-0.4-0.8-1-1.6-1
				h-13.3c-0.8,0-1.4,0.5-1.4,0.9l0.4,4.1C258.7,245,259.4,245.6,260.2,245.6z"/>
			<path fill="#B9CBD1" stroke="#93A1A6" stroke-miterlimit="10" d="M280.4,245.6h14c0.8,0,1.4-0.6,1.2-1l-1.7-4c-0.2-0.4-1-1-1.8-1
				h-13.3c-0.8,0-1.4,0.5-1.2,0.9l1.1,4.1C278.7,245,279.5,245.6,280.4,245.6z"/>
			<path fill="#B9CBD1" stroke="#93A1A6" stroke-miterlimit="10" d="M300.5,245.6h14c0.8,0,1.3-0.6,1-1l-2.5-4c-0.3-0.4-1.1-1-1.9-1
				h-13.3c-0.8,0-1.3,0.5-1.1,0.9l1.9,4.1C298.8,245,299.7,245.6,300.5,245.6z"/>
			<path fill="#B9CBD1" stroke="#93A1A6" stroke-miterlimit="10" d="M320.7,245.6h14c0.8,0,1.2-0.6,0.9-1l-3.3-4
				c-0.3-0.4-1.3-1-2.1-1H317c-0.8,0-1.2,0.5-1,0.9l2.6,4.1C318.9,245,319.9,245.6,320.7,245.6z"/>
			<path fill="#B9CBD1" stroke="#93A1A6" stroke-miterlimit="10" d="M340.9,245.6h14c0.8,0,1.2-0.6,0.7-1l-4-4c-0.4-0.4-1.4-1-2.2-1
				h-13.3c-0.8,0-1.2,0.5-0.8,0.9l3.4,4.1C339,245,340,245.6,340.9,245.6z"/>
			<path fill="#B9CBD1" stroke="#93A1A6" stroke-miterlimit="10" d="M361.4,245.6h23.8c1.1,0,1.3-0.7,0.6-1.2l-4.6-3.6
				c-0.7-0.5-2.1-1.2-3.1-1.2h-22.6c-1,0-1.4,0.6-0.9,1.1l3.7,3.7C359,244.9,360.4,245.6,361.4,245.6z"/>
			<path fill="#B9CBD1" stroke="#93A1A6" stroke-miterlimit="10" d="M369.7,252.6h25.6c1.2,0,1.4-0.5,0.5-1.1l-5.3-3.8
				c-0.8-0.6-2.3-1-3.4-1H363c-1.1,0-1.5,0.4-0.8,1l4.2,3.9C367.1,252.1,368.6,252.6,369.7,252.6z"/>
			<path fill="#B9CBD1" stroke="#93A1A6" stroke-miterlimit="10" d="M100.1,252.6h15.1c0.9,0,2.1-0.4,2.8-0.9l5.3-4.3
				c0.6-0.5,0.3-0.8-0.6-0.8h-14.2c-0.9,0-2.1,0.3-2.7,0.8l-6.1,4.3C99.1,252.3,99.2,252.6,100.1,252.6z"/>
			<path fill="#B9CBD1" stroke="#93A1A6" stroke-miterlimit="10" d="M121.8,252.6h15.1c0.9,0,2.1-0.4,2.6-0.9l4.5-4.3
				c0.5-0.5,0.1-0.8-0.7-0.8h-14.2c-0.9,0-2,0.3-2.5,0.8l-5.2,4.3C120.6,252.3,120.9,252.6,121.8,252.6z"/>
			<path fill="#B9CBD1" stroke="#93A1A6" stroke-miterlimit="10" d="M143.4,252.6h15.1c0.9,0,2-0.4,2.4-0.9l3.6-4.3
				c0.4-0.5,0-0.8-0.9-0.8h-14.2c-0.9,0-1.9,0.3-2.4,0.8l-4.3,4.3C142.2,252.3,142.5,252.6,143.4,252.6z"/>
			<path fill="#B9CBD1" stroke="#93A1A6" stroke-miterlimit="10" d="M165.1,252.6h15.1c0.9,0,1.9-0.4,2.2-0.9l2.7-4.3
				c0.3-0.5-0.2-0.8-1-0.8h-14.2c-0.9,0-1.8,0.3-2.2,0.8l-3.5,4.3C163.8,252.3,164.2,252.6,165.1,252.6z"/>
			<path fill="#B9CBD1" stroke="#93A1A6" stroke-miterlimit="10" d="M186.7,252.6h15.1c0.9,0,1.8-0.4,2-0.9l1.8-4.3
				c0.2-0.5-0.4-0.8-1.2-0.8h-14.2c-0.9,0-1.8,0.3-2,0.8l-2.6,4.3C185.3,252.3,185.8,252.6,186.7,252.6z"/>
			<path fill="#B9CBD1" stroke="#93A1A6" stroke-miterlimit="10" d="M208.4,252.6h15.1c0.9,0,1.7-0.4,1.9-0.9l1-4.3
				c0.1-0.5-0.5-0.8-1.4-0.8h-14.2c-0.9,0-1.7,0.3-1.9,0.8l-1.7,4.3C206.9,252.3,207.5,252.6,208.4,252.6z"/>
			<path fill="#B9CBD1" stroke="#93A1A6" stroke-miterlimit="10" d="M230,252.6h15.1c0.9,0,1.7-0.4,1.7-0.9l0.1-4.3
				c0-0.5-0.7-0.8-1.5-0.8h-14.2c-0.9,0-1.6,0.3-1.7,0.8l-0.8,4.3C228.5,252.3,229.1,252.6,230,252.6z"/>
			<path fill="#B9CBD1" stroke="#93A1A6" stroke-miterlimit="10" d="M251.7,252.6h15.1c0.9,0,1.6-0.4,1.5-0.9l-0.8-4.3
				c-0.1-0.5-0.8-0.8-1.7-0.8h-14.2c-0.9,0-1.6,0.3-1.6,0.8l0,4.3C250,252.3,250.8,252.6,251.7,252.6z"/>
			<path fill="#B9CBD1" stroke="#93A1A6" stroke-miterlimit="10" d="M273.3,252.6h15.1c0.9,0,1.5-0.4,1.3-0.9l-1.6-4.3
				c-0.2-0.5-1-0.8-1.9-0.8H272c-0.9,0-1.5,0.3-1.4,0.8l0.9,4.3C271.6,252.3,272.4,252.6,273.3,252.6z"/>
			<path fill="#B9CBD1" stroke="#93A1A6" stroke-miterlimit="10" d="M295,252.6H310c0.9,0,1.4-0.4,1.1-0.9l-2.5-4.3
				c-0.3-0.5-1.2-0.8-2-0.8h-14.2c-0.9,0-1.4,0.3-1.2,0.8l1.8,4.3C293.2,252.3,294.1,252.6,295,252.6z"/>
			<path fill="#B9CBD1" stroke="#93A1A6" stroke-miterlimit="10" d="M316.6,252.6h15.1c0.9,0,1.3-0.4,1-0.9l-3.4-4.3
				c-0.4-0.5-1.3-0.8-2.2-0.8h-14.2c-0.9,0-1.3,0.3-1.1,0.8l2.6,4.3C314.7,252.3,315.7,252.6,316.6,252.6z"/>
			<path fill="#B9CBD1" stroke="#93A1A6" stroke-miterlimit="10" d="M344.2,252.6h15.1c0.9,0,1.2-0.4,0.7-0.9l-4.6-4.3
				c-0.5-0.5-1.6-0.8-2.4-0.8h-14.2c-0.9,0-1.2,0.3-0.8,0.8l3.9,4.3C342.2,252.3,343.3,252.6,344.2,252.6z"/>
			<path fill="#B9CBD1" stroke="#93A1A6" stroke-miterlimit="10" d="M90.2,262.6h24.4c1,0,2.3-0.7,3-1.3l5.7-5.4
				c0.6-0.5,0.3-1.3-0.6-1.3H99.2c-0.9,0-2.2,0.6-2.9,1.2l-6.6,5.4C89,261.8,89.2,262.6,90.2,262.6z"/>
			<path fill="#B9CBD1" stroke="#93A1A6" stroke-miterlimit="10" d="M121.7,262.6H138c1,0,2.2-0.7,2.8-1.3l4.7-5.4
				c0.5-0.5,0.1-1.3-0.8-1.3h-15.3c-0.9,0-2.1,0.6-2.7,1.2l-5.6,5.4C120.5,261.8,120.7,262.6,121.7,262.6z"/>
			<path fill="#B9CBD1" stroke="#93A1A6" stroke-miterlimit="10" d="M145.1,262.6h16.3c1,0,2.1-0.7,2.6-1.3l3.7-5.4
				c0.4-0.5-0.1-1.3-1-1.3h-15.3c-0.9,0-2.1,0.6-2.5,1.2l-4.6,5.4C143.7,261.8,144.1,262.6,145.1,262.6z"/>
			<path fill="#B9CBD1" stroke="#93A1A6" stroke-miterlimit="10" d="M168.5,262.6H321c1,0,1.5-0.7,1.1-1.3l-3.2-5.4
				c-0.3-0.5-1.3-1.3-2.3-1.3H173.3c-0.9,0-2,0.6-2.3,1.2l-3.6,5.4C167,261.8,167.5,262.6,168.5,262.6z"/>
			<path fill="#B9CBD1" stroke="#93A1A6" stroke-miterlimit="10" d="M329,262.6h16.3c1,0,1.4-0.7,0.9-1.3l-4.4-5.4
				c-0.5-0.5-1.6-1.3-2.5-1.3H324c-0.9,0-1.4,0.6-1,1.2l3.5,5.4C326.9,261.8,328,262.6,329,262.6z"/>
			<path fill="#B9CBD1" stroke="#93A1A6" stroke-miterlimit="10" d="M352.4,262.6h16.3c1,0,1.3-0.7,0.7-1.3l-5.4-5.4
				c-0.6-0.5-1.7-1.3-2.7-1.3H346c-0.9,0-1.3,0.6-0.8,1.2l4.5,5.4C350.2,261.8,351.4,262.6,352.4,262.6z"/>
			<path fill="#B9CBD1" stroke="#93A1A6" stroke-miterlimit="10" d="M375.8,262.6H392c1,0,1.2-0.7,0.5-1.3l-6.4-5.4
				c-0.7-0.5-1.9-1.3-2.9-1.3H368c-0.9,0-1.2,0.6-0.6,1.2l5.5,5.4C373.5,261.8,374.8,262.6,375.8,262.6z"/>
		</g>
		<g>
			<path fill="#FFFFFF" stroke="#93A1A6" stroke-miterlimit="10" d="M120.2,236.6h13.1c0.8,0,1.8-0.6,2.3-0.9l4.1-3.4
				c0.4-0.3,0.2-0.7-0.6-0.7h-12.5c-0.8,0-1.8,0.2-2.2,0.6l-4.6,3.5C119.2,236.1,119.4,236.6,120.2,236.6z"/>
			<path fill="#FFFFFF" stroke="#93A1A6" stroke-miterlimit="10" d="M139.1,236.6h13.1c0.8,0,1.8-0.6,2.1-0.9l3.4-3.4
				c0.4-0.3,0-0.7-0.7-0.7h-12.5c-0.8,0-1.7,0.2-2.1,0.6l-4,3.5C138,236.1,138.3,236.6,139.1,236.6z"/>
			<path fill="#FFFFFF" stroke="#93A1A6" stroke-miterlimit="10" d="M157.9,236.6h13.1c0.8,0,1.7-0.6,2-0.9l2.7-3.4
				c0.3-0.3-0.1-0.7-0.8-0.7h-12.5c-0.8,0-1.6,0.2-2,0.6l-3.3,3.5C156.8,236.1,157.1,236.6,157.9,236.6z"/>
			<path fill="#FFFFFF" stroke="#93A1A6" stroke-miterlimit="10" d="M176.8,236.6h13.1c0.8,0,1.6-0.6,1.9-0.9l2.1-3.4
				c0.2-0.3-0.2-0.7-1-0.7h-12.5c-0.8,0-1.6,0.2-1.9,0.6l-2.6,3.5C175.6,236.1,176,236.6,176.8,236.6z"/>
			<path fill="#FFFFFF" stroke="#93A1A6" stroke-miterlimit="10" d="M195.7,236.6h13.1c0.8,0,1.6-0.6,1.7-0.9l1.4-3.4
				c0.1-0.3-0.3-0.7-1.1-0.7h-12.5c-0.8,0-1.5,0.2-1.7,0.6l-2,3.5C194.4,236.1,194.9,236.6,195.7,236.6z"/>
			<path fill="#FFFFFF" stroke="#93A1A6" stroke-miterlimit="10" d="M214.5,236.6h13.1c0.8,0,1.5-0.6,1.6-0.9l0.7-3.4
				c0.1-0.3-0.5-0.7-1.2-0.7h-12.5c-0.8,0-1.5,0.2-1.6,0.6l-1.3,3.5C213.2,236.1,213.7,236.6,214.5,236.6z"/>
			<path fill="#FFFFFF" stroke="#93A1A6" stroke-miterlimit="10" d="M233.4,236.6h13.1c0.8,0,1.4-0.6,1.5-0.9l0.1-3.4
				c0-0.3-0.6-0.7-1.4-0.7h-12.5c-0.8,0-1.4,0.2-1.5,0.6l-0.6,3.5C232,236.1,232.6,236.6,233.4,236.6z"/>
			<path fill="#FFFFFF" stroke="#93A1A6" stroke-miterlimit="10" d="M252.2,236.6h13.1c0.8,0,1.4-0.6,1.3-0.9l-0.6-3.4
				c-0.1-0.3-0.7-0.7-1.5-0.7h-12.5c-0.8,0-1.4,0.2-1.4,0.6l0,3.5C250.8,236.1,251.5,236.6,252.2,236.6z"/>
			<path fill="#FFFFFF" stroke="#93A1A6" stroke-miterlimit="10" d="M271.1,236.6h13.1c0.8,0,1.3-0.6,1.2-0.9l-1.2-3.4
				c-0.1-0.3-0.8-0.7-1.6-0.7h-12.5c-0.8,0-1.3,0.2-1.2,0.6l0.7,3.5C269.6,236.1,270.3,236.6,271.1,236.6z"/>
			<path fill="#FFFFFF" stroke="#93A1A6" stroke-miterlimit="10" d="M290,236.6h13.1c0.8,0,1.3-0.6,1-0.9l-1.9-3.4
				c-0.2-0.3-1-0.7-1.7-0.7H288c-0.8,0-1.3,0.2-1.1,0.6l1.4,3.5C288.4,236.1,289.2,236.6,290,236.6z"/>
			<path fill="#FFFFFF" stroke="#93A1A6" stroke-miterlimit="10" d="M308.8,236.6H322c0.8,0,1.2-0.6,0.9-0.9l-2.6-3.4
				c-0.3-0.3-1.1-0.7-1.9-0.7h-12.5c-0.8,0-1.2,0.2-1,0.6l2,3.5C307.2,236.1,308,236.6,308.8,236.6z"/>
			<path fill="#FFFFFF" stroke="#93A1A6" stroke-miterlimit="10" d="M327.7,236.6h13.1c0.8,0,1.1-0.6,0.8-0.9l-3.2-3.4
				c-0.3-0.3-1.2-0.7-2-0.7h-12.5c-0.8,0-1.1,0.2-0.9,0.6l2.7,3.5C326,236.1,326.9,236.6,327.7,236.6z"/>
			<path fill="#FFFFFF" stroke="#93A1A6" stroke-miterlimit="10" d="M346.6,236.6h13.1c0.8,0,1.1-0.6,0.6-0.9l-3.9-3.4
				c-0.4-0.3-1.3-0.7-2.1-0.7h-12.5c-0.8,0-1.1,0.2-0.7,0.6l3.3,3.5C344.8,236.1,345.8,236.6,346.6,236.6z"/>
			<path fill="#FFFFFF" stroke="#93A1A6" stroke-miterlimit="10" d="M365.4,236.6h13.1c0.8,0,1-0.6,0.5-0.9l-4.6-3.4
				c-0.5-0.3-1.5-0.7-2.2-0.7h-12.5c-0.8,0-1,0.2-0.6,0.6l4,3.5C363.6,236.1,364.6,236.6,365.4,236.6z"/>
			<path fill="#FFFFFF" stroke="#93A1A6" stroke-miterlimit="10" d="M111,243.6h23c0.8,0,1.9-0.4,2.4-0.9l4.3-3.6
				c0.4-0.4,0.2-0.5-0.6-0.5h-22.3c-0.8,0-1.9,0.1-2.4,0.5l-5,3.8C109.9,243.3,110.1,243.6,111,243.6z"/>
			<path fill="#FFFFFF" stroke="#93A1A6" stroke-miterlimit="10" d="M140.1,243.6h14c0.8,0,1.9-0.4,2.3-0.9l3.6-3.6
				c0.4-0.4,0-0.5-0.8-0.5h-13.3c-0.8,0-1.8,0.1-2.2,0.5l-4.2,3.8C139,243.3,139.3,243.6,140.1,243.6z"/>
			<path fill="#FFFFFF" stroke="#93A1A6" stroke-miterlimit="10" d="M160.3,243.6h14c0.8,0,1.8-0.4,2.1-0.9l2.8-3.6
				c0.3-0.4-0.1-0.5-0.9-0.5H165c-0.8,0-1.7,0.1-2.1,0.5l-3.4,3.8C159.1,243.3,159.4,243.6,160.3,243.6z"/>
			<path fill="#FFFFFF" stroke="#93A1A6" stroke-miterlimit="10" d="M180.5,243.6h14c0.8,0,1.7-0.4,2-0.9l2-3.6
				c0.2-0.4-0.3-0.5-1.1-0.5h-13.3c-0.8,0-1.7,0.1-2,0.5l-2.7,3.8C179.2,243.3,179.6,243.6,180.5,243.6z"/>
			<path fill="#FFFFFF" stroke="#93A1A6" stroke-miterlimit="10" d="M200.6,243.6h14c0.8,0,1.7-0.4,1.8-0.9l1.3-3.6
				c0.1-0.4-0.4-0.5-1.2-0.5h-13.3c-0.8,0-1.6,0.1-1.8,0.5l-1.9,3.8C199.3,243.3,199.8,243.6,200.6,243.6z"/>
			<path fill="#FFFFFF" stroke="#93A1A6" stroke-miterlimit="10" d="M220.8,243.6h14c0.8,0,1.6-0.4,1.6-0.9l0.5-3.6
				c0.1-0.4-0.6-0.5-1.4-0.5h-13.3c-0.8,0-1.6,0.1-1.7,0.5l-1.2,3.8C219.3,243.3,219.9,243.6,220.8,243.6z"/>
			<path fill="#FFFFFF" stroke="#93A1A6" stroke-miterlimit="10" d="M240.9,243.6h14c0.8,0,1.5-0.4,1.5-0.9l-0.2-3.6
				c0-0.4-0.7-0.5-1.5-0.5h-13.3c-0.8,0-1.5,0.1-1.5,0.5l-0.4,3.8C239.4,243.3,240.1,243.6,240.9,243.6z"/>
			<path fill="#FFFFFF" stroke="#93A1A6" stroke-miterlimit="10" d="M261.1,243.6h14c0.8,0,1.4-0.4,1.3-0.9l-1-3.6
				c-0.1-0.4-0.8-0.5-1.6-0.5h-13.3c-0.8,0-1.4,0.1-1.4,0.5l0.4,3.8C259.5,243.3,260.2,243.6,261.1,243.6z"/>
			<path fill="#FFFFFF" stroke="#93A1A6" stroke-miterlimit="10" d="M281.3,243.6h14c0.8,0,1.4-0.4,1.2-0.9l-1.7-3.6
				c-0.2-0.4-1-0.5-1.8-0.5h-13.3c-0.8,0-1.4,0.1-1.2,0.5l1.1,3.8C279.6,243.3,280.4,243.6,281.3,243.6z"/>
			<path fill="#FFFFFF" stroke="#93A1A6" stroke-miterlimit="10" d="M301.4,243.6h14c0.8,0,1.3-0.4,1-0.9l-2.5-3.6
				c-0.3-0.4-1.1-0.5-1.9-0.5h-13.3c-0.8,0-1.3,0.1-1.1,0.5l1.9,3.8C299.7,243.3,300.6,243.6,301.4,243.6z"/>
			<path fill="#FFFFFF" stroke="#93A1A6" stroke-miterlimit="10" d="M321.6,243.6h14c0.8,0,1.2-0.4,0.9-0.9l-3.3-3.6
				c-0.3-0.4-1.3-0.5-2.1-0.5h-13.3c-0.8,0-1.2,0.1-1,0.5l2.6,3.8C319.8,243.3,320.7,243.6,321.6,243.6z"/>
			<path fill="#FFFFFF" stroke="#93A1A6" stroke-miterlimit="10" d="M341.7,243.6h14c0.8,0,1.2-0.4,0.7-0.9l-4-3.6
				c-0.4-0.4-1.4-0.5-2.2-0.5h-13.3c-0.8,0-1.2,0.1-0.8,0.5l3.4,3.8C339.9,243.3,340.9,243.6,341.7,243.6z"/>
			<path fill="#FFFFFF" stroke="#93A1A6" stroke-miterlimit="10" d="M362.3,243.6h23.8c1.1,0,1.3-0.5,0.6-1.1l-4.6-3.2
				c-0.7-0.5-2.1-0.7-3.1-0.7h-22.6c-1,0-1.4,0.2-0.9,0.7l3.7,3.3C359.9,243.2,361.2,243.6,362.3,243.6z"/>
			<path fill="#FFFFFF" stroke="#93A1A6" stroke-miterlimit="10" d="M370.6,251.6h25.6c1.2,0,1.4-0.9,0.5-1.5l-5.3-3.7
				c-0.8-0.6-2.3-0.8-3.4-0.8h-24.2c-1.1,0-1.5,0.1-0.8,0.6l4.2,4C367.9,251,369.4,251.6,370.6,251.6z"/>
			<path fill="#FFFFFF" stroke="#93A1A6" stroke-miterlimit="10" d="M101,251.6h15.1c0.9,0,2.1-0.8,2.8-1.3l5.3-4.1
				c0.6-0.5,0.3-0.6-0.6-0.6h-14.2c-0.9,0-2.1,0-2.7,0.4l-6.1,4.5C99.9,251.1,100.1,251.6,101,251.6z"/>
			<path fill="#FFFFFF" stroke="#93A1A6" stroke-miterlimit="10" d="M122.7,251.6h15.1c0.9,0,2.1-0.8,2.6-1.3l4.5-4.1
				c0.5-0.5,0.1-0.6-0.7-0.6h-14.2c-0.9,0-2,0-2.5,0.4l-5.2,4.5C121.5,251.1,121.7,251.6,122.7,251.6z"/>
			<path fill="#FFFFFF" stroke="#93A1A6" stroke-miterlimit="10" d="M144.3,251.6h15.1c0.9,0,2-0.8,2.4-1.3l3.6-4.1
				c0.4-0.5,0-0.6-0.9-0.6h-14.2c-0.9,0-1.9,0-2.4,0.4l-4.3,4.5C143.1,251.1,143.4,251.6,144.3,251.6z"/>
			<path fill="#FFFFFF" stroke="#93A1A6" stroke-miterlimit="10" d="M166,251.6H181c0.9,0,1.9-0.8,2.2-1.3l2.7-4.1
				c0.3-0.5-0.2-0.6-1-0.6h-14.2c-0.9,0-1.8,0-2.2,0.4l-3.5,4.5C164.6,251.1,165,251.6,166,251.6z"/>
			<path fill="#FFFFFF" stroke="#93A1A6" stroke-miterlimit="10" d="M187.6,251.6h15.1c0.9,0,1.8-0.8,2-1.3l1.8-4.1
				c0.2-0.5-0.4-0.6-1.2-0.6h-14.2c-0.9,0-1.8,0-2,0.4l-2.6,4.5C186.2,251.1,186.7,251.6,187.6,251.6z"/>
			<path fill="#FFFFFF" stroke="#93A1A6" stroke-miterlimit="10" d="M209.2,251.6h15.1c0.9,0,1.7-0.8,1.9-1.3l1-4.1
				c0.1-0.5-0.5-0.6-1.4-0.6h-14.2c-0.9,0-1.7,0-1.9,0.4l-1.7,4.5C207.8,251.1,208.3,251.6,209.2,251.6z"/>
			<path fill="#FFFFFF" stroke="#93A1A6" stroke-miterlimit="10" d="M230.9,251.6H246c0.9,0,1.7-0.8,1.7-1.3l0.1-4.1
				c0-0.5-0.7-0.6-1.5-0.6H232c-0.9,0-1.6,0-1.7,0.4l-0.8,4.5C229.3,251.1,230,251.6,230.9,251.6z"/>
			<path fill="#FFFFFF" stroke="#93A1A6" stroke-miterlimit="10" d="M252.5,251.6h15.1c0.9,0,1.6-0.8,1.5-1.3l-0.8-4.1
				c-0.1-0.5-0.8-0.6-1.7-0.6h-14.2c-0.9,0-1.6,0-1.6,0.4l0,4.5C250.9,251.1,251.6,251.6,252.5,251.6z"/>
			<path fill="#FFFFFF" stroke="#93A1A6" stroke-miterlimit="10" d="M274.2,251.6h15.1c0.9,0,1.5-0.8,1.3-1.3l-1.6-4.1
				c-0.2-0.5-1-0.6-1.9-0.6h-14.2c-0.9,0-1.5,0-1.4,0.4l0.9,4.5C272.5,251.1,273.3,251.6,274.2,251.6z"/>
			<path fill="#FFFFFF" stroke="#93A1A6" stroke-miterlimit="10" d="M295.8,251.6h15.1c0.9,0,1.4-0.8,1.1-1.3l-2.5-4.1
				c-0.3-0.5-1.2-0.6-2-0.6h-14.2c-0.9,0-1.4,0-1.2,0.4l1.8,4.5C294,251.1,294.9,251.6,295.8,251.6z"/>
			<path fill="#FFFFFF" stroke="#93A1A6" stroke-miterlimit="10" d="M317.5,251.6h15.1c0.9,0,1.3-0.8,1-1.3l-3.4-4.1
				c-0.4-0.5-1.3-0.6-2.2-0.6h-14.2c-0.9,0-1.3,0-1.1,0.4l2.6,4.5C315.6,251.1,316.6,251.6,317.5,251.6z"/>
			<path fill="#FFFFFF" stroke="#93A1A6" stroke-miterlimit="10" d="M345.1,251.6h15.1c0.9,0,1.2-0.8,0.7-1.3l-4.6-4.1
				c-0.5-0.5-1.6-0.6-2.4-0.6h-14.2c-0.9,0-1.2,0-0.8,0.4l3.9,4.5C343.1,251.1,344.2,251.6,345.1,251.6z"/>
			<path fill="#FFFFFF" stroke="#93A1A6" stroke-miterlimit="10" d="M91,260.6h24.4c1,0,2.3-0.6,3-1.2l5.7-5.5
				c0.6-0.5,0.3-1.4-0.6-1.4h-23.5c-0.9,0-2.2,0.8-2.9,1.3l-6.6,5.3C89.9,259.9,90,260.6,91,260.6z"/>
			<path fill="#FFFFFF" stroke="#93A1A6" stroke-miterlimit="10" d="M122.6,260.6h16.3c1,0,2.2-0.6,2.8-1.2l4.7-5.5
				c0.5-0.5,0.1-1.4-0.8-1.4h-15.3c-0.9,0-2.1,0.8-2.7,1.3l-5.6,5.3C121.3,259.9,121.6,260.6,122.6,260.6z"/>
			<path fill="#FFFFFF" stroke="#93A1A6" stroke-miterlimit="10" d="M146,260.6h16.3c1,0,2.1-0.6,2.6-1.2l3.7-5.5
				c0.4-0.5-0.1-1.4-1-1.4h-15.3c-0.9,0-2.1,0.8-2.5,1.3l-4.6,5.3C144.6,259.9,145,260.6,146,260.6z"/>
			<path fill="#FFFFFF" stroke="#93A1A6" stroke-miterlimit="10" d="M169.3,260.6h152.6c1,0,1.5-0.6,1.1-1.2l-3.2-5.5
				c-0.3-0.5-1.3-1.4-2.3-1.4H174.2c-0.9,0-2,0.8-2.3,1.3l-3.6,5.3C167.9,259.9,168.3,260.6,169.3,260.6z"/>
			<path fill="#FFFFFF" stroke="#93A1A6" stroke-miterlimit="10" d="M329.9,260.6h16.3c1,0,1.4-0.6,0.9-1.2l-4.4-5.5
				c-0.5-0.5-1.6-1.4-2.5-1.4h-15.3c-0.9,0-1.4,0.8-1,1.3l3.5,5.3C327.8,259.9,328.9,260.6,329.9,260.6z"/>
			<path fill="#FFFFFF" stroke="#93A1A6" stroke-miterlimit="10" d="M353.3,260.6h16.3c1,0,1.3-0.6,0.7-1.2l-5.4-5.5
				c-0.6-0.5-1.7-1.4-2.7-1.4h-15.3c-0.9,0-1.3,0.8-0.8,1.3l4.5,5.3C351.1,259.9,352.3,260.6,353.3,260.6z"/>
			<path fill="#FFFFFF" stroke="#93A1A6" stroke-miterlimit="10" d="M376.6,260.6h16.3c1,0,1.2-0.6,0.5-1.2L387,254
				c-0.7-0.5-1.9-1.4-2.9-1.4h-15.3c-0.9,0-1.2,0.8-0.6,1.3l5.5,5.3C374.3,259.9,375.6,260.6,376.6,260.6z"/>
		</g>
	</g>
	<circle fill="#FFFFFF" stroke="#CCCCCC" stroke-miterlimit="10" cx="252.6" cy="8.6" r="4"/>
	<path opacity="0.4" fill="#93A1A6" stroke="#93A1A6" stroke-miterlimit="10" d="M103.3,223h17.1c0.5,0,1,0.4,1,1v1.5
		c0,0.5-0.4,1-1,1h-17.1c-0.5,0-1-0.4-1-1V224C102.3,223.5,102.7,223,103.3,223z"/>
	<path opacity="0.4" fill="#93A1A6" stroke="#93A1A6" stroke-miterlimit="10" d="M383.8,223h17.1c0.5,0,1,0.4,1,1v1.5
		c0,0.5-0.4,1-1,1h-17.1c-0.5,0-1-0.4-1-1V224C382.8,223.5,383.3,223,383.8,223z"/>
	<g>
		<g>
			<path opacity="0.4" fill="#B9CBD1" stroke="#E6E6E6" stroke-miterlimit="10" d="M294.1,117.8c1.2,8,8.6,13.5,16.6,12.3
				c8-1.2,13.5-8.6,12.3-16.6c-1.2-8-8.6-13.5-16.6-12.3C298.5,102.4,292.9,109.8,294.1,117.8L294.1,117.8z M303,107.9
				c-1.7,1.2-2.9,2.9-3.5,4.9 M299.1,117L299.1,117c0.8,5.2,5.7,8.9,10.9,8.1c3.7-0.6,6.6-3.2,7.7-6.6 M294.1,117.8"/>
			<g>
				<path opacity="0.4" fill="#B9CBD1" stroke="#E6E6E6" stroke-miterlimit="10" d="M337.4,87.3c0.1-0.2,0-0.5-0.1-0.6
					c-4.2-5.2-9.7-9.2-15.9-11.7c-6.4-2.5-13.4-3.4-20.2-2.4c-11.8,1.7-22.1,8.7-28.1,19c-0.1,0.2-0.1,0.5,0.1,0.7l13.7,17.2
					c0.1,0.2,0.4,0.3,0.6,0.2c0,0,0.1,0,0.1,0c0.2-0.1,0.4-0.3,0.5-0.5c0.9-8.6,7.6-15.5,16.1-16.8c0.5-0.1,1.1-0.1,1.6-0.2
					c0,0,0,0,0.1,0l31-4.6C337.1,87.7,337.3,87.5,337.4,87.3L337.4,87.3z M337.4,87.3"/>
				<path fill="none" stroke="#E6E6E6" stroke-width="2" stroke-miterlimit="10" d="M311.9,78c-3.2-0.5-6.6-0.5-9.8,0
					c-8.1,1.2-15.3,5.3-20.4,11.5 M319,79.9c-0.7-0.3-1.5-0.6-2.2-0.8 M332.3,90.2"/>
			</g>
			<g>
				<path fill="none" stroke="#E6E6E6" stroke-width="2" stroke-miterlimit="10" d="M272.1,129.3c0.9,3.2,2.3,6.2,4.1,8.9
					c4.5,6.9,11.2,11.7,19,13.7 M270.9,122.1c0,0.8,0.1,1.6,0.2,2.3"/>
				<path opacity="0.4" fill="#B9CBD1" stroke="#E6E6E6" stroke-miterlimit="10" d="M313.1,138.4c-0.2-0.2-0.5-0.2-0.7-0.1
					c-1.6,0.7-3.2,1.2-4.9,1.4c-7.3,1.1-14.6-2.2-18.7-8.3c0,0,0,0,0,0l-19.5-24.6c-0.1-0.2-0.4-0.3-0.6-0.2l0,0
					c-0.2,0-0.4,0.2-0.5,0.4c-2.4,6.2-3.1,13-2.2,19.7c1.4,9.3,6.1,17.8,13.2,23.9c7.1,6.1,16.1,9.4,25.3,9.4c0,0,0.1,0,0.1,0
					c0.2,0,0.4-0.2,0.5-0.4l8.1-20.5C313.3,138.9,313.3,138.6,313.1,138.4L313.1,138.4z M313.1,138.4"/>
			</g>
			<g>
				<path fill="none" stroke="#E6E6E6" stroke-width="2" stroke-miterlimit="10" d="M337,142c2.4-2.2,4.5-4.8,6.2-7.6
					c4.2-7.1,5.5-15.2,3.9-23.1 M331.1,146.3c0.7-0.4,1.4-0.8,2-1.2"/>
				<path opacity="0.4" fill="#B9CBD1" stroke="#E6E6E6" stroke-miterlimit="10" d="M347,97.5l-21.8,3.2c-0.3,0-0.5,0.2-0.5,0.5
					c-0.1,0.3,0,0.5,0.2,0.7c4.2,3,6.9,7.5,7.6,12.6c0.6,3.9,0,7.7-1.8,11.2c0,0,0,0,0,0.1L319.2,155c-0.1,0.2,0,0.5,0.1,0.6
					c0.1,0.2,0.4,0.3,0.6,0.2l0,0c10.2-1.6,19.2-7.1,25.4-15.5c6.1-8.4,8.7-18.6,7.2-28.8c-0.7-4.9-2.3-9.5-4.7-13.7
					C347.6,97.6,347.3,97.4,347,97.5L347,97.5z M347,97.5"/>
			</g>
		</g>
		<g>
			<path fill="none" stroke="#E6E6E6" stroke-width="2" stroke-miterlimit="10" d="M363.4,178.7c-2.2,1.3-4.8,1.7-7.4,1.1
				c-0.2-0.1-0.4-0.2-0.5-0.4c-0.1-0.2-0.2-0.4-0.1-0.6l5.1-22.7c0-0.2,0.2-0.4,0.4-0.5c0.2-0.1,0.4-0.2,0.6-0.1
				c2.7,0.6,5,2.2,6.4,4.4c1.3,2.1,1.8,4.6,1.2,7.1l0,0.1c-0.1,0.4-0.5,0.7-0.9,0.6l-4.5-0.7l-0.7,3.3l4.4,1.3
				c0.4,0.1,0.7,0.6,0.6,1l0,0.1C367.1,175.2,365.6,177.4,363.4,178.7L363.4,178.7z"/>
			<path fill="none" stroke="#E6E6E6" stroke-width="2" stroke-miterlimit="10" d="M359.1,162.3l-16.8-3.5c-1-0.2-2,0.4-2.2,1.4
				l-1.4,6.3c-0.2,1,0.4,2,1.4,2.2l16.7,3.9L359.1,162.3z"/>
			<line fill="none" stroke="#E6E6E6" stroke-width="2" stroke-miterlimit="10" x1="343.1" y1="159.1" x2="342.6" y2="169.1"/>
			<line fill="none" stroke="#E6E6E6" stroke-width="2" stroke-miterlimit="10" x1="346.1" y1="159.8" x2="345.6" y2="169.8"/>
			<line fill="none" stroke="#E6E6E6" stroke-width="2" stroke-miterlimit="10" x1="349.2" y1="160.5" x2="348.7" y2="170.5"/>
		</g>
		<g>
			<path fill="none" stroke="#E6E6E6" stroke-width="2" stroke-miterlimit="10" d="M150.9,115.5c-0.3,2.5-1.6,4.8-3.6,6.6
				c-0.2,0.1-0.4,0.2-0.6,0.2c-0.2,0-0.4-0.1-0.6-0.3l-14.9-17.8c-0.1-0.2-0.2-0.4-0.2-0.6c0-0.2,0.1-0.4,0.3-0.6
				c2.1-1.8,4.7-2.6,7.4-2.4c2.5,0.2,4.7,1.4,6.4,3.3l0,0.1c0.3,0.3,0.3,0.8-0.1,1.1l-3.3,3.2l2.2,2.6l3.7-2.7
				c0.4-0.3,0.9-0.2,1.1,0.1l0,0.1C150.4,110.4,151.2,112.9,150.9,115.5L150.9,115.5z"/>
			<path fill="none" stroke="#E6E6E6" stroke-width="2" stroke-miterlimit="10" d="M135.3,108.9l-13,11.2c-0.8,0.7-0.9,1.9-0.2,2.7
				l4.2,5c0.7,0.8,1.9,0.9,2.7,0.2l13.3-10.9L135.3,108.9z"/>
			<line fill="none" stroke="#E6E6E6" stroke-width="2" stroke-miterlimit="10" x1="123.1" y1="119.7" x2="130.7" y2="126.2"/>
			<line fill="none" stroke="#E6E6E6" stroke-width="2" stroke-miterlimit="10" x1="125.5" y1="117.7" x2="133.1" y2="124.2"/>
			<line fill="none" stroke="#E6E6E6" stroke-width="2" stroke-miterlimit="10" x1="127.9" y1="115.7" x2="135.5" y2="122.1"/>
		</g>
		<g>
			<path fill="none" stroke="#E6E6E6" stroke-width="2" stroke-miterlimit="10" d="M272.6,177.2c1.5-3.2,3.7-5.3,4.7-4.8
				c1.1,0.5,0.7,3.5-0.8,6.7c-0.6,1.2-1.2,2.2-1.9,3"/>
			<path fill="none" stroke="#E6E6E6" stroke-width="2" stroke-miterlimit="10" d="M243.4,166.8"/>
			<path fill="none" stroke="#E6E6E6" stroke-width="2" stroke-miterlimit="10" d="M241.2,162.1c-1.5,3.2-1.9,6.1-0.8,6.7
				c1.1,0.5,3.2-1.6,4.7-4.8"/>
			
				<ellipse transform="matrix(-0.4383 0.8988 -0.8988 -0.4383 547.6788 9.9167)" fill="none" stroke="#E6E6E6" stroke-width="2" stroke-miterlimit="10" cx="270.7" cy="176.1" rx="6.4" ry="2.2"/>
			
				<ellipse transform="matrix(-0.4383 0.8988 -0.8988 -0.4383 540.3351 10.6889)" fill="none" stroke="#E6E6E6" stroke-width="2" stroke-miterlimit="10" cx="266.8" cy="174.2" rx="6.4" ry="2.2"/>
			
				<ellipse transform="matrix(-0.4383 0.8988 -0.8988 -0.4383 532.9915 11.461)" fill="none" stroke="#E6E6E6" stroke-width="2" stroke-miterlimit="10" cx="262.9" cy="172.3" rx="6.4" ry="2.2"/>
			
				<ellipse transform="matrix(-0.4383 0.8988 -0.8988 -0.4383 525.6477 12.2331)" fill="none" stroke="#E6E6E6" stroke-width="2" stroke-miterlimit="10" cx="259" cy="170.4" rx="6.4" ry="2.2"/>
			
				<ellipse transform="matrix(-0.4383 0.8988 -0.8988 -0.4383 518.304 13.0052)" fill="none" stroke="#E6E6E6" stroke-width="2" stroke-miterlimit="10" cx="255.1" cy="168.4" rx="6.4" ry="2.2"/>
			
				<ellipse transform="matrix(-0.4383 0.8988 -0.8988 -0.4383 510.9603 13.7773)" fill="none" stroke="#E6E6E6" stroke-width="2" stroke-miterlimit="10" cx="251.2" cy="166.5" rx="6.4" ry="2.2"/>
			
				<ellipse transform="matrix(-0.4383 0.8988 -0.8988 -0.4383 503.6165 14.5494)" fill="none" stroke="#E6E6E6" stroke-width="2" stroke-miterlimit="10" cx="247.3" cy="164.6" rx="6.4" ry="2.2"/>
		</g>
		<circle fill="none" stroke="#E6E6E6" stroke-width="2" stroke-miterlimit="10" cx="331.7" cy="186.6" r="4.3"/>
		<circle fill="none" stroke="#E6E6E6" stroke-width="2" stroke-miterlimit="10" cx="361.8" cy="94.1" r="4.3"/>
		<g>
			<path fill="none" stroke="#E6E6E6" stroke-width="2" stroke-miterlimit="10" d="M301.2,170.3l-4.8,6.1c-0.3,0.4-0.4,0.9-0.2,1.4
				l2.8,7.2c0.2,0.5,0.6,0.8,1.1,0.9l7.6,1.1c0.5,0.1,1-0.1,1.3-0.5l4.8-6.1c0.3-0.4,0.4-0.9,0.2-1.4l-2.8-7.2
				c-0.2-0.5-0.6-0.8-1.1-0.9l-7.6-1.1C302,169.7,301.5,169.9,301.2,170.3z"/>
			<path fill="none" stroke="#E6E6E6" stroke-width="2" stroke-miterlimit="10" d="M304.6,182.5c-2.3-0.3-3.9-2.5-3.6-4.8
				c0.3-2.3,2.5-3.9,4.8-3.6c2.3,0.3,3.9,2.5,3.6,4.8C309,181.3,306.9,182.9,304.6,182.5L304.6,182.5z"/>
			<path fill="none" stroke="#E6E6E6" stroke-width="2" stroke-miterlimit="10" d="M305.2,178.3"/>
		</g>
		<g>
			<path fill="none" stroke="#E6E6E6" stroke-width="2" stroke-miterlimit="10" d="M349.2,66.7l-4.8,6.1c-0.3,0.4-0.4,0.9-0.2,1.4
				l2.8,7.2c0.2,0.5,0.6,0.8,1.1,0.9l7.6,1.1c0.5,0.1,1-0.1,1.3-0.5l4.8-6.1c0.3-0.4,0.4-0.9,0.2-1.4l-2.8-7.2
				c-0.2-0.5-0.6-0.8-1.1-0.9l-7.6-1.1C350,66.1,349.5,66.3,349.2,66.7z"/>
			<path fill="none" stroke="#E6E6E6" stroke-width="2" stroke-miterlimit="10" d="M352.6,78.9c-2.3-0.3-3.9-2.5-3.6-4.8
				c0.3-2.3,2.5-3.9,4.8-3.6c2.3,0.3,3.9,2.5,3.6,4.8C357,77.6,354.9,79.3,352.6,78.9L352.6,78.9z"/>
			<path fill="none" stroke="#E6E6E6" stroke-width="2" stroke-miterlimit="10" d="M353.2,74.7"/>
		</g>
		<g>
			<g>
				<g>
					<path fill="none" stroke="#E6E6E6" stroke-width="2" stroke-miterlimit="10" d="M207.9,128.1l0.4-0.4c7.5,2.5,16.1,1,22.4-4.6
						c6-5.4,8.4-13.2,7.2-20.5c-0.1-0.4-0.6-0.6-1-0.3l-12.7,11.4l-12.3-4l-2.7-12.7l12.7-11.4c0.3-0.3,0.2-0.9-0.2-1
						c-7.2-2-15.2-0.4-21.2,5c-6.5,5.9-8.8,14.7-6.7,22.7l-0.1,0.1L138.3,162c-2.2,1.9-3.4,4.6-3.5,7.4c-0.1,2.7,0.8,5.5,2.7,7.7
						c3.9,4.4,10.7,4.8,15.1,0.8L207.9,128.1z M139.6,170.5c0.1-2.2,2.1-4,4.3-3.8c2.3,0.1,4,2,3.9,4.3c-0.1,2.3-2,4-4.3,3.9
						C141.2,174.7,139.5,172.7,139.6,170.5L139.6,170.5z M139.6,170.5"/>
				</g>
			</g>
			<line fill="none" stroke="#E6E6E6" stroke-width="2" stroke-miterlimit="10" x1="186.5" y1="141.4" x2="161.8" y2="163.8"/>
			<line fill="none" stroke="#E6E6E6" stroke-width="2" stroke-miterlimit="10" x1="158.7" y1="166.4" x2="154.5" y2="170.3"/>
			<path fill="none" stroke="#E6E6E6" stroke-width="2" stroke-miterlimit="10" d="M207.4,89.9c-2.4,1.3-4.5,3.2-6.1,5.7
				c-3,4.5-3.7,9.9-2.3,14.8"/>
			<path fill="none" stroke="#E6E6E6" stroke-width="2" stroke-miterlimit="10" d="M216.8,124.2c5.4-0.2,10.2-2.8,13.4-6.7"/>
			<path fill="none" stroke="#E6E6E6" stroke-width="2" stroke-miterlimit="10" d="M208.7,122.6c1.2,0.6,2.5,1,3.9,1.3"/>
		</g>
	</g>
</g>
</svg>
