<?xml version="1.0" encoding="utf-8"?>
<!-- Generator: Adobe Illustrator 18.0.0, SVG Export Plug-In . SVG Version: 6.00 Build 0)  -->
<!DOCTYPE svg PUBLIC "-//W3C//DTD SVG 1.1//EN" "http://www.w3.org/Graphics/SVG/1.1/DTD/svg11.dtd">
<svg version="1.1" id="Слой_1" xmlns="http://www.w3.org/2000/svg" xmlns:xlink="http://www.w3.org/1999/xlink" x="0px" y="0px"
	 viewBox="0 0 48.9 57.8" enable-background="new 0 0 48.9 57.8" xml:space="preserve">
<path fill="#B9CBD1" d="M43.6,6.3c-3,0-5.3,2.3-5.3,5.3v9.2c-0.8-0.6-1.9-1.1-3.2-1.1s-2.5,0.4-3.6,1.3c-0.8-2.1-2.7-3.4-4.9-3.4
	c-1.3,0-2.3,0.4-3.2,1.1V5.3c0-3-2.3-5.3-5.3-5.3s-5.3,2.3-5.3,5.3v19.6c-4.2-3.8-8.9-6.8-11.8-3.8C-3.1,25.3,5.7,33.5,12.5,46
	c4.9,8.7,11.6,11.8,18.4,11.8c9.9,0,18-8,18-18V11.6C48.9,8.7,46.5,6.3,43.6,6.3z"/>
</svg>
