<?xml version="1.0" encoding="utf-8"?>
<!-- Generator: Adobe Illustrator 18.1.1, SVG Export Plug-In . SVG Version: 6.00 Build 0)  -->
<svg version="1.1" id="Слой_1" xmlns="http://www.w3.org/2000/svg" xmlns:xlink="http://www.w3.org/1999/xlink" x="0px" y="0px"
	 viewBox="0 0 100.1 43.1" enable-background="new 0 0 100.1 43.1" xml:space="preserve">
<g>
	<path fill="#B9CBD1" d="M29.7,43.1H0.8v-5.8l13.6-14.7c1.9-2.1,3.3-3.9,4.2-5.4c0.9-1.5,1.3-3,1.3-4.4c0-1.9-0.5-3.4-1.4-4.5
		c-0.9-1.1-2.3-1.6-4.1-1.6c-1.9,0-3.4,0.7-4.5,2c-1.1,1.3-1.6,3-1.6,5.2H0c0-2.6,0.6-5,1.8-7.1c1.2-2.1,3-3.8,5.2-5
		C9.3,0.6,11.8,0,14.6,0c4.3,0,7.7,1.1,10.1,3.2c2.4,2.1,3.6,5.1,3.6,8.9c0,2.1-0.5,4.2-1.6,6.4c-1.1,2.2-2.9,4.7-5.6,7.6l-9.6,10.2
		h18.1V43.1z"/>
	<path fill="#B9CBD1" d="M48.9,26.1L44.4,31v12.1h-8.7V0.6h8.7v19.3l3.8-5.3L59,0.6h10.7l-15,18.9l15.4,23.6H59.8L48.9,26.1z"/>
	<path fill="#B9CBD1" d="M89.7,19.3h10.4v7.6H89.7v11.9h-8V26.9H71.3v-7.6h10.5V7.9h8V19.3z"/>
</g>
</svg>
