<?xml version="1.0" encoding="utf-8"?>
<!-- Generator: Adobe Illustrator 18.1.1, SVG Export Plug-In . SVG Version: 6.00 Build 0)  -->
<svg version="1.1" id="Слой_1" xmlns="http://www.w3.org/2000/svg" xmlns:xlink="http://www.w3.org/1999/xlink" x="0px" y="0px"
	 viewBox="0 0 136.4 46.8" enable-background="new 0 0 136.4 46.8" xml:space="preserve">
<g>
	<path fill="#B9CBD1" d="M19.6,46.2h-9V11.3L0,14.6V7.3l18.7-6.8h1V46.2z"/>
	<path fill="#B9CBD1" d="M55.4,27.4c0,6.3-1.3,11.1-3.9,14.4c-2.6,3.3-6.4,5-11.3,5c-4.9,0-8.7-1.6-11.3-4.9c-2.6-3.3-3.9-8-4-14.1
		v-8.4c0-6.4,1.3-11.2,3.9-14.5C31.5,1.7,35.3,0,40.2,0c4.9,0,8.7,1.6,11.3,4.9c2.6,3.3,3.9,7.9,4,14.1V27.4z M46.5,18.1
		c0-3.8-0.5-6.5-1.5-8.2c-1-1.7-2.6-2.6-4.8-2.6c-2.1,0-3.7,0.8-4.7,2.5c-1,1.6-1.5,4.2-1.6,7.7v11.1c0,3.7,0.5,6.5,1.5,8.3
		c1,1.8,2.6,2.7,4.8,2.7c2.2,0,3.8-0.9,4.7-2.6c1-1.7,1.5-4.4,1.5-7.9V18.1z"/>
	<path fill="#B9CBD1" d="M91.1,27.4c0,6.3-1.3,11.1-3.9,14.4c-2.6,3.3-6.4,5-11.3,5c-4.9,0-8.7-1.6-11.3-4.9c-2.6-3.3-3.9-8-4-14.1
		v-8.4c0-6.4,1.3-11.2,3.9-14.5C67.2,1.7,70.9,0,75.9,0c4.9,0,8.7,1.6,11.3,4.9c2.6,3.3,3.9,7.9,4,14.1V27.4z M82.2,18.1
		c0-3.8-0.5-6.5-1.5-8.2c-1-1.7-2.6-2.6-4.8-2.6c-2.1,0-3.7,0.8-4.7,2.5c-1,1.6-1.5,4.2-1.6,7.7v11.1c0,3.7,0.5,6.5,1.5,8.3
		c1,1.8,2.6,2.7,4.8,2.7c2.2,0,3.8-0.9,4.7-2.6c1-1.7,1.5-4.4,1.5-7.9V18.1z"/>
	<path fill="#B9CBD1" d="M95.3,9.4c0-2.8,0.9-5.1,2.7-6.8C99.8,0.9,102.1,0,105,0c3,0,5.3,0.9,7.1,2.6c1.8,1.7,2.7,4,2.7,7v2.3
		c0,2.8-0.9,5.1-2.7,6.8c-1.8,1.7-4.2,2.6-7.1,2.6c-2.9,0-5.3-0.9-7.1-2.6c-1.8-1.7-2.7-4-2.7-7V9.4z M101.2,11.9
		c0,1.3,0.4,2.3,1.1,3c0.7,0.8,1.6,1.1,2.8,1.1c1.2,0,2.1-0.4,2.8-1.2c0.7-0.8,1-1.8,1-3.1V9.4c0-1.3-0.3-2.3-1-3
		c-0.7-0.8-1.6-1.2-2.8-1.2c-1.1,0-2.1,0.4-2.8,1.1c-0.7,0.8-1.1,1.8-1.1,3.2V11.9z M106.9,42.8l-4.4-2.4l22-35.6l4.4,2.4
		L106.9,42.8z M116.8,35c0-2.8,0.9-5.1,2.7-6.8c1.8-1.7,4.2-2.6,7.1-2.6c2.9,0,5.3,0.8,7.1,2.5c1.8,1.7,2.7,4,2.7,7v2.3
		c0,2.8-0.9,5-2.7,6.8c-1.8,1.7-4.1,2.6-7.1,2.6c-3,0-5.4-0.9-7.2-2.6c-1.8-1.7-2.7-4-2.7-6.9V35z M122.8,37.5c0,1.2,0.4,2.1,1.1,3
		c0.7,0.8,1.7,1.2,2.8,1.2c2.5,0,3.8-1.4,3.8-4.2V35c0-1.3-0.4-2.3-1.1-3c-0.7-0.8-1.6-1.1-2.8-1.1c-1.2,0-2.1,0.4-2.8,1.1
		c-0.7,0.8-1.1,1.8-1.1,3.1V37.5z"/>
</g>
</svg>
