<?xml version="1.0" encoding="utf-8"?>
<!-- Generator: Adobe Illustrator 18.1.1, SVG Export Plug-In . SVG Version: 6.00 Build 0)  -->
<svg version="1.1" id="Слой_1" xmlns="http://www.w3.org/2000/svg" xmlns:xlink="http://www.w3.org/1999/xlink" x="0px" y="0px"
	 viewBox="0 0 78.9 45.8" enable-background="new 0 0 78.9 45.8" xml:space="preserve">
<g>
	<path fill="#B9CBD1" d="M73.1,6.3C69.2,2.1,64.3,0,58.2,0c-3.8,0-7.4,0.9-10.5,3c-6.9,4.8-13,20.5-15.9,24.6
		c-4.3,6-6.5,8.4-10.4,8.4c-3.1,0-5.6-1.2-7.3-3.5c-1.8-2.3-2.7-5.4-2.7-9.2c0-4.4,0.9-7.7,2.8-10c1.8-2.3,4.2-3.5,7.2-3.5
		c1.8,0,3.6,0.5,5.2,1.5c1.6,1,4,3.8,5.3,5.8l0.4,0.4c0,0,0.6-0.8,1.1-1.8c1-2,3-5.8,3.6-6.9c0.1-0.2,0.1-0.5-0.1-0.6
		c-1.7-2.1-3.5-3.9-5.5-5.2C28,1,24.5,0,20.7,0c-4,0-7.6,1-10.8,2.9C6.8,4.9,4.3,7.6,2.6,11C0.9,14.5,0,18.3,0,22.5V23
		c0,6.8,1.9,12.2,5.8,16.5c3.8,4.2,8.9,6.3,15,6.3c16.3,0,26-28,27.2-29.9c2.6-4.1,5.8-6.1,9.5-6.1c3,0,5.4,1.2,7.2,3.5
		c1.8,2.3,2.8,5.4,2.8,9.2c0,4.3-0.9,7.6-2.7,10C63,34.8,60.6,36,57.5,36c-1.5,0-2.9-0.4-4.2-1.1c-1.3-0.7-2.5-1.7-3.6-3
		c-0.7-0.8-1.3-1.7-1.9-2.7l-1-1.8l-1,1.8c-1,1.9-1.7,3.5-2.8,5.4c-0.4,0.7-0.8,1.4-1.3,2.1c0,0,0,0,0,0c0.4,0.6,0.9,1.2,1.4,1.8
		c4.1,4.9,9.1,7.4,15.1,7.4c4,0,7.6-1,10.8-2.9c3.2-1.9,5.6-4.6,7.4-8c1.8-3.4,2.7-7.3,2.7-11.6C78.9,16.2,77,10.5,73.1,6.3z"/>
</g>
</svg>
