<?xml version="1.0" encoding="utf-8"?>
<!-- Generator: Adobe Illustrator 18.0.0, SVG Export Plug-In . SVG Version: 6.00 Build 0)  -->
<!DOCTYPE svg PUBLIC "-//W3C//DTD SVG 1.1//EN" "http://www.w3.org/Graphics/SVG/1.1/DTD/svg11.dtd">
<svg version="1.1" id="Слой_1" xmlns="http://www.w3.org/2000/svg" xmlns:xlink="http://www.w3.org/1999/xlink" x="0px" y="0px"
	 viewBox="0 0 103 76.6" enable-background="new 0 0 103 76.6" xml:space="preserve">
<g opacity="5.000000e-002">
	<g>
		<path d="M102.2,52.8L83,33.6c-0.9-0.9-1.9-1.1-3-0.6c-1.2,0.5-1.7,1.3-1.7,2.6v9.8c-6.9,1.2-13.6,3.8-18.3,6.5
			c-4.6,2.7-9.1,6.3-11.7,8.9c-2.6,2.7-4.9,5.7-5.7,6.9c-0.4,0.6-0.7,1.1-0.8,1.3c-0.7,1.2-0.5,2.5,0.5,3.4c0.9,0.8,2.4,1,3.4,0.3
			c0.2-0.2,2-1.3,5.9-3c2-0.9,4.1-1.7,6.5-2.5c2.4-0.8,5.2-1.5,8.5-2.1c3.3-0.6,6.6-0.9,9.8-0.9h1.9v9.5c0,1.2,0.6,2,1.7,2.6
			c0.4,0.1,0.8,0.2,1.1,0.2c0.8,0,1.4-0.3,2-0.8l19.2-19.1C103.2,55.7,103.2,53.9,102.2,52.8L102.2,52.8z M83.8,67.1v-5.4
			c0-1.5-1.1-2.7-2.6-2.8c-1.1-0.2-2.7-0.2-4.8-0.2c-7.2,0-14.5,1.2-21.6,3.7c7.8-6.6,16.7-10.6,26.7-11.9c1.4-0.2,2.4-1.3,2.4-2.8
			v-5.5l12.4,12.5L83.8,67.1z M83.8,67.1"/>
	</g>
	<path d="M5.6,70.5V14.6l38.9,39.7c0.5,0.6,1.2,0.8,2,0.8h0.1c0.9,0,1.5-0.3,2.1-0.8l38.8-39.7v12c0,1.5,1.2,2.8,2.8,2.8l0,0
		c1.5,0,2.8-1.2,2.8-2.8V6.2c0-3.4-2.8-6.2-6.2-6.2H6.1C4.4,0,2.9,0.6,1.8,1.8C0.6,3,0,4.5,0,6.2l0,64.2c0,1.5,0.4,2.9,1.4,4.1
		c1.2,1.5,2.8,2.2,4.7,2.2h26.8c1.5,0,2.8-1.3,2.8-2.8v0c0-1.5-1.3-2.8-2.8-2.8H6.1C5.7,71,5.6,70.9,5.6,70.5L5.6,70.5z M5.6,6.2
		c0-0.4,0.1-0.6,0.5-0.6h80.7c0.4,0,0.5,0.2,0.5,0.6v0.5L46.5,48.5L5.6,6.7V6.2z M5.6,6.2"/>
</g>
</svg>
