<?xml version="1.0" encoding="utf-8"?>
<!-- Generator: Adobe Illustrator 18.0.0, SVG Export Plug-In . SVG Version: 6.00 Build 0)  -->
<!DOCTYPE svg PUBLIC "-//W3C//DTD SVG 1.1//EN" "http://www.w3.org/Graphics/SVG/1.1/DTD/svg11.dtd">
<svg version="1.1" id="Слой_1" xmlns="http://www.w3.org/2000/svg" xmlns:xlink="http://www.w3.org/1999/xlink" x="0px" y="0px"
	 viewBox="0 0 23.2 18.5" enable-background="new 0 0 23.2 18.5" xml:space="preserve">
<path id="XMLID_1_" fill="#43BDEF" d="M23.2,2.2c-0.9,0.4-1.8,0.6-2.7,0.7c1-0.6,1.7-1.5,2.1-2.6c-0.9,0.5-1.9,0.9-3,1.1
	C18.7,0.6,17.4,0,16.1,0c-2.6,0-4.8,2.1-4.8,4.7c0,0.4,0,0.7,0.1,1.1C7.5,5.6,4,3.7,1.6,0.9C1.2,1.5,1,2.4,1,3.2
	c0,1.6,0.8,3.1,2.1,3.9c-0.8,0-1.5-0.2-2.2-0.6c0,0,0,0,0,0.1c0,0.6,0.1,1.2,0.3,1.7c0.6,1.5,1.9,2.6,3.5,2.9
	c-0.4,0.1-0.8,0.2-1.3,0.2c-0.3,0-0.6,0-0.9-0.1C3.2,13.1,5,14.5,7,14.5c-1.6,1.3-3.7,2-5.9,2c-0.4,0-0.8,0-1.1-0.1
	c2.1,1.3,4.6,2.1,7.3,2.1c7.4,0,12-5.2,13.2-10.5c0.2-0.9,0.3-1.9,0.3-2.8c0-0.2,0-0.4,0-0.6C21.7,4,22.6,3.1,23.2,2.2z"/>
</svg>
