<?xml version="1.0" encoding="utf-8"?>
<!-- Generator: Adobe Illustrator 18.0.0, SVG Export Plug-In . SVG Version: 6.00 Build 0)  -->
<!DOCTYPE svg PUBLIC "-//W3C//DTD SVG 1.1//EN" "http://www.w3.org/Graphics/SVG/1.1/DTD/svg11.dtd">
<svg version="1.1" id="Слой_1" xmlns="http://www.w3.org/2000/svg" xmlns:xlink="http://www.w3.org/1999/xlink" x="0px" y="0px"
	 viewBox="0 0 80.5 80.5" enable-background="new 0 0 80.5 80.5" xml:space="preserve">
<g>
	<g>
		<line fill="none" stroke="#B9CBD1" stroke-miterlimit="10" x1="67.9" y1="68.4" x2="12.1" y2="12.6"/>
		<line fill="none" stroke="#B9CBD1" stroke-miterlimit="10" x1="68.4" y1="12.6" x2="12.6" y2="68.4"/>
		<line fill="none" stroke="#B9CBD1" stroke-miterlimit="10" x1="39.9" y1="70.7" x2="39.9" y2="9.8"/>
		<line fill="none" stroke="#B9CBD1" stroke-miterlimit="10" x1="70.7" y1="40.6" x2="9.8" y2="40.6"/>
		<g>
			<circle fill="#FFFFFF" stroke="#B9CBD1" stroke-width="2" stroke-miterlimit="10" cx="9.7" cy="9.7" r="8.7"/>
			<circle fill="#FFFFFF" stroke="#B9CBD1" stroke-width="2" stroke-miterlimit="10" cx="70.7" cy="70.7" r="8.7"/>
			<circle fill="#FFFFFF" stroke="#B9CBD1" stroke-width="2" stroke-miterlimit="10" cx="9.7" cy="70.7" r="8.7"/>
			<circle fill="#FFFFFF" stroke="#B9CBD1" stroke-width="2" stroke-miterlimit="10" cx="70.7" cy="9.7" r="8.7"/>
		</g>
		<g>
			<circle fill="#FFFFFF" stroke="#B9CBD1" stroke-miterlimit="10" cx="7.3" cy="40.2" r="6.7"/>
			<circle fill="#FFFFFF" stroke="#B9CBD1" stroke-miterlimit="10" cx="73.2" cy="40.2" r="6.7"/>
			<circle fill="#FFFFFF" stroke="#B9CBD1" stroke-miterlimit="10" cx="40.2" cy="73.2" r="6.7"/>
			<circle fill="#FFFFFF" stroke="#B9CBD1" stroke-miterlimit="10" cx="40.2" cy="7.3" r="6.7"/>
		</g>
		<path fill="#FFFFFF" stroke="#B9CBD1" stroke-miterlimit="10" d="M34.9,58.1c-0.5-0.3-1-0.6-1.4-1L20.1,43.6
			c-1.9-1.9-1.9-4.9,0-6.7l13.4-13.4c0.4-0.4,0.9-0.8,1.4-1c4.6-2.3,9.6-1.4,12.9,1.8l12.6,12.6c1.9,1.9,1.9,4.9,0,6.7L47.8,56.2
			C44.5,59.5,39.6,60.4,34.9,58.1z"/>
		<path fill="#B9CBD1" d="M34.7,28.5l-6.3,6.3c-3,3-3,8,0,11l6.3,6.3c3,3,8,3,11,0l6.3-6.3c3-3,3-8,0-11l-6.3-6.3
			C42.7,25.4,37.8,25.4,34.7,28.5z"/>
	</g>
</g>
</svg>
