<?xml version="1.0" encoding="utf-8"?>
<!-- Generator: Adobe Illustrator 18.1.1, SVG Export Plug-In . SVG Version: 6.00 Build 0)  -->
<svg version="1.1" id="Слой_1" xmlns="http://www.w3.org/2000/svg" xmlns:xlink="http://www.w3.org/1999/xlink" x="0px" y="0px"
	 viewBox="0 0 115.7 115.7" enable-background="new 0 0 115.7 115.7" xml:space="preserve">
<line fill="none" stroke="#B9CBD1" stroke-miterlimit="10" x1="97.8" y1="98.5" x2="17.2" y2="17.9"/>
<line fill="none" stroke="#B9CBD1" stroke-miterlimit="10" x1="98.5" y1="17.9" x2="17.9" y2="98.5"/>
<line fill="none" stroke="#B9CBD1" stroke-miterlimit="10" x1="57.3" y1="101.8" x2="57.3" y2="13.8"/>
<line fill="none" stroke="#B9CBD1" stroke-miterlimit="10" x1="101.8" y1="58.3" x2="13.8" y2="58.3"/>
<g>
	<circle fill="#FFFFFF" stroke="#B9CBD1" stroke-width="2" stroke-miterlimit="10" cx="13.7" cy="13.7" r="12.7"/>
	<circle fill="#FFFFFF" stroke="#B9CBD1" stroke-width="2" stroke-miterlimit="10" cx="101.9" cy="101.9" r="12.7"/>
	<circle fill="#FFFFFF" stroke="#B9CBD1" stroke-width="2" stroke-miterlimit="10" cx="13.7" cy="101.9" r="12.7"/>
	<circle fill="#FFFFFF" stroke="#B9CBD1" stroke-width="2" stroke-miterlimit="10" cx="101.9" cy="13.7" r="12.7"/>
</g>
<g>
	<circle fill="#FFFFFF" stroke="#B9CBD1" stroke-miterlimit="10" cx="10.2" cy="57.8" r="9.7"/>
	<circle fill="#FFFFFF" stroke="#B9CBD1" stroke-miterlimit="10" cx="105.5" cy="57.8" r="9.7"/>
	<circle fill="#FFFFFF" stroke="#B9CBD1" stroke-miterlimit="10" cx="57.8" cy="105.5" r="9.7"/>
	<circle fill="#FFFFFF" stroke="#B9CBD1" stroke-miterlimit="10" cx="57.8" cy="10.2" r="9.7"/>
</g>
<path fill="#FFFFFF" stroke="#B9CBD1" stroke-miterlimit="10" d="M50.1,83.6c-0.8-0.4-1.4-0.9-2-1.5L28.6,62.7c-2.7-2.7-2.7-7,0-9.7
	l19.4-19.4c0.6-0.6,1.3-1.1,2-1.5c6.7-3.4,13.9-2.1,18.7,2.6L87,53c2.7,2.7,2.7,7,0,9.7L68.8,80.9C64.1,85.7,56.8,86.9,50.1,83.6z"
	/>
<path fill="#B9CBD1" d="M52.3,38.3l-14,14c-3,3-3,8,0,11l14,14c3,3,8,3,11,0l14-14c3-3,3-8,0-11l-14-14
	C60.3,35.3,55.4,35.3,52.3,38.3z"/>
</svg>
