<?xml version="1.0" encoding="utf-8"?>
<!-- Generator: Adobe Illustrator 18.1.1, SVG Export Plug-In . SVG Version: 6.00 Build 0)  -->
<svg version="1.1" id="Ğ¡Ğ»Ğ¾Ğ¹_1" xmlns="http://www.w3.org/2000/svg" xmlns:xlink="http://www.w3.org/1999/xlink" x="0px" y="0px"
	 viewBox="0 0 86.3 104.4" enable-background="new 0 0 86.3 104.4" xml:space="preserve">
<g>
	<path fill="#B9CBD1" d="M81.1,0L19.2,0C16.4,0,14,2.3,14,5.2l0,70.2l18.6,17.5l48.5,0c2.8,0,5.2-2.3,5.2-5.2l0-82.6
		C86.3,2.3,84,0,81.1,0z"/>
	<path fill="#FFFFFF" stroke="#B9CBD1" stroke-width="2" stroke-miterlimit="10" d="M6.2,103.4h61.9c2.8,0,5.2-2.3,5.2-5.2V28.1
		L54.7,10.6H6.2c-2.8,0-5.2,2.3-5.2,5.2v82.6C1,101.1,3.3,103.4,6.2,103.4z"/>
	<text transform="matrix(1 0 0 1 22 73)" fill="#B9CBD1" font-family="'Raleway-Bold'" font-size="43.2374">.js</text>
	<path fill="none" stroke="#B9CBD1" stroke-width="2" stroke-miterlimit="10" d="M73.3,29.1c0,0-10.5,0.3-16.1,0.1
		c-2-0.1-3.6-1.7-3.6-3.7v-14"/>
</g>
</svg>
