<?xml version="1.0" encoding="utf-8"?>
<!-- Generator: Adobe Illustrator 18.1.1, SVG Export Plug-In . SVG Version: 6.00 Build 0)  -->
<svg version="1.1" id="Слой_1" xmlns="http://www.w3.org/2000/svg" xmlns:xlink="http://www.w3.org/1999/xlink" x="0px" y="0px"
	 viewBox="0 0 39.1 39.1" enable-background="new 0 0 39.1 39.1" xml:space="preserve">
<g>
	<circle id="XMLID_17_" fill="#4C75A3" cx="19.6" cy="19.6" r="19.6"/>
	<path fill="#FFFFFF" d="M30.9,13.3C30.6,13,29.3,13,28.1,13c-1.2,0-2.5,0-2.8,0.1c-0.3,0.1-0.9,1.5-1.6,3c-0.9,1.7-1.9,3.3-2.6,3.3
		c-0.9,0-0.7-2.8-0.6-4.8c0-1.3-0.2-1.7-0.4-1.9c-0.5-0.3-1.8-0.6-1.8-0.6s-3.8-0.3-4.4,1.4c0.7,0.1,2-0.1,1.5,5
		c0,0.2-0.6,2.4-2.4-0.5c-0.4-0.7-2.2-5-2.8-5c-2-0.1-3.9-0.1-4.6,0.3c-0.6,0.4,0.9,3.3,3.4,7.3c2.1,3.2,4.2,5.8,8,6.4
		c0.7,0.1,2.6,0.2,3.1-0.1c0.4-0.2-0.1-3,1.3-3.3c0.6-0.1,2.9,2.9,3.8,3.3c0.5,0.2,1.7,0.3,2.9,0.3c1.3,0,2.7,0.1,2.9-0.8
		c0.3-1.9-3.9-4.4-4-5.6c-0.1-0.9,1.5-2.4,2.4-3.6C30.4,15.6,31.5,13.8,30.9,13.3z"/>
</g>
</svg>
