<?xml version="1.0" encoding="utf-8"?>
<!-- Generator: Adobe Illustrator 18.0.0, SVG Export Plug-In . SVG Version: 6.00 Build 0)  -->
<!DOCTYPE svg PUBLIC "-//W3C//DTD SVG 1.1//EN" "http://www.w3.org/Graphics/SVG/1.1/DTD/svg11.dtd">
<svg version="1.1" id="Слой_1" xmlns="http://www.w3.org/2000/svg" xmlns:xlink="http://www.w3.org/1999/xlink" x="0px" y="0px"
	 viewBox="0 0 15 19.3" enable-background="new 0 0 15 19.3" xml:space="preserve">
<path fill="#FFFFFF" d="M12.3,6.6c0.4-0.4,1.1-0.4,1.5,0c0.4,0.4,0.4,1.1,0,1.5l-6,5.9c-0.4,0.4-1.1,0.4-1.5,0l-6-5.9
	c-0.4-0.4-0.4-1.1,0-1.5c0.4-0.4,1.1-0.4,1.5,0l5.2,4.8L12.3,6.6z"/>
<path fill="#FFFFFF" d="M1.4,19.3h12.2c0.8,0,1.4-0.6,1.4-1.4v0c0-0.8-0.6-1.4-1.4-1.4H1.4C0.6,16.6,0,17.2,0,18v0
	C0,18.7,0.6,19.3,1.4,19.3z"/>
<path fill="#FFFFFF" d="M8.3,11.3l0-10.2C8.3,0.5,7.8,0,7.1,0l0,0C6.5,0,6,0.5,6,1.1l0,10.2c0,0.6,0.5,1.1,1.1,1.1h0
	C7.8,12.5,8.3,11.9,8.3,11.3z"/>
</svg>
