<?xml version="1.0" encoding="utf-8"?>
<!-- Generator: Adobe Illustrator 18.0.0, SVG Export Plug-In . SVG Version: 6.00 Build 0)  -->
<!DOCTYPE svg PUBLIC "-//W3C//DTD SVG 1.1//EN" "http://www.w3.org/Graphics/SVG/1.1/DTD/svg11.dtd">
<svg version="1.1" id="Слой_1" xmlns="http://www.w3.org/2000/svg" xmlns:xlink="http://www.w3.org/1999/xlink" x="0px" y="0px"
	 viewBox="0 0 30 30" enable-background="new 0 0 30 30" xml:space="preserve">
<g>
	<path fill="#CCCCCC" d="M15,0C6.7,0,0,6.7,0,15c0,8.3,6.7,15,15,15c8.3,0,15-6.7,15-15C30,6.7,23.3,0,15,0L15,0z M22.9,21.9
		l-1.2,1.2c-0.2,0.2-0.8,0.3-0.9,0.3c-3.8,0-7.5-1.5-10.1-4.1C8,16.6,6.5,12.9,6.6,9.1c0,0,0.1-0.6,0.4-0.8l1.2-1.2
		C8.6,6.6,9.4,6.4,10,6.6l0.3,0.1c0.6,0.2,1.2,0.8,1.4,1.5l0.6,2.2c0.2,0.6-0.1,1.5-0.5,1.9l-0.8,0.8c0.8,2.9,3.1,5.2,6,6l0.8-0.8
		c0.4-0.4,1.3-0.7,1.9-0.5l2.2,0.6c0.6,0.2,1.3,0.8,1.5,1.4l0.1,0.3C23.6,20.6,23.4,21.4,22.9,21.9L22.9,21.9z M22.9,21.9"/>
</g>
</svg>
