<?xml version="1.0" encoding="utf-8"?>
<!-- Generator: Adobe Illustrator 18.0.0, SVG Export Plug-In . SVG Version: 6.00 Build 0)  -->
<!DOCTYPE svg PUBLIC "-//W3C//DTD SVG 1.1//EN" "http://www.w3.org/Graphics/SVG/1.1/DTD/svg11.dtd">
<svg version="1.1" id="Слой_1" xmlns="http://www.w3.org/2000/svg" xmlns:xlink="http://www.w3.org/1999/xlink" x="0px" y="0px"
	 viewBox="0 0 38 45.5" enable-background="new 0 0 38 45.5" xml:space="preserve">
<g>
	<path fill="none" stroke="#B3B3B3" stroke-miterlimit="10" d="M8.5,3.5h24.9c2.2,0,4,1.8,4,4V41c0,2.2-1.8,4-4,4H8.5
		c-2.2,0-4-1.8-4-4V7.5C4.5,5.3,6.3,3.5,8.5,3.5z"/>
	<path fill="#FFFFFF" stroke="#B3B3B3" stroke-miterlimit="10" d="M4.5,0.5h24.9c2.2,0,4,1.8,4,4V38c0,2.2-1.8,4-4,4H4.5
		c-2.2,0-4-1.8-4-4V4.5C0.5,2.3,2.3,0.5,4.5,0.5z"/>
	<text transform="matrix(1 0 0 1 15.2246 36.4052)" fill="#B3B3B3" font-family="'Raleway-Regular'" font-size="13.2">JS</text>
</g>
</svg>
