<?xml version="1.0" encoding="utf-8"?>
<!-- Generator: Adobe Illustrator 18.0.0, SVG Export Plug-In . SVG Version: 6.00 Build 0)  -->
<!DOCTYPE svg PUBLIC "-//W3C//DTD SVG 1.1//EN" "http://www.w3.org/Graphics/SVG/1.1/DTD/svg11.dtd">
<svg version="1.1" id="Слой_1" xmlns="http://www.w3.org/2000/svg" xmlns:xlink="http://www.w3.org/1999/xlink" x="0px" y="0px"
	 viewBox="0 0 30 30" enable-background="new 0 0 30 30" xml:space="preserve">
<g>
	<path fill="#CCCCCC" d="M15.2,11.7c1.3,0.1,2.1,1.1,2.1,1.1c0.4,0.5,1.1,0.6,1.6,0.2c0.5-0.4,0.6-1.1,0.3-1.7
		c-0.1-0.1-1.5-2.1-4-2.1c-4,0-4.3,2.5-4.3,3.2c0,2.4,2.3,3,3.8,3.3c1.8,0.4,2.2,0.8,2.2,1.3c0,0.4-0.4,0.9-2,0.8
		c-1.3,0-2.3-1.1-2.3-1.1c-0.4-0.5-1.2-0.6-1.7-0.2s-0.6,1.2-0.2,1.7c0.1,0.1,1.6,2,4.1,2c0.8,0,1.7,0,2.6-0.4
		c1.2-0.5,1.8-1.5,1.8-2.8c0-2.6-2.4-3.2-4-3.6c-1.7-0.4-2-0.6-2-1.1C13.3,12,14.3,11.6,15.2,11.7z"/>
	<path fill="#CCCCCC" d="M15,0C6.7,0,0,6.7,0,15s6.7,15,15,15c8.3,0,15-6.7,15-15S23.3,0,15,0z M20.4,22.4c-0.5,0-0.9,0-1.3-0.1
		c-0.5-0.1-1-0.1-1.4,0.1c-0.8,0.3-1.8,0.5-2.7,0.5c-4.3,0-7.9-3.5-7.9-7.9v0c0-0.5-0.1-1-0.4-1.4C6.2,12.9,6,12.1,6,11.2
		c0.1-1.9,1.6-3.5,3.6-3.6c0.5,0,0.9,0,1.3,0.1c0.5,0.1,1,0.1,1.4-0.1c0.8-0.3,1.8-0.5,2.7-0.5c4.3,0,7.9,3.5,7.9,7.9c0,0,0,0,0,0
		c0,0.5,0.1,1,0.4,1.4c0.5,0.7,0.8,1.5,0.7,2.4C23.9,20.7,22.4,22.3,20.4,22.4z"/>
</g>
</svg>
