<?xml version="1.0" encoding="utf-8"?>
<!-- Generator: Adobe Illustrator 18.1.1, SVG Export Plug-In . SVG Version: 6.00 Build 0)  -->
<svg version="1.1" id="Слой_1" xmlns="http://www.w3.org/2000/svg" xmlns:xlink="http://www.w3.org/1999/xlink" x="0px" y="0px"
	 viewBox="0 0 191.1 139.3" enable-background="new 0 0 191.1 139.3" xml:space="preserve">
<g>
	<path fill="#E8EFF2" stroke="#B9CBD1" stroke-width="2" stroke-miterlimit="10" d="M190.1,5.5c0-2.4-1.4-4.5-3.7-4.5H6.1
		c-2.3,0-5,2.2-5,4.5V7h189V5.5z"/>
	<path fill="#FFFFFF" stroke="#B9CBD1" stroke-width="2.0494" stroke-miterlimit="10" d="M110.6,15.9L108,7.7
		c-0.3-0.6-0.8-0.9-1.5-0.9H71.9c-0.9,0-1.6,0.8-1.6,1.7v11.8"/>
	<path fill="#FFFFFF" stroke="#B9CBD1" stroke-width="2.0494" stroke-miterlimit="10" d="M76.3,15.9l-2.7-8.2
		c-0.3-0.6-0.8-0.9-1.5-0.9H37.6c-0.9,0-1.6,0.8-1.6,1.7v11.8"/>
	<g>
		<path fill="#FFFFFF" d="M4.3,138.3c-1.8,0-3.3-1.5-3.3-3.3L1.3,6.8c0-0.4,0.3-0.6,0.6-0.6h34.6c0.2,0,0.4,0.1,0.5,0.3l2.6,7.4
			h150.4V135c0,1.8-1.5,3.3-3.3,3.3H4.3z"/>
		<path fill="#B9CBD1" d="M36.2,7.2l2.3,6.3l0.5,1.3h1.4h148.7V135c0,1.3-1,2.3-2.3,2.3H4.3c-1.3,0-2.3-1-2.3-2.3L2.3,7.2H36.2
			 M36.5,5.2H1.9C1,5.2,0.3,5.9,0.3,6.8L0,135c0,2.4,1.9,4.3,4.3,4.3h182.5c2.4,0,4.3-1.9,4.3-4.3V12.9H40.4l-2.4-6.8
			C37.7,5.6,37.1,5.2,36.5,5.2L36.5,5.2z"/>
	</g>
	<line fill="none" stroke="#B9CBD1" stroke-width="2" stroke-miterlimit="10" x1="190.1" y1="7" x2="190.1" y2="14"/>
	<circle fill="#B9CBD1" cx="187" cy="17.9" r="0.8"/>
	<circle fill="#B9CBD1" cx="187" cy="21.1" r="0.8"/>
	<circle fill="#B9CBD1" cx="187" cy="24.3" r="0.8"/>
	<line fill="#FFFFFF" stroke="#B9CBD1" stroke-width="2" stroke-miterlimit="10" x1="191.1" y1="28" x2="1.1" y2="28"/>
	<path fill="#FFFFFF" stroke="#B9CBD1" stroke-width="0.9987" stroke-miterlimit="10" d="M5.3,16.1h157.9c0.5,0,0.8,0.4,0.8,0.8v7.2
		c0,0.5-0.4,0.8-0.8,0.8H5.3c-0.5,0-0.8-0.4-0.8-0.8V17C4.4,16.5,4.8,16.1,5.3,16.1z"/>
	<rect x="4.4" y="9.9" opacity="0.3" fill="#B9CBD1" width="27.6" height="2.1"/>
	<rect x="43" y="8.8" opacity="0.3" fill="#B9CBD1" width="13" height="2.1"/>
	<rect x="79.4" y="8.8" opacity="0.3" fill="#B9CBD1" width="20.3" height="2.1"/>
</g>
<rect x="16.1" y="45" fill="#B9CBD1" stroke="#FFFFFF" stroke-width="2" stroke-miterlimit="10" width="58" height="4"/>
<rect x="16.1" y="59" fill="#B9CBD1" stroke="#FFFFFF" stroke-width="2" stroke-miterlimit="10" width="58" height="4"/>
<rect x="16.1" y="73" fill="#B9CBD1" stroke="#FFFFFF" stroke-width="2" stroke-miterlimit="10" width="58" height="4"/>
<rect x="16.1" y="87" fill="#B9CBD1" stroke="#FFFFFF" stroke-width="2" stroke-miterlimit="10" width="58" height="4"/>
<rect x="83.1" y="45" fill="#B9CBD1" stroke="#FFFFFF" stroke-width="2" stroke-miterlimit="10" width="30" height="4"/>
<rect x="83.1" y="59" fill="#B9CBD1" stroke="#FFFFFF" stroke-width="2" stroke-miterlimit="10" width="30" height="4"/>
<rect x="83.1" y="73" fill="#B9CBD1" stroke="#FFFFFF" stroke-width="2" stroke-miterlimit="10" width="30" height="4"/>
<rect x="83.1" y="87" fill="#B9CBD1" stroke="#FFFFFF" stroke-width="2" stroke-miterlimit="10" width="30" height="4"/>
<rect x="16.1" y="100" fill="#FFFFFF" stroke="#B9CBD1" stroke-width="2" stroke-miterlimit="10" width="97" height="25"/>
<g>
	<path fill="#B9CBD1" d="M132.1,67h15c2.8,0,5-2.2,5-5V47c0-2.8-2.2-5-5-5h-15c-2.8,0-5,2.2-5,5v15C127.1,64.8,129.3,67,132.1,67z"
		/>
	<rect x="156.1" y="45" fill="#B9CBD1" width="22" height="2"/>
	<rect x="156.1" y="51" fill="#B9CBD1" width="22" height="2"/>
	<rect x="156.1" y="57" fill="#B9CBD1" width="22" height="2"/>
	<rect x="156.1" y="63" fill="#B9CBD1" width="22" height="2"/>
</g>
<g>
	<path fill="#B9CBD1" d="M132.1,96h15c2.8,0,5-2.2,5-5V76c0-2.8-2.2-5-5-5h-15c-2.8,0-5,2.2-5,5v15C127.1,93.8,129.3,96,132.1,96z"
		/>
	<rect x="156.1" y="74" fill="#B9CBD1" width="22" height="2"/>
	<rect x="156.1" y="80" fill="#B9CBD1" width="22" height="2"/>
	<rect x="156.1" y="86" fill="#B9CBD1" width="22" height="2"/>
	<rect x="156.1" y="92" fill="#B9CBD1" width="22" height="2"/>
</g>
<g>
	<path fill="#B9CBD1" d="M132.1,125h15c2.8,0,5-2.2,5-5v-15c0-2.8-2.2-5-5-5h-15c-2.8,0-5,2.2-5,5v15
		C127.1,122.8,129.3,125,132.1,125z"/>
	<rect x="156.1" y="103" fill="#B9CBD1" width="22" height="2"/>
	<rect x="156.1" y="109" fill="#B9CBD1" width="22" height="2"/>
	<rect x="156.1" y="115" fill="#B9CBD1" width="22" height="2"/>
	<rect x="156.1" y="121" fill="#B9CBD1" width="22" height="2"/>
</g>
</svg>
