<?xml version="1.0" encoding="utf-8"?>
<!-- Generator: Adobe Illustrator 18.0.0, SVG Export Plug-In . SVG Version: 6.00 Build 0)  -->
<!DOCTYPE svg PUBLIC "-//W3C//DTD SVG 1.1//EN" "http://www.w3.org/Graphics/SVG/1.1/DTD/svg11.dtd">
<svg version="1.1" id="Слой_1" xmlns="http://www.w3.org/2000/svg" xmlns:xlink="http://www.w3.org/1999/xlink" x="0px" y="0px"
	 viewBox="0 0 84 96.6" enable-background="new 0 0 84 96.6" xml:space="preserve">
<g>
	<g>
		<g>
			<path fill="#FFFFFF" stroke="#B9CBD1" stroke-width="2" stroke-miterlimit="10" d="M5.3,81.3c0,5.4,14.4,9.8,32.2,9.8
				s32.2-4.4,32.2-9.8c0-0.4,0.2-9.4,0-9.8c-2.1-4.8-15.9,0-32.2,0c-15.5,0-29.2-5.1-32.2-0.7C4.8,71.5,5.3,80.6,5.3,81.3z"/>
			<ellipse fill="#FFFFFF" stroke="#B9CBD1" stroke-width="2" stroke-miterlimit="10" cx="37.4" cy="70.8" rx="32.2" ry="9.8"/>
		</g>
		<path fill="#B9CBD1" d="M63.4,42.6c6.3,0,11.4-5.1,11.4-11.5c0-5.6-4.1-10.3-9.4-11.3c0.2-1.1,0.3-2.2,0.3-3.3
			C65.8,7.4,58.4,0,49.3,0c-7,0-12.9,4.3-15.4,10.4c-1.8-0.9-3.8-1.3-5.9-1.3c-6.7,0-12.2,4.7-13.5,11c-1-0.3-2-0.4-3-0.4
			C5.1,19.7,0,24.8,0,31.2s5.1,11.5,11.4,11.5H63.4z"/>
		<g>
			<path fill="#FFFFFF" stroke="#B9CBD1" stroke-width="2" stroke-miterlimit="10" d="M5.3,68.9c0,5.4,14.4,9.8,32.2,9.8
				s32.2-4.4,32.2-9.8c0-0.4,0.2-9.4,0-9.8c-2.1-4.8-15.9,0-32.2,0c-15.5,0-29.2-5.1-32.2-0.7C4.8,59,5.3,68.2,5.3,68.9z"/>
			<ellipse fill="#FFFFFF" stroke="#B9CBD1" stroke-width="2" stroke-miterlimit="10" cx="37.4" cy="58.4" rx="32.2" ry="9.8"/>
		</g>
		<g>
			<path fill="#FFFFFF" stroke="#B9CBD1" stroke-width="2" stroke-miterlimit="10" d="M5.3,56.4c0,5.4,14.4,9.8,32.2,9.8
				s32.2-4.4,32.2-9.8c0-0.4,0.2-9.4,0-9.8c-2.1-4.8-15.9,0-32.2,0c-15.5,0-29.2-5.1-32.2-0.7C4.8,46.5,5.3,55.7,5.3,56.4z"/>
			<ellipse fill="#FFFFFF" stroke="#B9CBD1" stroke-width="2" stroke-miterlimit="10" cx="37.4" cy="45.9" rx="32.2" ry="9.8"/>
		</g>
		<g>
			<path fill="#FFFFFF" stroke="#B9CBD1" stroke-width="2" stroke-miterlimit="10" d="M5.3,43.9c0,5.4,14.4,9.8,32.2,9.8
				s32.2-4.4,32.2-9.8c0-0.4,0.2-9.4,0-9.8c-2.1-4.8-15.9,0-32.2,0c-15.5,0-29.2-5.1-32.2-0.7C4.8,34.1,5.3,43.2,5.3,43.9z"/>
			<ellipse fill="#FFFFFF" stroke="#B9CBD1" stroke-width="2" stroke-miterlimit="10" cx="37.4" cy="33.4" rx="32.2" ry="9.8"/>
		</g>
		<g>
			<g>
				<polygon fill="#B9CBD1" points="50.9,96.6 37.2,82.9 37.2,63.5 50.9,49.8 70.3,49.8 84,63.5 84,82.9 70.3,96.6 				"/>
				<path fill="#FFFFFF" d="M67.4,56.8l9.6,9.6V80l-9.6,9.6H53.8L44.2,80V66.4l9.6-9.6H67.4 M69.5,51.8H51.7L39.2,64.4v17.7
					l12.5,12.5h17.7L82,82.1V64.4L69.5,51.8L69.5,51.8z"/>
			</g>
			<path fill="#FFFFFF" d="M66.1,79.5l-0.8,0c-0.2,0-0.3-0.1-0.3-0.3c0-0.2,0.1-0.3,0.3-0.3h2.4c1,0,1.7-0.8,1.7-1.7
				c0-1-0.8-1.7-1.7-1.7l-2.1,0c-0.2,0-0.3-0.1-0.3-0.3s0.1-0.3,0.3-0.3h3.2c0.9-0.1,1.6-0.8,1.6-1.7c0-1-0.8-1.7-1.7-1.7l-3.1,0
				c-0.2,0-0.3-0.1-0.3-0.3c0-0.2,0.1-0.3,0.3-0.3h2.2c0.9,0,1.7-0.8,1.7-1.7c0-1-0.8-1.7-1.7-1.7h-7c0.8-1.3,1.7-2.7,2-4.4
				c0.3-1.8-0.4-3.1-1.2-3.7c-0.9-0.7-1.9-0.2-1.9,0.5c0,2-1,4.6-6.3,9c-0.2,0.1-0.3,0.3-0.5,0.4c-1.4,1.4-2.3,3.4-2.3,5.5
				c0,4.3,3.5,7.8,7.8,7.8c0,0,0,0,0.1,0c0,0,0,0,0,0h7.7c0.9,0,1.6-0.7,1.6-1.6S66.9,79.5,66.1,79.5z"/>
		</g>
	</g>
</g>
</svg>
