<?xml version="1.0" encoding="utf-8"?>
<!-- Generator: Adobe Illustrator 18.1.1, SVG Export Plug-In . SVG Version: 6.00 Build 0)  -->
<svg version="1.1" id="Слой_1" xmlns="http://www.w3.org/2000/svg" xmlns:xlink="http://www.w3.org/1999/xlink" x="0px" y="0px"
	 viewBox="0 0 39.1 39.1" enable-background="new 0 0 39.1 39.1" xml:space="preserve">
<g>
	<circle id="XMLID_15_" fill="#43BDEF" cx="19.6" cy="19.6" r="19.6"/>
	<path id="XMLID_2_" fill="#FFFFFF" d="M31.2,12.5c-0.9,0.4-1.8,0.6-2.7,0.7c1-0.6,1.7-1.5,2.1-2.6c-0.9,0.5-1.9,0.9-3,1.1
		c-0.9-0.9-2.1-1.5-3.5-1.5c-2.6,0-4.8,2.1-4.8,4.7c0,0.4,0,0.7,0.1,1.1c-4-0.2-7.5-2.1-9.8-4.9C9.2,11.8,9,12.7,9,13.5
		c0,1.6,0.8,3.1,2.1,3.9c-0.8,0-1.5-0.2-2.2-0.6c0,0,0,0,0,0.1c0,0.6,0.1,1.2,0.3,1.7c0.6,1.5,1.9,2.6,3.5,2.9
		c-0.4,0.1-0.8,0.2-1.3,0.2c-0.3,0-0.6,0-0.9-0.1c0.6,1.9,2.4,3.2,4.4,3.3c-1.6,1.3-3.7,2-5.9,2c-0.4,0-0.8,0-1.1-0.1
		c2.1,1.3,4.6,2.1,7.3,2.1c7.4,0,12-5.2,13.2-10.5c0.2-0.9,0.3-1.9,0.3-2.8c0-0.2,0-0.4,0-0.6C29.7,14.3,30.5,13.4,31.2,12.5z"/>
</g>
</svg>
