<?xml version="1.0" encoding="utf-8"?>
<!-- Generator: Adobe Illustrator 18.0.0, SVG Export Plug-In . SVG Version: 6.00 Build 0)  -->
<!DOCTYPE svg PUBLIC "-//W3C//DTD SVG 1.1//EN" "http://www.w3.org/Graphics/SVG/1.1/DTD/svg11.dtd">
<svg version="1.1" id="Слой_1" xmlns="http://www.w3.org/2000/svg" xmlns:xlink="http://www.w3.org/1999/xlink" x="0px" y="0px"
	 viewBox="0 0 152.7 128.4" enable-background="new 0 0 152.7 128.4" xml:space="preserve">
<g id="XMLID_4_">
	<g>
		<line fill="none" stroke="#B7C9D0" stroke-miterlimit="10" x1="76.5" y1="97.9" x2="76.5" y2="28"/>
		<g>
			<circle fill="#FFFFFF" stroke="#B7C9D0" stroke-width="2" stroke-miterlimit="10" cx="77.2" cy="115.7" r="11.7"/>
			<line fill="none" stroke="#B7C9D0" stroke-miterlimit="10" x1="76.7" y1="56.7" x2="47.1" y2="93.4"/>
			<path fill="#FFFFFF" stroke="#B7C9D0" stroke-width="2" stroke-miterlimit="10" d="M35.7,94.3c-5.9,2.5-7.5,10-3.2,14.7
				c2.6,2.9,6.8,3.8,10.4,2.3c5.9-2.5,7.5-10,3.2-14.7C43.6,93.7,39.3,92.8,35.7,94.3z"/>
			<line fill="none" stroke="#B7C9D0" stroke-miterlimit="10" x1="65" y1="44.8" x2="26.7" y2="72.3"/>
			<circle fill="#FFFFFF" stroke="#B7C9D0" stroke-width="2" stroke-miterlimit="10" cx="16.7" cy="79.3" r="5.8"/>
			<line fill="none" stroke="#B7C9D0" stroke-miterlimit="10" x1="62.6" y1="36.9" x2="16.8" y2="47.8"/>
			<circle fill="#FFFFFF" stroke="#B7C9D0" stroke-width="2" stroke-miterlimit="10" cx="4.9" cy="50.6" r="3.9"/>
			<line fill="none" stroke="#B7C9D0" stroke-miterlimit="10" x1="76" y1="56.7" x2="105.6" y2="93.4"/>
			<path fill="#FFFFFF" stroke="#B7C9D0" stroke-width="2" stroke-miterlimit="10" d="M116.9,94.3c5.9,2.5,7.5,10,3.2,14.7
				c-2.6,2.9-6.8,3.8-10.4,2.3c-5.9-2.5-7.5-10-3.2-14.7C109.1,93.7,113.4,92.8,116.9,94.3z"/>
			<line fill="none" stroke="#B7C9D0" stroke-miterlimit="10" x1="87.7" y1="44.8" x2="126" y2="72.3"/>
			<circle fill="#FFFFFF" stroke="#B7C9D0" stroke-width="2" stroke-miterlimit="10" cx="135.9" cy="79.3" r="5.8"/>
			<line fill="none" stroke="#B7C9D0" stroke-miterlimit="10" x1="90.1" y1="36.9" x2="135.9" y2="47.8"/>
			<circle fill="#FFFFFF" stroke="#B7C9D0" stroke-width="2" stroke-miterlimit="10" cx="147.8" cy="50.6" r="3.9"/>
		</g>
		<path fill="#FFFFFF" stroke="#B7C9D0" stroke-miterlimit="10" d="M66.6,4.7L38.7,32.5c-5.6,5.6-5.6,14.6,0,20.2l27.8,27.8
			c5.6,5.6,14.6,5.6,20.2,0l27.8-27.8c5.6-5.6,5.6-14.6,0-20.2L86.7,4.7C81.2-0.9,72.1-0.9,66.6,4.7z"/>
		<path fill="#B7C9D0" d="M73.4,13.6L48.2,38.8c-2,2-2,5.3,0,7.3l25.2,25.2c2,2,5.3,2,7.3,0l25.2-25.2c2-2,2-5.3,0-7.3L80.7,13.6
			C78.7,11.5,75.4,11.5,73.4,13.6z"/>
	</g>
</g>
</svg>
