<?xml version="1.0" encoding="utf-8"?>
<!-- Generator: Adobe Illustrator 18.0.0, SVG Export Plug-In . SVG Version: 6.00 Build 0)  -->
<!DOCTYPE svg PUBLIC "-//W3C//DTD SVG 1.1//EN" "http://www.w3.org/Graphics/SVG/1.1/DTD/svg11.dtd">
<svg version="1.1" id="Слой_1" xmlns="http://www.w3.org/2000/svg" xmlns:xlink="http://www.w3.org/1999/xlink" x="0px" y="0px"
	 viewBox="0 0 145.2 99.5" enable-background="new 0 0 145.2 99.5" xml:space="preserve">
<g>
	<g>
		<ellipse opacity="0.2" fill="#B9CBD1" cx="69.5" cy="96" rx="69.5" ry="3.5"/>
		<g>
			<linearGradient id="SVGID_1_" gradientUnits="userSpaceOnUse" x1="69.2661" y1="72.9029" x2="69.2661" y2="-10.6849">
				<stop  offset="0" style="stop-color:#FFFFFF"/>
				<stop  offset="0.699" style="stop-color:#CCCCCC"/>
			</linearGradient>
			<path fill="url(#SVGID_1_)" fill-opacity="0.4" d="M34.5,75.8H104c8.3,0,15-6.7,15-15V15c0-8.3-6.7-15-15-15H34.5
				c-8.3,0-15,6.7-15,15v45.8C19.5,69.1,26.2,75.8,34.5,75.8z"/>
			<path fill="#FFFFFF" d="M30.2,70h76.1c3.9,0,7-3.1,7-7V25.8c0-3.9-3.1-7-7-7H30.2c-3.9,0-7,3.1-7,7V63C23.2,66.9,26.3,70,30.2,70
				z"/>
			
				<line fill="none" stroke="#39B54A" stroke-width="9" stroke-linecap="round" stroke-linejoin="round" stroke-miterlimit="10" x1="94" y1="35.4" x2="107.6" y2="47.4"/>
			
				<line fill="none" stroke="#39B54A" stroke-width="9" stroke-linecap="round" stroke-linejoin="round" stroke-miterlimit="10" x1="56.8" y1="44.4" x2="73.1" y2="56"/>
			<path fill="none" stroke="#39B54A" stroke-width="9" stroke-linecap="round" stroke-linejoin="round" stroke-miterlimit="10" d="
				M36.6,61.2"/>
			<g>
				
					<line fill="none" stroke="#39B54A" stroke-width="9" stroke-linecap="round" stroke-linejoin="round" stroke-miterlimit="10" x1="37.1" y1="61" x2="56.8" y2="44.4"/>
			</g>
			<g>
				
					<line fill="none" stroke="#39B54A" stroke-width="9" stroke-linecap="round" stroke-linejoin="round" stroke-miterlimit="10" x1="73.1" y1="56" x2="94" y2="35.4"/>
			</g>
			<g>
				
					<line fill="none" stroke="#39B54A" stroke-width="9" stroke-linecap="round" stroke-linejoin="round" stroke-miterlimit="10" x1="107.6" y1="47.4" x2="140.7" y2="17.2"/>
			</g>
			<g>
				
					<line fill="none" stroke="#39B54A" stroke-width="9" stroke-linecap="round" stroke-linejoin="round" stroke-miterlimit="10" x1="140.7" y1="31.8" x2="140.7" y2="17.2"/>
			</g>
			<g>
				
					<line fill="none" stroke="#39B54A" stroke-width="9" stroke-linecap="round" stroke-linejoin="round" stroke-miterlimit="10" x1="125.5" y1="17.2" x2="140.7" y2="17.2"/>
			</g>
		</g>
	</g>
</g>
</svg>
