<?xml version="1.0" encoding="utf-8"?>
<!-- Generator: Adobe Illustrator 18.0.0, SVG Export Plug-In . SVG Version: 6.00 Build 0)  -->
<!DOCTYPE svg PUBLIC "-//W3C//DTD SVG 1.1//EN" "http://www.w3.org/Graphics/SVG/1.1/DTD/svg11.dtd">
<svg version="1.1" id="Слой_1" xmlns="http://www.w3.org/2000/svg" xmlns:xlink="http://www.w3.org/1999/xlink" x="0px" y="0px"
	 viewBox="0 0 30 30" enable-background="new 0 0 30 30" xml:space="preserve">
<g>
	<path fill="#CCCCCC" d="M15,30c-1.4,0-2.7-0.2-4-0.5c-1.3-0.4-2.5-0.9-3.6-1.5c-1.1-0.7-2.1-1.4-3-2.3c-0.9-0.9-1.7-1.9-2.3-3
		c-0.7-1.1-1.2-2.3-1.5-3.6C0.2,17.7,0,16.4,0,15c0-1.4,0.2-2.7,0.5-4c0.4-1.3,0.9-2.5,1.5-3.6c0.6-1.1,1.4-2.1,2.3-3
		c0.9-0.9,1.9-1.7,3-2.3C8.5,1.4,9.7,0.9,11,0.5C12.3,0.2,13.6,0,15,0c2.1,0,4,0.4,5.8,1.2C22.7,2,24.3,3,25.6,4.4
		C27,5.7,28,7.3,28.8,9.2C29.6,11,30,12.9,30,15c0,1.4-0.2,2.7-0.5,4c-0.4,1.3-0.9,2.5-1.5,3.6c-0.7,1.1-1.4,2.1-2.3,3
		c-0.9,0.9-1.9,1.7-3,2.3c-1.1,0.7-2.3,1.2-3.6,1.5C17.7,29.8,16.4,30,15,30L15,30z M22.2,8.8H8c-0.1,0-0.3,0-0.4,0.1
		C7.5,9,7.5,9.2,7.5,9.3v1.6c0,0.1,0,0.1,0.1,0.1l7.5,4.3l0.1,0c0,0,0.1,0,0.1,0l7.2-4.3c0,0,0.1,0,0.1,0c0,0,0.1,0,0.1,0
		c0.1,0,0.1,0,0.1-0.1V9.3c0-0.2,0-0.3-0.2-0.4C22.5,8.9,22.4,8.8,22.2,8.8L22.2,8.8z M12,15.2C12,15.2,12.1,15.2,12,15.2
		c0-0.2,0-0.2,0-0.2l-4.3-2.5c-0.1,0-0.1,0-0.2,0c0,0-0.1,0-0.1,0.1v6.5c0,0.1,0,0.1,0.1,0.1h0.1c0,0,0.1,0,0.1,0L12,15.2z
		 M17.2,15.7c0-0.1-0.1-0.1-0.2,0l-1.7,1c-0.2,0.1-0.4,0.1-0.6,0l-1.4-0.8c-0.1,0-0.1,0-0.2,0l-5.5,5.1c0,0,0,0.1,0,0.1
		c0,0,0,0,0.1,0.1c0.1,0,0.2,0.1,0.2,0.1h14.1c0,0,0.1,0,0.1-0.1c0-0.1,0-0.1,0-0.2L17.2,15.7z M22.6,12.4h-0.1l-4.1,2.4
		c0,0-0.1,0-0.1,0.1c0,0,0,0.1,0,0.1l4.1,4.4c0,0,0.1,0.1,0.1,0.1h0.1c0.1-0.1,0.1-0.1,0.1-0.1v-6.8C22.7,12.5,22.7,12.5,22.6,12.4
		L22.6,12.4z M22.6,12.4"/>
</g>
</svg>
