<?xml version="1.0" encoding="utf-8"?>
<!-- Generator: Adobe Illustrator 18.1.1, SVG Export Plug-In . SVG Version: 6.00 Build 0)  -->
<svg version="1.1" id="Ğ¡Ğ»Ğ¾Ğ¹_1" xmlns="http://www.w3.org/2000/svg" xmlns:xlink="http://www.w3.org/1999/xlink" x="0px" y="0px"
	 viewBox="0 0 87 104.4" enable-background="new 0 0 87 104.4" xml:space="preserve">
<g>
	<g>
		<path fill="#B9CBD1" d="M81.1,0H19.2C16.4,0,14,2.3,14,5.2v70.2L32.6,93h48.5c2.8,0,4.9-2.4,4.9-5.3V5.2C86,2.3,84,0,81.1,0z"/>
		<path fill="#BACCD2" stroke="#B9CBD1" stroke-miterlimit="10" d="M32.3,93.5h48.7c2.8,0,5.6-2.8,5.6-5.6V5.5c0-2.8-2.9-5-5.7-5H19
			c-2.8,0-5.5,2-5.5,4.8v70.4C13.5,75.7,32.2,93.5,32.3,93.5z"/>
		<path fill="#BBCCD2" stroke="#B9CBD1" stroke-miterlimit="10" d="M31.9,93.5h48.9c2.8,0,4.7-2.6,4.7-5.5V5.8
			c0-2.8-2.3-5.3-5.1-5.3H18.8c-2.8,0-5.3,2.1-5.3,5V76C13.5,76.1,31.8,93.5,31.9,93.5z"/>
		<path fill="#BCCDD3" stroke="#B9CBD1" stroke-miterlimit="10" d="M31.5,93.5h49.1c2.8,0,4.9-2.5,4.9-5.3v-82
			c0-2.7-2.8-5.6-5.5-5.6H18.7c-2.8,0-5.2,2.3-5.2,5.1v70.7C13.5,76.4,31.4,93.5,31.5,93.5z"/>
		<path fill="#BDCED4" stroke="#B9CBD1" stroke-miterlimit="10" d="M31.1,93.5h49.3c2.8,0,5.1-2.3,5.1-5.2V6.5c0-2.7-3.2-6-5.9-6
			H18.5c-2.8,0-5,2.4-5,5.3v70.9C13.5,76.8,31,93.5,31.1,93.5z"/>
		<path fill="#BECFD4" stroke="#B9CBD1" stroke-miterlimit="10" d="M30.8,93.5h49.5c2.8,0,5.3-2.2,5.3-5V6.8c0-2.6-3.6-6.3-6.2-6.3
			h-61c-2.8,0-4.8,2.6-4.8,5.4V77C13.5,77.2,30.6,93.5,30.8,93.5z"/>
		<path fill="#BFCFD5" stroke="#B9CBD1" stroke-miterlimit="10" d="M30.4,93.5H80c2.8,0,5.5-2,5.5-4.9V7.1c0-2.6-4-6.6-6.6-6.6H18.1
			c-2.8,0-5.6,2.7-5.6,5.6v71.2C12.5,77.5,30.1,93.5,30.4,93.5z"/>
		<path fill="#C0D0D6" stroke="#B9CBD1" stroke-miterlimit="10" d="M30,93.5h49.8c2.8,0,5.7-1.9,5.7-4.7V7.4c0-2.6-4.4-5.9-7-5.9
			H17.9c-2.8,0-5.4,1.9-5.4,4.7v71.4C12.5,77.9,29.7,93.5,30,93.5z"/>
		<path fill="#C1D1D6" stroke="#B9CBD1" stroke-miterlimit="10" d="M29.6,94.5h50c2.8,0,4.8-2.7,4.8-5.6V7.7c0-2.5-3.8-6.2-6.4-6.2
			H17.7c-2.8,0-5.2,2-5.2,4.9v71.6C12.5,78.2,29.3,94.5,29.6,94.5z"/>
		<path fill="#C2D2D7" stroke="#B9CBD1" stroke-miterlimit="10" d="M29.3,94.5h50.2c2.8,0,5-2.6,5-5.4v-81c0-2.5-4.2-6.6-6.7-6.6
			H17.6c-2.8,0-5.1,2.1-5.1,5v71.7C12.5,78.6,28.9,94.5,29.3,94.5z"/>
		<path fill="#C3D2D7" stroke="#B9CBD1" stroke-miterlimit="10" d="M28.9,94.5h50.4c2.8,0,5.2-2.4,5.2-5.3V8.4
			c0-2.4-4.7-6.9-7.1-6.9h-60c-2.8,0-4.9,2.3-4.9,5.1v71.9C12.5,79,28.5,94.5,28.9,94.5z"/>
		<path fill="#C4D3D8" stroke="#B9CBD1" stroke-miterlimit="10" d="M28.5,94.5h50.6c2.8,0,5.4-2.3,5.4-5.1V8.7
			c0-2.4-5.1-7.2-7.5-7.2H17.2c-2.8,0-4.7,2.4-4.7,5.3v72.1C12.5,79.3,28.1,94.5,28.5,94.5z"/>
		<path fill="#C5D4D9" stroke="#B9CBD1" stroke-miterlimit="10" d="M28.2,94.5h50.8c2.8,0,5.6-2.1,5.6-5V9c0-2.4-5.5-7.5-7.8-7.5H17
			c-2.8,0-5.5,2.6-5.5,5.4v72.3C11.5,79.7,27.7,94.5,28.2,94.5z"/>
		<path fill="#C6D5D9" stroke="#B9CBD1" stroke-miterlimit="10" d="M27.8,94.5h51c2.8,0,4.8-2,4.8-4.8V9.4c0-2.3-4.9-7.9-7.2-7.9
			H16.8c-2.8,0-5.3,2.7-5.3,5.6v72.4C11.5,80.1,27.3,94.5,27.8,94.5z"/>
		<path fill="#C7D5DA" stroke="#B9CBD1" stroke-miterlimit="10" d="M27.4,94.5h51.2c2.8,0,4.9-1.8,4.9-4.7V9.7
			c0-2.3-5.3-7.2-7.6-7.2H16.6c-2.8,0-5.1,1.9-5.1,4.7v72.6C11.5,80.4,26.8,94.5,27.4,94.5z"/>
		<path fill="#C8D6DB" stroke="#B9CBD1" stroke-miterlimit="10" d="M27,95.5h51.3c2.8,0,5.1-2.7,5.1-5.5V10c0-2.2-5.7-7.5-8-7.5
			H16.5c-2.8,0-5,2-5,4.9v72.8C11.5,80.8,26.4,95.5,27,95.5z"/>
		<path fill="#C9D7DB" stroke="#B9CBD1" stroke-miterlimit="10" d="M26.7,95.5h51.5c2.8,0,5.3-2.5,5.3-5.4V10.3
			c0-2.2-6.1-7.8-8.3-7.8H16.3c-2.8,0-4.8,2.2-4.8,5v73C11.5,81.2,26,95.5,26.7,95.5z"/>
		<path fill="#CAD7DC" stroke="#B9CBD1" stroke-miterlimit="10" d="M26.3,95.5H78c2.8,0,5.5-2.4,5.5-5.2V10.7c0-2.2-6.5-8.2-8.7-8.2
			H16.1c-2.8,0-5.6,2.3-5.6,5.2v73.1C10.5,81.5,25.6,95.5,26.3,95.5z"/>
		<path fill="#CBD8DD" stroke="#B9CBD1" stroke-miterlimit="10" d="M25.9,95.5h51.9c2.8,0,4.7-2.2,4.7-5.1V11c0-2.1-6-8.5-8.1-8.5
			H15.9c-2.8,0-5.4,2.5-5.4,5.3v73.3C10.5,81.9,25.2,95.5,25.9,95.5z"/>
		<path fill="#CCD9DD" stroke="#B9CBD1" stroke-miterlimit="10" d="M25.5,95.5h52.1c2.8,0,4.9-2.1,4.9-5V11.3c0-2.1-6.4-8.8-8.5-8.8
			H15.7c-2.8,0-5.2,2.6-5.2,5.5v73.5C10.5,82.2,24.8,95.5,25.5,95.5z"/>
		<path fill="#CDDADE" stroke="#B9CBD1" stroke-miterlimit="10" d="M25.2,95.5h52.3c2.8,0,5-2,5-4.8V11.6c0-2-6.8-9.1-8.8-9.1H15.5
			c-2.8,0-5,2.8-5,5.6v73.7C10.5,82.6,24.4,95.5,25.2,95.5z"/>
		<path fill="#CEDADF" stroke="#B9CBD1" stroke-miterlimit="10" d="M24.8,96.5h52.5c2.8,0,5.2-2.8,5.2-5.7V11.9c0-2-7.2-8.4-9.2-8.4
			h-58c-2.8,0-4.8,1.9-4.8,4.8v73.8C10.5,83,24,96.5,24.8,96.5z"/>
		<path fill="#CFDBDF" stroke="#B9CBD1" stroke-miterlimit="10" d="M24.4,96.5h52.7c2.8,0,5.4-2.7,5.4-5.5V12.3c0-2-7.6-8.8-9.6-8.8
			H15.2c-2.8,0-4.7,2.1-4.7,4.9v74C10.5,83.3,23.5,96.5,24.4,96.5z"/>
		<path fill="#D0DCE0" stroke="#B9CBD1" stroke-miterlimit="10" d="M24.1,96.5h52.9c2.8,0,5.6-2.5,5.6-5.4V12.6c0-1.9-8-9.1-9.9-9.1
			H15c-2.8,0-5.5,2.2-5.5,5.1v74.2C9.5,83.7,23.1,96.5,24.1,96.5z"/>
		<path fill="#D1DDE1" stroke="#B9CBD1" stroke-miterlimit="10" d="M23.7,96.5h53c2.8,0,4.8-2.4,4.8-5.2V12.9c0-1.9-7.4-9.4-9.3-9.4
			H14.8c-2.8,0-5.3,2.4-5.3,5.2v74.4C9.5,84.1,22.7,96.5,23.7,96.5z"/>
		<path fill="#D2DDE1" stroke="#B9CBD1" stroke-miterlimit="10" d="M23.3,96.5h53.2c2.8,0,5-2.2,5-5.1V13.2c0-1.8-7.8-9.7-9.7-9.7
			H14.6c-2.8,0-5.1,2.5-5.1,5.4v74.5C9.5,84.4,22.3,96.5,23.3,96.5z"/>
		<path fill="#D3DEE2" stroke="#B9CBD1" stroke-miterlimit="10" d="M22.9,96.5h53.4c2.8,0,5.1-2.1,5.1-4.9v-78
			c0-1.8-8.3-10.1-10.1-10.1h-57c-2.8,0-4.9,2.7-4.9,5.5v74.7C9.5,84.8,21.9,96.5,22.9,96.5z"/>
		<path fill="#D4DFE2" stroke="#B9CBD1" stroke-miterlimit="10" d="M22.6,96.5h53.6c2.8,0,5.3-1.9,5.3-4.8V13.9
			c0-1.8-8.7-9.4-10.4-9.4H14.2c-2.8,0-4.7,1.8-4.7,4.7v74.9C9.5,85.1,21.5,96.5,22.6,96.5z"/>
		<path fill="#D5E0E3" stroke="#B9CBD1" stroke-miterlimit="10" d="M22.2,97.5H76c2.8,0,5.5-2.8,5.5-5.6V14.2
			c0-1.7-9.1-9.7-10.8-9.7H14.1c-2.8,0-5.6,2-5.6,4.8v75.1C8.5,85.5,21.1,97.5,22.2,97.5z"/>
		<path fill="#D6E0E4" stroke="#B9CBD1" stroke-miterlimit="10" d="M21.8,97.5h54c2.8,0,4.7-2.6,4.7-5.5V14.5c0-1.7-8.5-10-10.2-10
			H13.9c-2.8,0-5.4,2.1-5.4,5v75.2C8.5,85.9,20.7,97.5,21.8,97.5z"/>
		<path fill="#D7E1E4" stroke="#B9CBD1" stroke-miterlimit="10" d="M21.4,97.5h54.2c2.8,0,4.9-2.5,4.9-5.3V14.9
			c0-1.6-8.9-10.4-10.6-10.4H13.7c-2.8,0-5.2,2.3-5.2,5.1V85C8.5,86.2,20.2,97.5,21.4,97.5z"/>
		<path fill="#D8E2E5" stroke="#B9CBD1" stroke-miterlimit="10" d="M21.1,97.5h54.4c2.8,0,5.1-2.3,5.1-5.2V15.2
			c0-1.6-9.3-10.7-10.9-10.7H13.5c-2.8,0-5,2.4-5,5.3v75.6C8.5,86.6,19.8,97.5,21.1,97.5z"/>
		<path fill="#D9E2E6" stroke="#B9CBD1" stroke-miterlimit="10" d="M20.7,97.5h54.6c2.8,0,5.3-2.2,5.3-5v-77c0-1.6-9.7-11-11.3-11
			H13.3c-2.8,0-4.8,2.6-4.8,5.4v75.8C8.5,87,19.4,97.5,20.7,97.5z"/>
		<path fill="#DAE3E6" stroke="#B9CBD1" stroke-miterlimit="10" d="M20.3,97.5h54.7c2.8,0,5.4-2,5.4-4.9V15.8
			c0-1.5-10.1-11.3-11.7-11.3H13.1c-2.8,0-5.6,2.7-5.6,5.6V86C7.5,87.3,19,97.5,20.3,97.5z"/>
		<path fill="#DBE4E7" stroke="#B9CBD1" stroke-miterlimit="10" d="M20,97.5h54.9c2.8,0,5.6-1.9,5.6-4.7V16.1
			c0-1.5-10.6-10.6-12-10.6H13c-2.8,0-5.5,1.9-5.5,4.7v76.1C7.5,87.7,18.6,97.5,20,97.5z"/>
		<path fill="#DCE5E8" stroke="#B9CBD1" stroke-miterlimit="10" d="M19.6,98.5h55.1c2.8,0,4.8-2.7,4.8-5.6V16.5c0-1.4-10-11-11.4-11
			H12.8c-2.8,0-5.3,2-5.3,4.9v76.3C7.5,88.1,18.2,98.5,19.6,98.5z"/>
		<path fill="#DCE5E8" stroke="#B9CBD1" stroke-miterlimit="10" d="M19.2,98.5h55.3c2.8,0,5-2.6,5-5.4V16.8
			c0-1.4-10.4-11.3-11.8-11.3H12.6c-2.8,0-5.1,2.2-5.1,5V87C7.5,88.4,17.8,98.5,19.2,98.5z"/>
		<path fill="#DDE6E9" stroke="#B9CBD1" stroke-miterlimit="10" d="M18.8,98.5h55.5c2.8,0,5.2-2.4,5.2-5.3V17.1
			c0-1.4-10.8-11.6-12.2-11.6H12.4c-2.8,0-4.9,2.3-4.9,5.2v76.6C7.5,88.8,17.3,98.5,18.8,98.5z"/>
		<path fill="#DEE7EA" stroke="#B9CBD1" stroke-miterlimit="10" d="M18.5,98.5h55.7c2.8,0,5.4-2.3,5.4-5.1V17.4
			c0-1.3-11.2-11.9-12.5-11.9H12.2c-2.8,0-4.7,2.5-4.7,5.3v76.8C7.5,89.1,16.9,98.5,18.5,98.5z"/>
		<path fill="#DFE8EA" stroke="#B9CBD1" stroke-miterlimit="10" d="M18.1,98.5H74c2.8,0,5.5-2.1,5.5-5V17.8
			c0-1.3-11.6-12.3-12.9-12.3H12c-2.8,0-5.5,2.6-5.5,5.5v77C6.5,89.5,16.5,98.5,18.1,98.5z"/>
		<path fill="#E0E8EB" stroke="#B9CBD1" stroke-miterlimit="10" d="M17.7,98.5h56.1c2.8,0,4.7-2,4.7-4.8V18.1
			c0-1.2-11-12.6-12.3-12.6H11.9c-2.8,0-5.4,2.8-5.4,5.6v77.2C6.5,89.9,16.1,98.5,17.7,98.5z"/>
		<path fill="#E1E9EC" stroke="#B9CBD1" stroke-miterlimit="10" d="M17.3,98.5h56.3c2.8,0,4.9-1.8,4.9-4.7V18.4
			c0-1.2-11.4-11.9-12.7-11.9H11.7c-2.8,0-5.2,1.9-5.2,4.8v77.3C6.5,90.2,15.7,98.5,17.3,98.5z"/>
		<path fill="#E2EAEC" stroke="#B9CBD1" stroke-miterlimit="10" d="M17,99.5h56.4c2.8,0,5.1-2.7,5.1-5.5V18.7
			c0-1.2-11.9-12.2-13-12.2h-54c-2.8,0-5,2.1-5,4.9v77.5C6.5,90.6,15.3,99.5,17,99.5z"/>
		<path fill="#E3EAED" stroke="#B9CBD1" stroke-miterlimit="10" d="M16.6,99.5h56.6c2.8,0,5.3-2.5,5.3-5.4V19.1
			c0-1.1-12.3-12.6-13.4-12.6H11.3c-2.8,0-4.8,2.2-4.8,5.1v77.7C6.5,91,14.9,99.5,16.6,99.5z"/>
		<path fill="#E4EBEE" stroke="#B9CBD1" stroke-miterlimit="10" d="M16.2,99.5H73c2.8,0,5.5-2.4,5.5-5.2V19.4
			c0-1.1-12.7-12.9-13.8-12.9H11.1c-2.8,0-5.6,2.4-5.6,5.2v77.9C5.5,91.3,14.5,99.5,16.2,99.5z"/>
		<path fill="#E5ECEE" stroke="#B9CBD1" stroke-miterlimit="10" d="M15.9,99.5h57c2.8,0,5.6-2.2,5.6-5.1V19.7
			c0-1-13.1-13.2-14.1-13.2H10.9c-2.8,0-5.4,2.5-5.4,5.4v78C5.5,91.7,14,99.5,15.9,99.5z"/>
		<path fill="#E6EDEF" stroke="#B9CBD1" stroke-miterlimit="10" d="M15.5,99.5h57.2c2.8,0,4.8-2.1,4.8-4.9V20C77.5,19,65,6.5,64,6.5
			H10.8c-2.8,0-5.3,2.7-5.3,5.5v78.2C5.5,92,13.6,99.5,15.5,99.5z"/>
		<path fill="#E7EDEF" stroke="#B9CBD1" stroke-miterlimit="10" d="M15.1,99.5h57.4c2.8,0,5-1.9,5-4.8V20.3c0-1-12.9-13.8-13.9-13.8
			h-53c-2.8,0-5.1,2.8-5.1,5.6v78.4C5.5,92.4,13.2,99.5,15.1,99.5z"/>
		<path fill="#E8EEF0" stroke="#B9CBD1" stroke-miterlimit="10" d="M14.7,100.5h57.6c2.8,0,5.2-2.8,5.2-5.6V20.7
			c0-0.9-13.3-13.2-14.3-13.2H10.4c-2.8,0-4.9,1.9-4.9,4.8v78.6C5.5,92.8,12.8,100.5,14.7,100.5z"/>
		<path fill="#E9EFF1" stroke="#B9CBD1" stroke-miterlimit="10" d="M14.4,100.5h57.8c2.8,0,5.4-2.6,5.4-5.5V21
			c0-0.9-13.8-13.5-14.6-13.5H10.2c-2.8,0-4.7,2.1-4.7,4.9v78.7C5.5,93.1,12.4,100.5,14.4,100.5z"/>
		<path fill="#EAF0F1" stroke="#B9CBD1" stroke-miterlimit="10" d="M14,100.5h58c2.8,0,5.6-2.5,5.6-5.3V21.3
			c0-0.8-14.2-13.8-15-13.8H10c-2.8,0-5.5,2.2-5.5,5.1v78.9C4.5,93.5,12,100.5,14,100.5z"/>
		<path fill="#EBF0F2" stroke="#B9CBD1" stroke-miterlimit="10" d="M13.6,100.5h58.1c2.8,0,4.7-2.3,4.7-5.2V21.6
			c0-0.8-13.6-14.1-14.4-14.1H9.8c-2.8,0-5.3,2.4-5.3,5.2v79.1C4.5,93.9,11.6,100.5,13.6,100.5z"/>
		<path fill="#ECF1F3" stroke="#B9CBD1" stroke-miterlimit="10" d="M13.2,100.5h58.3c2.8,0,4.9-2.2,4.9-5V22
			c0-0.8-14-14.5-14.8-14.5H9.7c-2.8,0-5.2,2.5-5.2,5.4v79.2C4.5,94.2,11.2,100.5,13.2,100.5z"/>
		<path fill="#EDF2F3" stroke="#B9CBD1" stroke-miterlimit="10" d="M12.9,100.5h58.5c2.8,0,5.1-2,5.1-4.9V22.3
			c0-0.7-14.4-14.8-15.1-14.8H9.5c-2.8,0-5,2.7-5,5.5v79.4C4.5,94.6,10.7,100.5,12.9,100.5z"/>
		<path fill="#EEF3F4" stroke="#B9CBD1" stroke-width="2" stroke-miterlimit="10" d="M12.5,101h58.7c2.8,0,4.8-2.4,4.8-5.2V22.6
			C76,21.9,61.7,8,61,8H9.3C6.4,8,4,10.3,4,13.2v79.6C4,95,10.3,101,12.5,101z"/>
		<path fill="#EFF3F5" stroke="#B9CBD1" stroke-width="2" stroke-miterlimit="10" d="M12.1,101H71c2.8,0,5-2.2,5-5.1v-73
			C76,22.3,61.3,8,60.6,8H9.1C6.3,8,4,10.5,4,13.3v79.8C4,95.3,9.9,101,12.1,101z"/>
		<path fill="#F0F4F5" stroke="#B9CBD1" stroke-width="2" stroke-miterlimit="10" d="M11.8,101h59.1c2.8,0,5.2-2.1,5.2-4.9V23.3
			C76,22.7,60.9,8,60.3,8H8.9C6.1,8,4,10.6,4,13.5v79.9C4,95.7,9.5,101,11.8,101z"/>
		<path fill="#F1F5F6" stroke="#B9CBD1" stroke-width="2" stroke-miterlimit="10" d="M11.4,101h59.3c2.8,0,5.3-2,5.3-4.8V23.6
			C76,23,60.4,8,59.9,8H8.7C5.9,8,4,10.8,4,13.6v80.1C4,96,9.1,101,11.4,101z"/>
		<path fill="#F2F5F7" stroke="#B9CBD1" stroke-width="2" stroke-miterlimit="10" d="M11,102h59.5c2.8,0,5.5-2.8,5.5-5.7V23.9
			C76,23.4,60,9,59.5,9h-51C5.7,9,3,10.9,3,13.8v80.3C3,96.4,8.7,102,11,102z"/>
		<path fill="#F3F6F7" stroke="#B9CBD1" stroke-width="2" stroke-miterlimit="10" d="M10.6,102h59.7c2.8,0,4.7-2.7,4.7-5.5V24.2
			C75,23.7,59.6,9,59.1,9H8.4C5.5,9,3,11.1,3,13.9v80.5C3,96.8,8.3,102,10.6,102z"/>
		<path fill="#F4F7F8" stroke="#B9CBD1" stroke-width="2" stroke-miterlimit="10" d="M10.3,102h59.8c2.8,0,4.9-2.5,4.9-5.4V24.5
			C75,24.1,59.2,9,58.8,9H8.2C5.3,9,3,11.2,3,14.1v80.6C3,97.1,7.9,102,10.3,102z"/>
		<path fill="#F5F8F9" stroke="#B9CBD1" stroke-width="2" stroke-miterlimit="10" d="M9.9,102h60c2.8,0,5.1-2.4,5.1-5.2V24.9
			C75,24.5,58.8,9,58.4,9H8c-2.8,0-5,2.4-5,5.2v80.8C3,97.5,7.4,102,9.9,102z"/>
		<path fill="#F6F8F9" stroke="#B9CBD1" stroke-width="2" stroke-miterlimit="10" d="M9.5,102h60.2c2.8,0,5.3-2.2,5.3-5.1V25.2
			C75,24.8,58.4,9,58,9H7.8C5,9,3,11.5,3,14.4v81C3,97.9,7,102,9.5,102z"/>
		<path fill="#F7F9FA" stroke="#B9CBD1" stroke-width="2" stroke-miterlimit="10" d="M9.1,102h60.4c2.8,0,5.4-2.1,5.4-4.9V25.5
			C75,25.2,58,9,57.6,9h-50C4.8,9,2,11.7,2,14.5v81.2C2,98.2,6.6,102,9.1,102z"/>
		<path fill="#F8FAFA" stroke="#B9CBD1" stroke-width="2" stroke-miterlimit="10" d="M8.8,102h60.6c2.8,0,5.6-1.9,5.6-4.8V25.8
			C75,25.6,57.6,10,57.3,10H7.4C4.6,10,2,11.8,2,14.7V96C2,98.6,6.2,102,8.8,102z"/>
		<path fill="#F9FBFB" stroke="#B9CBD1" stroke-width="2" stroke-miterlimit="10" d="M8.4,103h60.8c2.8,0,4.8-2.8,4.8-5.6V26.2
			C74,25.9,57.1,10,56.9,10H7.3C4.4,10,2,12,2,14.8v81.5C2,99,5.8,103,8.4,103z"/>
		<path fill="#FAFBFC" stroke="#B9CBD1" stroke-width="2" stroke-miterlimit="10" d="M8,103h61c2.8,0,5-2.6,5-5.5V26.5
			C74,26.3,56.7,10,56.5,10H7.1C4.2,10,2,12.1,2,15v81.7C2,99.3,5.4,103,8,103z"/>
		<path fill="#FBFCFC" stroke="#B9CBD1" stroke-width="2" stroke-miterlimit="10" d="M7.7,103h61.2c2.8,0,5.2-2.5,5.2-5.3V26.8
			C74,26.6,56.3,10,56.2,10H6.9C4,10,2,12.3,2,15.1V97C2,99.7,5,103,7.7,103z"/>
		<path fill="#FCFDFD" stroke="#B9CBD1" stroke-width="2" stroke-miterlimit="10" d="M7.3,103h61.4c2.8,0,5.4-2.3,5.4-5.2V27.1
			C74,27,55.9,10,55.8,10H6.7C3.9,10,2,12.4,2,15.3v82C2,100,4.5,103,7.3,103z"/>
		<path fill="#FDFEFE" stroke="#B9CBD1" stroke-width="2" stroke-miterlimit="10" d="M6.9,103h61.5c2.8,0,5.6-2.2,5.6-5V27.5
			C74,27.4,55.5,10,55.4,10H6.5C3.7,10,1,12.6,1,15.4v82.2C1,100.4,4.1,103,6.9,103z"/>
		<path fill="#FEFEFE" stroke="#B9CBD1" stroke-width="2" stroke-miterlimit="10" d="M6.5,103h61.7c2.8,0,4.7-2,4.7-4.9V27.8
			c0,0-17.9-17.8-18-17.8H6.3C3.5,10,1,12.7,1,15.6V98C1,100.8,3.7,103,6.5,103z"/>
		<path fill="#FFFFFF" stroke="#B9CBD1" stroke-width="2" stroke-miterlimit="10" d="M6.2,103h61.9c2.8,0,4.9-1.9,4.9-4.7V28.1
			L54.7,11H6.2C3.3,11,1,12.9,1,15.7v82.6C1,101.1,3.3,103,6.2,103z"/>
		<g>
			<path fill="#DCE5E8" d="M19.8,39h25.8L56,47.9v37.9c0,1.4-1.4,3.2-2.8,3.2H19.8c-1.4,0-2.8-1.7-2.8-3.2V41.9
				C17,40.5,18.4,39,19.8,39z"/>
			<path fill="#B9CBD1" d="M34,33v-3h3v3H34z M29.7,74.9c-0.5,0-1.1-0.1-1.6-0.2c-0.5-0.2-0.9-0.4-1.3-0.8l1.3-2
				c0.2,0.2,0.4,0.3,0.6,0.4c0.2,0.1,0.5,0.1,0.7,0.1c0.4,0,0.8-0.1,1.1-0.4c0.3-0.3,0.6-0.6,0.6-1V59h3v11.7c0,0.6-0.3,1.2-0.5,1.7
				c-0.2,0.5-0.6,1-0.9,1.3c-0.4,0.4-0.8,0.7-1.3,0.9C30.8,74.8,30.2,74.9,29.7,74.9z"/>
			<path fill="#B9CBD1" d="M59.2,65.9c-1,0-1.9-0.2-2.8-0.5c-0.9-0.3-1.7-0.7-2.3-1.3l1.1-1.8c0.7,0.5,1.4,0.9,2,1.1s1.3,0.4,2,0.4
				c0.6,0,1-0.1,1.4-0.3c0.3-0.2,0.5-0.5,0.5-0.9c0-0.4-0.2-0.7-0.6-0.9c-0.4-0.2-1-0.4-1.9-0.6c-0.7-0.2-1.4-0.4-1.9-0.6
				c-0.5-0.2-0.9-0.4-1.3-0.6s-0.5-0.5-0.7-0.8c-0.1-0.3-0.2-0.7-0.2-1.1c0-0.6,0.1-1.1,0.3-1.6c0.2-0.5,0.5-0.9,0.9-1.2
				c0.4-0.3,0.9-0.6,1.4-0.7c0.5-0.2,1.1-0.3,1.8-0.3c0.9,0,1.6,0.1,2.4,0.4c0.7,0.2,1.4,0.6,2,1.2l-1.2,1.8c-0.6-0.4-1.1-0.7-1.7-1
				c-0.5-0.2-1.1-0.3-1.6-0.3c-0.5,0-0.9,0.1-1.2,0.3c-0.3,0.2-0.5,0.5-0.5,1c0,0.2,0,0.4,0.1,0.5c0.1,0.1,0.2,0.2,0.4,0.3
				c0.2,0.1,0.4,0.2,0.7,0.3c0.3,0.1,0.6,0.2,1,0.3c0.8,0.2,1.4,0.4,2,0.6c0.6,0.2,1,0.4,1.4,0.7c0.4,0.3,0.6,0.6,0.8,0.9
				s0.2,0.7,0.2,1.2c0,1.1-0.4,2-1.2,2.6C61.7,65.6,60.6,65.9,59.2,65.9z"/>
		</g>
		<text transform="matrix(1 0 0 1 22 73)" fill="#B9CBD1" font-family="'Raleway-Bold'" font-size="43.2374">.js</text>
		<g>
			<path fill="#B9CBD1" stroke="#B9CBD1" stroke-miterlimit="10" d="M52.7,49.3c0,0-5.3,3.3-8,3.2c-1,0-4.1-0.8-4.1-1.8V40.5H43"/>
			<path fill="#B9CBD1" d="M49,31v-2h3v2H49z M46.6,53.3c-0.5,0-1.1-0.1-1.6-0.2c-0.5-0.2-0.9-0.4-1.3-0.8l1.3-2
				c0.2,0.2,0.4,0.3,0.6,0.4c0.2,0.1,0.5,0.1,0.7,0.1c0.4,0,0.9-0.1,1.2-0.4c0.3-0.3,0.6-0.6,0.6-1V38h3v11.2c0,0.6-0.3,1.2-0.5,1.7
				c-0.2,0.5-0.6,1-0.9,1.3c-0.4,0.4-0.8,0.7-1.3,0.9C47.7,53.2,47.1,53.3,46.6,53.3z"/>
			<path fill="#B9CBD1" d="M62.5,48.4c-1,0-1.9-0.2-2.8-0.5c-0.9-0.3-1.7-0.7-2.3-1.3l1.1-1.8c0.7,0.5,1.4,0.9,2,1.1s1.3,0.4,2,0.4
				c0.6,0,1-0.1,1.4-0.3c0.3-0.2,0.5-0.5,0.5-0.9c0-0.4-0.2-0.7-0.6-0.9c-0.4-0.2-1-0.4-1.9-0.6c-0.7-0.2-1.4-0.4-1.9-0.6
				c-0.5-0.2-0.9-0.4-1.3-0.6s-0.5-0.5-0.7-0.8c-0.1-0.3-0.2-0.7-0.2-1.1c0-0.6,0.1-1.1,0.3-1.6c0.2-0.5,0.5-0.9,0.9-1.2
				c0.4-0.3,0.9-0.6,1.4-0.7c0.5-0.2,1.1-0.3,1.8-0.3c0.9,0,1.6,0.1,2.4,0.4c0.7,0.2,1.4,0.6,2,1.2l-1.2,1.8c-0.6-0.4-1.1-0.7-1.7-1
				c-0.5-0.2-1.1-0.3-1.6-0.3c-0.5,0-0.9,0.1-1.2,0.3c-0.3,0.2-0.5,0.5-0.5,1c0,0.2,0,0.4,0.1,0.5c0.1,0.1,0.2,0.2,0.4,0.3
				c0.2,0.1,0.4,0.2,0.7,0.3c0.3,0.1,0.6,0.2,1,0.3c0.8,0.2,1.4,0.4,2,0.6c0.6,0.2,1,0.4,1.4,0.7c0.4,0.3,0.6,0.6,0.8,0.9
				s0.2,0.7,0.2,1.2c0,1.1-0.4,2-1.2,2.6C65.1,48.1,63.9,48.4,62.5,48.4z"/>
		</g>
		<path fill="none" stroke="#B9CBD1" stroke-width="2" stroke-miterlimit="10" d="M73.4,29.3c0,0-10.5,0.2-16,0
			c-2-0.1-3.5-1.8-3.5-3.8V12"/>
	</g>
</g>
</svg>
