<?xml version="1.0" encoding="utf-8"?>
<!-- Generator: Adobe Illustrator 18.0.0, SVG Export Plug-In . SVG Version: 6.00 Build 0)  -->
<!DOCTYPE svg PUBLIC "-//W3C//DTD SVG 1.1//EN" "http://www.w3.org/Graphics/SVG/1.1/DTD/svg11.dtd">
<svg version="1.1" id="Слой_1" xmlns="http://www.w3.org/2000/svg" xmlns:xlink="http://www.w3.org/1999/xlink" x="0px" y="0px"
	 viewBox="0 0 64.4 64.4" enable-background="new 0 0 64.4 64.4" xml:space="preserve">
<g>
	<path fill="#39B54A" d="M32.2,64.4c-3,0-5.8-0.4-8.6-1.2c-2.7-0.8-5.3-1.9-7.7-3.3c-2.4-1.4-4.6-3.1-6.5-5c-2-2-3.6-4.1-5-6.5
		c-1.4-2.4-2.5-4.9-3.3-7.7C0.4,38,0,35.2,0,32.2c0-3,0.4-5.8,1.2-8.6c0.8-2.7,1.9-5.3,3.3-7.7c1.4-2.4,3.1-4.6,5-6.5
		c2-2,4.1-3.6,6.5-5c2.4-1.4,4.9-2.5,7.7-3.3C26.4,0.4,29.2,0,32.2,0c4.4,0,8.6,0.8,12.5,2.5c3.9,1.7,7.3,4,10.2,6.9
		c2.9,2.9,5.2,6.3,6.9,10.2c1.7,3.9,2.5,8.1,2.5,12.5c0,3-0.4,5.8-1.2,8.6c-0.8,2.7-1.9,5.3-3.3,7.7c-1.4,2.4-3.1,4.6-5,6.5
		c-2,2-4.1,3.6-6.5,5c-2.4,1.4-4.9,2.5-7.7,3.3C38,64,35.2,64.4,32.2,64.4L32.2,64.4z M47.7,18.9H17.2c-0.3,0-0.6,0.1-0.8,0.3
		c-0.2,0.2-0.3,0.5-0.3,0.8v3.4c0,0.2,0.1,0.3,0.2,0.3l16,9.1l0.1,0.1c0.1,0,0.1,0,0.2-0.1l15.5-9.1c0.1,0,0.1-0.1,0.2-0.1
		c0,0,0.1,0,0.2-0.1c0.2,0,0.3-0.1,0.3-0.3V20c0-0.3-0.1-0.6-0.3-0.8C48.3,19,48,18.9,47.7,18.9L47.7,18.9z M25.8,32.6
		c0,0,0.1-0.1,0.1-0.2c0-0.1,0-0.2-0.1-0.2L16.6,27c-0.1,0-0.2,0-0.3,0c-0.1,0-0.1,0.1-0.1,0.2V41c0,0.1,0.1,0.2,0.2,0.3h0.1
		c0.1,0,0.1,0,0.1-0.1L25.8,32.6z M37,33.7c0-0.1-0.2-0.2-0.3-0.1l-3.5,2.1c-0.4,0.3-0.9,0.3-1.4,0l-3.1-1.7c-0.1-0.1-0.2-0.1-0.3,0
		L16.6,44.9c0,0-0.1,0.1-0.1,0.3c0,0,0,0.1,0.1,0.2c0.3,0.1,0.4,0.1,0.5,0.1h30.2c0.1,0,0.2,0,0.3-0.1c0-0.2,0-0.3-0.1-0.3L37,33.7z
		 M48.6,26.7h-0.3l-8.8,5.2c-0.1,0-0.1,0.1-0.1,0.2c0,0,0,0.1,0.1,0.2l8.8,9.5c0.1,0.1,0.2,0.1,0.2,0.1h0.1c0.1-0.1,0.2-0.2,0.2-0.3
		V27C48.8,26.9,48.7,26.8,48.6,26.7L48.6,26.7z M48.6,26.7"/>
</g>
</svg>
