<?xml version="1.0" encoding="utf-8"?>
<!-- Generator: Adobe Illustrator 18.1.1, SVG Export Plug-In . SVG Version: 6.00 Build 0)  -->
<svg version="1.1" id="Слой_1" xmlns="http://www.w3.org/2000/svg" xmlns:xlink="http://www.w3.org/1999/xlink" x="0px" y="0px"
	 viewBox="0 0 39.1 39.1" enable-background="new 0 0 39.1 39.1" xml:space="preserve">
<g>
</g>
<g>
	<circle id="XMLID_21_" fill="#2797CF" cx="19.6" cy="19.6" r="19.6"/>
	<g>
		<polygon id="XMLID_20_" fill="#FFFFFF" points="8.5,18.8 8.5,30.2 13.9,30.2 13.9,17.9 13.9,14.7 8.5,14.7 		"/>
		<circle id="XMLID_19_" fill="#FFFFFF" cx="11.2" cy="9.7" r="2.7"/>
		<path id="XMLID_18_" fill="#FFFFFF" d="M31.5,19.5c-0.4-2.9-1.7-4.7-5.6-4.7c-2.3,0-3.9,0.9-4.5,2.1h-0.1v-2.1H17v3v12.5h4.5v-7.7
			c0-2,0.4-4,2.9-4c2.5,0,2.7,2.3,2.7,4.1v7.5h4.6v-8.5h0C31.7,20.9,31.6,20.1,31.5,19.5z"/>
	</g>
</g>
</svg>
