<?xml version="1.0" encoding="utf-8"?>
<!-- Generator: Adobe Illustrator 18.1.1, SVG Export Plug-In . SVG Version: 6.00 Build 0)  -->
<svg version="1.1" id="Слой_1" xmlns="http://www.w3.org/2000/svg" xmlns:xlink="http://www.w3.org/1999/xlink" x="0px" y="0px"
	 viewBox="0 0 138 139.9" enable-background="new 0 0 138 139.9" xml:space="preserve">
<g>
	<path fill="#FFFFFF" stroke="#B9CBD1" stroke-width="2" stroke-miterlimit="10" d="M8,123.9c0,8.3,21.9,15,49,15s49-6.7,49-15
		c0-0.7,0.3-14.3,0-15c-3.2-7.3-24.2,0-49,0c-23.7,0-44.4-7.8-49-1C7.3,108.9,8,122.9,8,123.9z"/>
	<ellipse fill="#FFFFFF" stroke="#B9CBD1" stroke-width="2" stroke-miterlimit="10" cx="57" cy="107.9" rx="49" ry="15"/>
</g>
<path fill="#B9CBD1" d="M96.7,64.9c9.6,0,17.4-7.8,17.4-17.5c0-8.6-6.2-15.7-14.3-17.2c0.3-1.6,0.5-3.4,0.5-5.1
	C100.3,11.3,89,0,75.1,0C64.4,0,55.4,6.6,51.7,15.8c-2.7-1.3-5.8-2-9-2C32.5,13.8,24,21,22,30.6c-1.5-0.4-3-0.6-4.6-0.6
	C7.8,30,0,37.9,0,47.5s7.8,17.5,17.4,17.5H96.7z"/>
<g>
	<path fill="#FFFFFF" stroke="#B9CBD1" stroke-width="2" stroke-miterlimit="10" d="M8,104.9c0,8.3,21.9,15,49,15s49-6.7,49-15
		c0-0.7,0.3-14.3,0-15c-3.2-7.3-24.2,0-49,0c-23.7,0-44.4-7.8-49-1C7.3,89.9,8,103.9,8,104.9z"/>
	<ellipse fill="#FFFFFF" stroke="#B9CBD1" stroke-width="2" stroke-miterlimit="10" cx="57" cy="88.9" rx="49" ry="15"/>
</g>
<g>
	<path fill="#FFFFFF" stroke="#B9CBD1" stroke-width="2" stroke-miterlimit="10" d="M8,85.9c0,8.3,21.9,15,49,15s49-6.7,49-15
		c0-0.7,0.3-14.3,0-15c-3.2-7.3-24.2,0-49,0c-23.7,0-44.4-7.8-49-1C7.3,70.9,8,84.9,8,85.9z"/>
	<ellipse fill="#FFFFFF" stroke="#B9CBD1" stroke-width="2" stroke-miterlimit="10" cx="57" cy="69.9" rx="49" ry="15"/>
</g>
<g>
	<path fill="#FFFFFF" stroke="#B9CBD1" stroke-width="2" stroke-miterlimit="10" d="M8,66.9c0,8.3,21.9,15,49,15s49-6.7,49-15
		c0-0.7,0.3-14.3,0-15c-3.2-7.3-24.2,0-49,0c-23.7,0-44.4-7.8-49-1C7.3,51.9,8,65.9,8,66.9z"/>
	<ellipse fill="#FFFFFF" stroke="#B9CBD1" stroke-width="2" stroke-miterlimit="10" cx="57" cy="50.9" rx="49" ry="15"/>
</g>
<g>
	<g>
		<polygon fill="#B9CBD1" points="87.6,138.2 66.7,117.3 66.7,87.8 87.6,66.9 117.1,66.9 138,87.8 138,117.3 117.1,138.2 		"/>
		<path fill="#FFFFFF" d="M114.2,73.9L131,90.7v23.7l-16.8,16.8H90.5l-16.8-16.8V90.7l16.8-16.8H114.2 M116.3,68.9H88.4L68.7,88.6
			v27.9l19.7,19.7h27.9l19.7-19.7V88.6L116.3,68.9L116.3,68.9z"/>
	</g>
	<path fill="#FFFFFF" d="M110.7,112.2l-1.2,0c-0.2,0-0.4-0.2-0.4-0.4s0.2-0.4,0.4-0.4h3.7c1.5,0,2.6-1.2,2.6-2.6
		c0-1.5-1.2-2.6-2.6-2.6l-3.3,0c-0.2,0-0.4-0.2-0.4-0.4s0.2-0.4,0.4-0.4h4.9c1.4-0.1,2.5-1.2,2.5-2.6c0-1.5-1.2-2.6-2.6-2.6l-4.7,0
		c-0.2,0-0.4-0.2-0.4-0.4s0.2-0.4,0.4-0.4h3.4c1.4-0.1,2.5-1.2,2.5-2.6c0-1.5-1.2-2.6-2.6-2.6h-10.7c1.2-1.9,2.7-4.1,3.1-6.7
		c0.4-2.7-0.6-4.7-1.8-5.6c-1.4-1-2.9-0.3-2.9,0.8c0,3-1.5,7.1-9.6,13.7c-0.3,0.2-0.5,0.4-0.7,0.6c-2.2,2.1-3.5,5.1-3.5,8.4
		c0,6.5,5.3,11.8,11.8,11.8c0,0,0.1,0,0.1,0c0,0,0,0,0,0h11.7c1.3,0,2.4-1.1,2.4-2.4S112,112.2,110.7,112.2z"/>
</g>
</svg>
