<?xml version="1.0" encoding="utf-8"?>
<!-- Generator: Adobe Illustrator 18.1.1, SVG Export Plug-In . SVG Version: 6.00 Build 0)  -->
<svg version="1.1" id="Слой_1" xmlns="http://www.w3.org/2000/svg" xmlns:xlink="http://www.w3.org/1999/xlink" x="0px" y="0px"
	 viewBox="0 0 526.3 152.3" enable-background="new 0 0 526.3 152.3" xml:space="preserve">
<g>
	<path fill="#313332" d="M185.5,48.4l26,40.2V48.4H222v56.8h-12.2l-26-40.3v40.3h-10.6V48.4L185.5,48.4z"/>
	<path fill="#313332" d="M271.5,84.9c0,11.8-9.6,20.9-21.1,20.9c-11.5,0-21.1-9.2-21.1-20.9c0-11.7,9.6-20.9,21.1-20.9
		C261.9,64,271.5,73.2,271.5,84.9z M239.5,84.9c0,6.1,4.8,10.9,10.9,10.9s10.9-4.8,10.9-10.9c0-6.1-4.8-10.9-10.9-10.9
		S239.5,78.8,239.5,84.9z"/>
	<path fill="#313332" d="M305.1,48.4l24.1,56.8h-5.5L316,87.5h-27.8l-7.6,17.7h-5.5l24.1-56.8H305.1z M302.2,54.5l-11.8,27.8h23.6
		L302.2,54.5z"/>
	<path fill="#313332" d="M367.2,48.4v56.8h-4.6v-3.4c-2.9,2.4-7.4,4.1-11.9,4.1c-11.7,0-18.6-6.1-18.7-20.6
		c-0.1-14.5,7-21.2,18.7-21.2c4.7,0,7.9,1.1,11.4,3.4V48.4L367.2,48.4z M362.1,72.1c-2.8-2.2-7-3.2-11-3.2c-10.3,0-14,6.5-14,16.4
		c0,10.3,3.7,15.9,14.1,15.9c3.9,0,8.3-1.4,10.9-3.9V72.1z"/>
	<path fill="#313332" d="M386.4,54.3v10.3h10.5v4.8h-10.5v26.8c0,3.3,3,5.1,6.1,5.1h4.4v4.5h-4.4c-6.4,0-11.2-3.7-11.2-9.6V69.5
		h-5.9v-4.8h5.9V54.3L386.4,54.3z"/>
	<path fill="#313332" d="M439,100.8c-4.3,4-9.9,5-15,5c-11.3,0-21.7-8.3-21.7-20.9c0-11.5,9.4-20.9,20.9-20.9
		c18.9,0,25.2,22.5,11.5,22.5H408c0,8.5,7.3,14.5,15.8,14.5c3.7,0,8.1-0.5,11.6-3.7L439,100.8z M432.8,81.8c3.9,0,4.7-3.4,2.7-6.7
		c-1.8-3.2-5.9-6.3-12.2-6.3c-8.3,0-14.6,6-15.1,13.1L432.8,81.8z"/>
	<path fill="#313332" d="M482,101.3c-3.6,2.8-8.1,4.5-13,4.5c-11.5,0-21-9.3-21-20.9c0-11.6,9.4-20.9,21-20.9
		c4.9,0,9.5,1.7,13.1,4.6l-3.6,3.6c-2.7-2.1-5.8-3.2-9.5-3.2c-8.9,0-15.9,7.1-15.9,16c0,8.9,7.1,16,15.9,16c3.6,0,6.7-1.1,9.4-3.1
		L482,101.3z"/>
	<path fill="#313332" d="M521.2,105.2V85.7c0-11.3-3.5-16.9-13.6-16.9c-4.1,0-8.7,1.8-11.9,3.9v32.5h-5.1V48.4h5v20
		c3.3-2.5,8.1-4.3,13.1-4.3c12.2,0.1,17.7,7.2,17.7,21.6v19.5H521.2z"/>
</g>
<g>
	<g>
		<polygon fill="#009444" points="44.6,152.3 0,107.7 0,44.6 44.6,0 107.7,0 152.3,44.6 152.3,107.7 107.7,152.3 		"/>
		<path fill="#FFFFFF" d="M104.8,7l40.5,40.5v57.3l-40.5,40.5H47.5L7,104.8V47.5L47.5,7H104.8 M106.9,2H45.4L2,45.4v61.4l43.4,43.4
			h61.4l43.4-43.4V45.4L106.9,2L106.9,2z"/>
	</g>
	<path fill="#FFFFFF" d="M97.5,102.2l-6.3,0c-0.6,0-1.1-0.5-1.1-1.1c0-0.6,0.5-1.1,1.1-1.1h12.5c3.7,0,6.7-3,6.7-6.7
		c0-3.7-3-6.7-6.7-6.7l-11.4,0c-0.6,0-1.1-0.5-1.1-1.1s0.5-1.1,1.1-1.1h15.6c3.5-0.2,6.3-3.1,6.3-6.7c0-3.7-3-6.7-6.7-6.7l-15.2,0
		c-0.6,0-1.1-0.5-1.1-1.1c0-0.6,0.5-1.1,1.1-1.1H104c3.6-0.1,6.4-3.1,6.4-6.7c0-3.7-3-6.7-6.7-6.7H76.5c3.1-5,6.8-10.4,7.9-17
		c1.1-6.8-1.5-12-4.6-14.2c-3.5-2.6-7.4-0.6-7.4,2.1c0,7.6-3.8,18.1-24.4,34.9c-0.7,0.6-1.3,1.1-1.8,1.6c-5.6,5.5-9,13.1-9,21.5
		c0,16.7,13.5,30.2,30.2,30.2c0.1,0,0.2,0,0.2,0c0,0,0.1,0,0.1,0h29.8c3.4,0,6.2-2.8,6.2-6.2C103.7,104.9,100.9,102.2,97.5,102.2z"
		/>
</g>
</svg>
