<?xml version="1.0" encoding="utf-8"?>
<!-- Generator: Adobe Illustrator 18.0.0, SVG Export Plug-In . SVG Version: 6.00 Build 0)  -->
<!DOCTYPE svg PUBLIC "-//W3C//DTD SVG 1.1//EN" "http://www.w3.org/Graphics/SVG/1.1/DTD/svg11.dtd">
<svg version="1.1" id="Слой_1" xmlns="http://www.w3.org/2000/svg" xmlns:xlink="http://www.w3.org/1999/xlink" x="0px" y="0px"
	 viewBox="0 0 31.1 19.7" enable-background="new 0 0 31.1 19.7" xml:space="preserve">
<g id="XMLID_1_">
	<g>
		<polygon fill="#FFFFFF" points="27.6,10.6 27.6,14.1 25.2,14.1 25.2,10.6 21.7,10.6 21.7,8.1 25.2,8.1 25.2,4.7 27.6,4.7 
			27.6,8.1 31.1,8.1 31.1,10.6 		"/>
		<path fill="#FFFFFF" d="M19.4,9.9c0,0.7-0.1,1.3-0.1,2c-0.8,5-4.5,7.9-9.4,7.9C4.4,19.7,0,15.3,0,9.9S4.4,0,9.9,0
			c2.6,0,5,0.9,6.6,2.6l-2.8,2.8c-1-1-2.3-1.5-3.8-1.5c-3.2,0-5.8,2.7-5.8,5.9c0,3.2,2.6,5.9,5.8,5.9c2.7,0,4.7-1.3,5.3-3.9H9.9v-4
			h9.3C19.3,8.5,19.4,9.2,19.4,9.9z"/>
	</g>
	<g>
	</g>
</g>
</svg>
