<?xml version="1.0" encoding="utf-8"?>
<!-- Generator: Adobe Illustrator 18.0.0, SVG Export Plug-In . SVG Version: 6.00 Build 0)  -->
<!DOCTYPE svg PUBLIC "-//W3C//DTD SVG 1.1//EN" "http://www.w3.org/Graphics/SVG/1.1/DTD/svg11.dtd">
<svg version="1.1" id="Слой_1" xmlns="http://www.w3.org/2000/svg" xmlns:xlink="http://www.w3.org/1999/xlink" x="0px" y="0px"
	 viewBox="0 0 136 35.5" enable-background="new 0 0 136 35.5" xml:space="preserve">
<g>
	<g>
		<g>
			<g>
				<path fill="#999999" d="M24.6,1.2l9.7,9.7v13.7l-9.7,9.7H10.9l-9.7-9.7V10.9l9.7-9.7H24.6 M25.1,0H10.4L0,10.4v14.7l10.4,10.4
					h14.7l10.4-10.4V10.4L25.1,0L25.1,0z"/>
			</g>
		</g>
	</g>
	<g>
		<g>
			<path fill="#999999" d="M22.8,24l-1.5,0c-0.1,0-0.3-0.1-0.3-0.3c0-0.1,0.1-0.3,0.3-0.3h3c0.9,0,1.6-0.7,1.6-1.6
				c0-0.9-0.7-1.6-1.6-1.6l-2.7,0c-0.1,0-0.3-0.1-0.3-0.3s0.1-0.3,0.3-0.3h3.7c0.8-0.1,1.5-0.7,1.5-1.6c0-0.9-0.7-1.6-1.6-1.6
				l-3.6,0c-0.1,0-0.3-0.1-0.3-0.3c0-0.1,0.1-0.3,0.3-0.3h2.8c0.9,0,1.5-0.7,1.5-1.6c0-0.9-0.7-1.6-1.6-1.6h-6.5
				c0.7-1.2,1.6-2.5,1.9-4.1c0.3-1.6-0.3-2.9-1.1-3.4c-0.8-0.6-1.8-0.2-1.8,0.5c0,1.8-0.9,4.3-5.8,8.3c-0.2,0.1-0.3,0.3-0.4,0.4
				c-1.3,1.3-2.2,3.1-2.2,5.2c0,4,3.2,7.2,7.2,7.2c0,0,0,0,0.1,0c0,0,0,0,0,0h7.1c0.8,0,1.5-0.7,1.5-1.5S23.7,24,22.8,24z"/>
		</g>
	</g>
</g>
<g>
	<g>
		<path fill="#999999" d="M51.6,7.3h2.8l6.2,16.2h-3.2l-1.5-4h-5.7l-1.5,4h-3.2L51.6,7.3z M55.2,17.2l-2.2-6.4l-2.3,6.4H55.2z"/>
		<path fill="#999999" d="M65.7,23.7c-0.8,0-1.6-0.2-2.3-0.5c-0.7-0.3-1.3-0.8-1.8-1.3c-0.5-0.6-0.9-1.2-1.2-2
			c-0.3-0.8-0.4-1.6-0.4-2.4s0.1-1.7,0.4-2.4c0.3-0.7,0.6-1.4,1.1-2c0.5-0.6,1-1,1.7-1.3c0.7-0.3,1.4-0.5,2.1-0.5
			c0.9,0,1.7,0.2,2.4,0.6c0.7,0.4,1.3,1,1.7,1.7V6.8h3.1V20c0,0.3,0.1,0.5,0.2,0.7c0.1,0.1,0.3,0.2,0.5,0.2v2.6
			c-0.5,0.1-1,0.2-1.3,0.2c-0.5,0-1-0.1-1.3-0.4c-0.3-0.3-0.5-0.6-0.6-1.1l-0.1-0.8c-0.4,0.8-1,1.3-1.8,1.7
			C67.3,23.5,66.5,23.7,65.7,23.7z M66.5,21.1c0.3,0,0.6,0,0.9-0.1c0.3-0.1,0.6-0.2,0.8-0.4c0.3-0.2,0.5-0.4,0.7-0.6
			c0.2-0.2,0.4-0.5,0.5-0.8v-2.8c-0.1-0.3-0.3-0.6-0.5-0.9c-0.2-0.3-0.5-0.5-0.8-0.7c-0.3-0.2-0.6-0.4-0.9-0.5
			c-0.3-0.1-0.6-0.2-0.9-0.2c-0.5,0-0.9,0.1-1.3,0.3c-0.4,0.2-0.7,0.5-1,0.8s-0.5,0.7-0.6,1.2c-0.2,0.4-0.2,0.9-0.2,1.4
			c0,0.5,0.1,1,0.3,1.4c0.2,0.4,0.4,0.8,0.7,1.1c0.3,0.3,0.6,0.6,1,0.8C65.5,21,66,21.1,66.5,21.1z"/>
		<path fill="#999999" d="M79.5,23.7c-0.8,0-1.6-0.2-2.3-0.5c-0.7-0.3-1.3-0.8-1.8-1.3c-0.5-0.6-0.9-1.2-1.2-2
			c-0.3-0.8-0.4-1.6-0.4-2.4s0.1-1.7,0.4-2.4c0.3-0.7,0.6-1.4,1.1-2c0.5-0.6,1-1,1.7-1.3c0.7-0.3,1.4-0.5,2.1-0.5
			c0.9,0,1.7,0.2,2.4,0.6c0.7,0.4,1.3,1,1.7,1.7V6.8h3.1V20c0,0.3,0.1,0.5,0.2,0.7c0.1,0.1,0.3,0.2,0.5,0.2v2.6
			c-0.5,0.1-1,0.2-1.3,0.2c-0.5,0-1-0.1-1.3-0.4c-0.3-0.3-0.5-0.6-0.6-1.1l-0.1-0.8c-0.4,0.8-1,1.3-1.8,1.7
			C81.1,23.5,80.3,23.7,79.5,23.7z M80.2,21.1c0.3,0,0.6,0,0.9-0.1c0.3-0.1,0.6-0.2,0.8-0.4c0.3-0.2,0.5-0.4,0.7-0.6
			c0.2-0.2,0.4-0.5,0.5-0.8v-2.8c-0.1-0.3-0.3-0.6-0.5-0.9c-0.2-0.3-0.5-0.5-0.8-0.7c-0.3-0.2-0.6-0.4-0.9-0.5
			c-0.3-0.1-0.6-0.2-0.9-0.2c-0.5,0-0.9,0.1-1.3,0.3c-0.4,0.2-0.7,0.5-1,0.8c-0.3,0.3-0.5,0.7-0.6,1.2c-0.2,0.4-0.2,0.9-0.2,1.4
			c0,0.5,0.1,1,0.3,1.4c0.2,0.4,0.4,0.8,0.7,1.1c0.3,0.3,0.6,0.6,1,0.8C79.3,21,79.8,21.1,80.2,21.1z"/>
	</g>
</g>
<g>
	<g>
		<path fill="#999999" d="M91,15.3c0-1,0.2-1.9,0.5-2.9c0.3-1,0.8-1.8,1.5-2.6c0.7-0.8,1.5-1.4,2.4-1.9c0.9-0.5,2-0.7,3.2-0.7
			c1.4,0,2.7,0.3,3.7,1c1,0.7,1.8,1.5,2.3,2.5l-1,0.5c-0.3-0.6-0.6-1-1-1.4c-0.4-0.4-0.8-0.7-1.3-0.9c-0.4-0.2-0.9-0.4-1.4-0.5
			c-0.5-0.1-1-0.2-1.4-0.2c-1,0-1.9,0.2-2.7,0.6c-0.8,0.4-1.5,1-2,1.6c-0.5,0.7-1,1.4-1.2,2.3c-0.3,0.8-0.4,1.7-0.4,2.5
			c0,1,0.2,1.9,0.5,2.7c0.3,0.9,0.8,1.6,1.4,2.3c0.6,0.7,1.3,1.2,2.1,1.6c0.8,0.4,1.6,0.6,2.6,0.6c0.5,0,1-0.1,1.5-0.2
			c0.5-0.1,1-0.3,1.5-0.6c0.5-0.3,0.9-0.6,1.3-1c0.4-0.4,0.8-0.9,1-1.4l1,0.5c-0.3,0.6-0.6,1.1-1.1,1.6c-0.5,0.5-1,0.9-1.6,1.2
			c-0.6,0.3-1.2,0.6-1.8,0.7c-0.6,0.2-1.3,0.2-1.9,0.2c-1.1,0-2.1-0.2-3-0.7c-0.9-0.5-1.7-1.1-2.4-1.9c-0.7-0.8-1.2-1.7-1.6-2.7
			C91.2,17.3,91,16.3,91,15.3z"/>
		<path fill="#999999" d="M106.9,23.5V7.3h6.7c0.7,0,1.3,0.1,1.9,0.4c0.6,0.3,1.1,0.7,1.5,1.2c0.4,0.5,0.7,1,1,1.6
			c0.2,0.6,0.4,1.2,0.4,1.8c0,0.7-0.1,1.3-0.3,1.9c-0.2,0.6-0.5,1.1-0.9,1.6c-0.4,0.5-0.9,0.8-1.4,1.1c-0.6,0.3-1.2,0.4-1.9,0.4
			h-5.6v6.1H106.9z M108.1,16.3h5.6c0.5,0,1-0.1,1.4-0.3c0.4-0.2,0.8-0.5,1.1-0.9c0.3-0.4,0.5-0.8,0.7-1.3c0.2-0.5,0.2-1,0.2-1.5
			c0-0.5-0.1-1-0.3-1.5c-0.2-0.5-0.4-0.9-0.8-1.3c-0.3-0.4-0.7-0.7-1.1-0.9c-0.4-0.2-0.9-0.3-1.4-0.3h-5.4V16.3z"/>
		<path fill="#999999" d="M134.8,23.5v-14l-6.4,10.9h-0.7l-6.4-10.9v14h-1.2V7.3h1.2l6.7,11.6l6.7-11.6h1.2v16.2H134.8z"/>
	</g>
</g>
</svg>
