<?xml version="1.0" encoding="utf-8"?>
<!-- Generator: Adobe Illustrator 18.0.0, SVG Export Plug-In . SVG Version: 6.00 Build 0)  -->
<!DOCTYPE svg PUBLIC "-//W3C//DTD SVG 1.1//EN" "http://www.w3.org/Graphics/SVG/1.1/DTD/svg11.dtd">
<svg version="1.1" id="Слой_1" xmlns="http://www.w3.org/2000/svg" xmlns:xlink="http://www.w3.org/1999/xlink" x="0px" y="0px"
	 viewBox="0 0 136.5 36.4" enable-background="new 0 0 136.5 36.4" xml:space="preserve">
<g id="XMLID_28_">
	<g>
		<g>
			<g>
				<g>
					<g>
						<polygon fill="#009444" points="10.7,36.4 0,25.8 0,10.7 10.7,0 25.8,0 36.4,10.7 36.4,25.8 25.8,36.4 						"/>
					</g>
				</g>
				<g>
					<g>
						<path fill="#FFFFFF" d="M25.1,1.7l9.7,9.7v13.7l-9.7,9.7H11.4l-9.7-9.7V11.4l9.7-9.7H25.1 M25.6,0.5H10.9L0.5,10.9v14.7
							L10.9,36h14.7L36,25.6V10.9L25.6,0.5L25.6,0.5z"/>
					</g>
				</g>
			</g>
			<g>
				<g>
					<path fill="#FFFFFF" d="M23.3,24.5l-1.5,0c-0.1,0-0.3-0.1-0.3-0.3c0-0.1,0.1-0.3,0.3-0.3h3c0.9,0,1.6-0.7,1.6-1.6
						c0-0.9-0.7-1.6-1.6-1.6l-2.7,0c-0.1,0-0.3-0.1-0.3-0.3c0-0.1,0.1-0.3,0.3-0.3h3.7c0.8-0.1,1.5-0.7,1.5-1.6
						c0-0.9-0.7-1.6-1.6-1.6l-3.6,0c-0.1,0-0.3-0.1-0.3-0.3s0.1-0.3,0.3-0.3h2.8c0.9,0,1.5-0.7,1.5-1.6c0-0.9-0.7-1.6-1.6-1.6h-6.5
						c0.7-1.2,1.6-2.5,1.9-4.1c0.3-1.6-0.3-2.9-1.1-3.4c-0.8-0.6-1.8-0.2-1.8,0.5c0,1.8-0.9,4.3-5.8,8.3c-0.2,0.1-0.3,0.3-0.4,0.4
						c-1.3,1.3-2.2,3.1-2.2,5.2c0,4,3.2,7.2,7.2,7.2c0,0,0,0,0.1,0c0,0,0,0,0,0h7.1c0.8,0,1.5-0.7,1.5-1.5
						C24.8,25.1,24.1,24.5,23.3,24.5z"/>
				</g>
			</g>
		</g>
		<g>
			<path fill="#313332" d="M52,7.8h2.8L61,24h-3.2l-1.5-4h-5.7l-1.5,4h-3.2L52,7.8z M55.7,17.7l-2.2-6.4l-2.3,6.4H55.7z"/>
			<path fill="#313332" d="M66.1,24.2c-0.8,0-1.6-0.2-2.3-0.5c-0.7-0.3-1.3-0.8-1.8-1.3c-0.5-0.6-0.9-1.2-1.2-2
				c-0.3-0.8-0.4-1.6-0.4-2.4s0.1-1.7,0.4-2.4c0.3-0.7,0.6-1.4,1.1-2c0.5-0.6,1-1,1.7-1.3c0.7-0.3,1.4-0.5,2.1-0.5
				c0.9,0,1.7,0.2,2.4,0.6c0.7,0.4,1.3,1,1.7,1.7V7.3h3.1v13.1c0,0.3,0.1,0.5,0.2,0.7c0.1,0.1,0.3,0.2,0.5,0.2V24
				c-0.5,0.1-1,0.2-1.3,0.2c-0.5,0-1-0.1-1.3-0.4c-0.3-0.3-0.5-0.6-0.6-1.1l-0.1-0.8c-0.4,0.8-1,1.3-1.8,1.7
				C67.7,24,67,24.2,66.1,24.2z M66.9,21.6c0.3,0,0.6,0,0.9-0.1c0.3-0.1,0.6-0.2,0.8-0.4c0.3-0.2,0.5-0.4,0.7-0.6
				c0.2-0.2,0.4-0.5,0.5-0.8v-2.8c-0.1-0.3-0.3-0.6-0.5-0.9c-0.2-0.3-0.5-0.5-0.8-0.7c-0.3-0.2-0.6-0.4-0.9-0.5
				c-0.3-0.1-0.6-0.2-0.9-0.2c-0.5,0-0.9,0.1-1.3,0.3c-0.4,0.2-0.7,0.5-1,0.8c-0.3,0.3-0.5,0.7-0.6,1.2c-0.2,0.4-0.2,0.9-0.2,1.4
				c0,0.5,0.1,1,0.3,1.4c0.2,0.4,0.4,0.8,0.7,1.1c0.3,0.3,0.6,0.6,1,0.8C66,21.5,66.5,21.6,66.9,21.6z"/>
			<path fill="#313332" d="M79.9,24.2c-0.8,0-1.6-0.2-2.3-0.5c-0.7-0.3-1.3-0.8-1.8-1.3c-0.5-0.6-0.9-1.2-1.2-2
				c-0.3-0.8-0.4-1.6-0.4-2.4s0.1-1.7,0.4-2.4c0.3-0.7,0.6-1.4,1.1-2c0.5-0.6,1-1,1.7-1.3c0.7-0.3,1.4-0.5,2.1-0.5
				c0.9,0,1.7,0.2,2.4,0.6c0.7,0.4,1.3,1,1.7,1.7V7.3h3.1v13.1c0,0.3,0.1,0.5,0.2,0.7c0.1,0.1,0.3,0.2,0.5,0.2V24
				c-0.5,0.1-1,0.2-1.3,0.2c-0.5,0-1-0.1-1.3-0.4c-0.3-0.3-0.5-0.6-0.6-1.1l-0.1-0.8c-0.4,0.8-1,1.3-1.8,1.7
				C81.5,24,80.7,24.2,79.9,24.2z M80.7,21.6c0.3,0,0.6,0,0.9-0.1c0.3-0.1,0.6-0.2,0.8-0.4c0.3-0.2,0.5-0.4,0.7-0.6
				c0.2-0.2,0.4-0.5,0.5-0.8v-2.8c-0.1-0.3-0.3-0.6-0.5-0.9c-0.2-0.3-0.5-0.5-0.8-0.7c-0.3-0.2-0.6-0.4-0.9-0.5
				c-0.3-0.1-0.6-0.2-0.9-0.2c-0.5,0-0.9,0.1-1.3,0.3c-0.4,0.2-0.7,0.5-1,0.8c-0.3,0.3-0.5,0.7-0.6,1.2c-0.2,0.4-0.2,0.9-0.2,1.4
				c0,0.5,0.1,1,0.3,1.4c0.2,0.4,0.4,0.8,0.7,1.1c0.3,0.3,0.6,0.6,1,0.8C79.8,21.5,80.2,21.6,80.7,21.6z"/>
		</g>
		<g>
			<path fill="#313332" d="M91.5,15.8c0-1,0.2-1.9,0.5-2.9c0.3-1,0.8-1.8,1.5-2.6c0.7-0.8,1.5-1.4,2.4-1.9c0.9-0.5,2-0.7,3.2-0.7
				c1.4,0,2.7,0.3,3.7,1c1,0.7,1.8,1.5,2.3,2.5l-1,0.5c-0.3-0.6-0.6-1-1-1.4c-0.4-0.4-0.8-0.7-1.3-0.9c-0.4-0.2-0.9-0.4-1.4-0.5
				c-0.5-0.1-1-0.2-1.4-0.2c-1,0-1.9,0.2-2.7,0.6c-0.8,0.4-1.5,1-2,1.6c-0.5,0.7-1,1.4-1.2,2.3c-0.3,0.8-0.4,1.7-0.4,2.5
				c0,1,0.2,1.9,0.5,2.7c0.3,0.9,0.8,1.6,1.4,2.3c0.6,0.7,1.3,1.2,2.1,1.6c0.8,0.4,1.6,0.6,2.6,0.6c0.5,0,1-0.1,1.5-0.2
				c0.5-0.1,1-0.3,1.5-0.6c0.5-0.3,0.9-0.6,1.3-1c0.4-0.4,0.8-0.9,1-1.4l1,0.5c-0.3,0.6-0.6,1.1-1.1,1.6c-0.5,0.5-1,0.9-1.6,1.2
				c-0.6,0.3-1.2,0.6-1.8,0.7c-0.6,0.2-1.3,0.2-1.9,0.2c-1.1,0-2.1-0.2-3-0.7c-0.9-0.5-1.7-1.1-2.4-1.9c-0.7-0.8-1.2-1.7-1.6-2.7
				C91.7,17.8,91.5,16.8,91.5,15.8z"/>
			<path fill="#313332" d="M107.4,24V7.8h6.7c0.7,0,1.3,0.1,1.9,0.4c0.6,0.3,1.1,0.7,1.5,1.2c0.4,0.5,0.7,1,1,1.6
				c0.2,0.6,0.4,1.2,0.4,1.8c0,0.7-0.1,1.3-0.3,1.9c-0.2,0.6-0.5,1.1-0.9,1.6c-0.4,0.5-0.9,0.8-1.4,1.1c-0.6,0.3-1.2,0.4-1.9,0.4
				h-5.6V24H107.4z M108.6,16.8h5.6c0.5,0,1-0.1,1.4-0.3c0.4-0.2,0.8-0.5,1.1-0.9c0.3-0.4,0.5-0.8,0.7-1.3c0.2-0.5,0.2-1,0.2-1.5
				c0-0.5-0.1-1-0.3-1.5c-0.2-0.5-0.4-0.9-0.8-1.3c-0.3-0.4-0.7-0.7-1.1-0.9c-0.4-0.2-0.9-0.3-1.4-0.3h-5.4V16.8z"/>
			<path fill="#313332" d="M135.3,24V10l-6.4,10.9h-0.7L121.8,10v14h-1.2V7.8h1.2l6.7,11.6l6.7-11.6h1.2V24H135.3z"/>
		</g>
	</g>
</g>
</svg>
