<?xml version="1.0" encoding="utf-8"?>
<!-- Generator: Adobe Illustrator 18.1.1, SVG Export Plug-In . SVG Version: 6.00 Build 0)  -->
<svg version="1.1" id="Слой_1" xmlns="http://www.w3.org/2000/svg" xmlns:xlink="http://www.w3.org/1999/xlink" x="0px" y="0px"
	 viewBox="0 0 152.3 152.3" enable-background="new 0 0 152.3 152.3" xml:space="preserve">
<g>
	<g>
		<polygon fill="#009444" points="44.6,152.3 0,107.7 0,44.6 44.6,0 107.7,0 152.3,44.6 152.3,107.7 107.7,152.3 		"/>
		<path fill="#FFFFFF" d="M104.8,7l40.5,40.5v57.3l-40.5,40.5H47.5L7,104.8V47.5L47.5,7H104.8 M106.9,2H45.4L2,45.4v61.4l43.4,43.4
			h61.4l43.4-43.4V45.4L106.9,2L106.9,2z"/>
	</g>
	<path fill="#FFFFFF" d="M97.5,102.2l-6.3,0c-0.6,0-1.1-0.5-1.1-1.1c0-0.6,0.5-1.1,1.1-1.1h12.5c3.7,0,6.7-3,6.7-6.7
		c0-3.7-3-6.7-6.7-6.7l-11.4,0c-0.6,0-1.1-0.5-1.1-1.1s0.5-1.1,1.1-1.1h15.6c3.5-0.2,6.3-3.1,6.3-6.7c0-3.7-3-6.7-6.7-6.7l-15.2,0
		c-0.6,0-1.1-0.5-1.1-1.1c0-0.6,0.5-1.1,1.1-1.1H104c3.6-0.1,6.4-3.1,6.4-6.7c0-3.7-3-6.7-6.7-6.7H76.5c3.1-5,6.8-10.4,7.9-17
		c1.1-6.8-1.5-12-4.6-14.2c-3.5-2.6-7.4-0.6-7.4,2.1c0,7.6-3.8,18.1-24.4,34.9c-0.7,0.6-1.3,1.1-1.8,1.6c-5.6,5.5-9,13.1-9,21.5
		c0,16.7,13.5,30.2,30.2,30.2c0.1,0,0.2,0,0.2,0c0,0,0.1,0,0.1,0h29.8c3.4,0,6.2-2.8,6.2-6.2C103.7,104.9,100.9,102.2,97.5,102.2z"
		/>
</g>
</svg>
